<svg width="2292" height="1613" xmlns="http://www.w3.org/2000/svg" xmlns:xlink="http://www.w3.org/1999/xlink" xml:space="preserve" overflow="hidden"><defs><clipPath id="clip0"><rect x="2823" y="215" width="2292" height="1613"/></clipPath><clipPath id="clip1"><rect x="2823" y="215" width="2292" height="1613"/></clipPath></defs><g clip-path="url(#clip0)" transform="translate(-2823 -215)"><g clip-path="url(#clip1)"><rect x="2826" y="217" width="2284" height="1607" fill="#FFFFFF" fill-opacity="1"/><g><path d="M3190.5 1429.55 5060.5 1429.55M3190.5 1402.55 5060.5 1402.55M3190.5 1376.55 5060.5 1376.55M3190.5 1350.54 5060.5 1350.54M3190.5 1297.54 5060.5 1297.54M3190.5 1271.54 5060.5 1271.54M3190.5 1245.54 5060.5 1245.54M3190.5 1218.54 5060.5 1218.54M3190.5 1166.54 5060.5 1166.54M3190.5 1139.54 5060.5 1139.54M3190.5 1113.54 5060.5 1113.54M3190.5 1087.54 5060.5 1087.54M3190.5 1034.53 5060.5 1034.53M3190.5 1008.53 5060.5 1008.53M3190.5 981.532 5060.5 981.532M3190.5 955.531 5060.5 955.531M3190.5 903.53 5060.5 903.53M3190.5 876.529 5060.5 876.529M3190.5 850.528 5060.5 850.528M3190.5 824.527 5060.5 824.527M3190.5 771.526 5060.5 771.526M3190.5 745.525 5060.5 745.525M3190.5 718.524 5060.5 718.524M3190.5 692.523 5060.5 692.523M3190.5 639.521 5060.5 639.521M3190.5 613.52 5060.5 613.52M3190.5 587.519 5060.5 587.519M3190.5 561.519 5060.5 561.519M3190.5 508.517 5060.5 508.517M3190.5 482.516 5060.5 482.516M3190.5 455.515 5060.5 455.515M3190.5 429.514 5060.5 429.514M3190.5 376.513 5060.5 376.513M3190.5 350.512 5060.5 350.512M3190.5 324.511 5060.5 324.511M3190.5 297.51 5060.5 297.51" stroke="#F2F2F2" stroke-width="3.4375" stroke-linecap="butt" stroke-linejoin="round" stroke-miterlimit="10" stroke-opacity="1" fill="none" fill-rule="nonzero"/></g><g><path d="M3190.5 1324.54 5060.5 1324.54M3190.5 1192.54 5060.5 1192.54M3190.5 1060.53 5060.5 1060.53M3190.5 929.531 5060.5 929.531M3190.5 797.526 5060.5 797.526M3190.5 666.522 5060.5 666.522M3190.5 534.518 5060.5 534.518M3190.5 403.513 5060.5 403.513M3190.5 271.5 5060.5 271.5" stroke="#D9D9D9" stroke-width="3.4375" stroke-linecap="butt" stroke-linejoin="round" stroke-miterlimit="10" stroke-opacity="1" fill="none" fill-rule="nonzero"/></g><g><path d="M3190.5 271.5 3190.5 1455.5M3502.61 271.5 3502.61 1455.5M3813.63 271.5 3813.63 1455.5M4125.64 271.5 4125.64 1455.5M4436.65 271.5 4436.65 1455.5M4748.66 271.5 4748.66 1455.5M5060.5 271.5 5060.5 1455.5" stroke="#D9D9D9" stroke-width="3.4375" stroke-linecap="butt" stroke-linejoin="round" stroke-miterlimit="10" stroke-opacity="1" fill="none" fill-rule="nonzero"/></g><g><path d="M3267.11 903.03 3337.11 903.03 3337.11 1456 3267.11 1456ZM3579.12 365.012 3649.12 365.012 3649.12 1456 3579.12 1456ZM3890.13 1012.03 3960.13 1012.03 3960.13 1456 3890.13 1456ZM4202.14 1005.03 4272.14 1005.03 4272.14 1456 4202.14 1456ZM4513.15 1276.04 4583.15 1276.04 4583.15 1456 4513.15 1456ZM4825.16 1271.04 4895.16 1271.04 4895.16 1456 4825.16 1456Z" fill="#5F5F5F" fill-rule="nonzero" fill-opacity="1"/></g><g><path d="M3356.11 806.026 3426.11 806.026 3426.11 1456 3356.11 1456ZM3667.12 387.013 3737.12 387.013 3737.12 1456 3667.12 1456ZM3979.13 477.016 4049.13 477.016 4049.13 1456 3979.13 1456ZM4291.14 466.015 4360.14 466.015 4360.14 1456 4291.14 1456ZM4602.15 555.018 4672.15 555.018 4672.15 1456 4602.15 1456ZM4914.16 632.021 4983.16 632.021 4983.16 1456 4914.16 1456Z" fill="#B3B3B3" fill-rule="nonzero" fill-opacity="1"/></g><g><path d="M3190.5 1455.5 5060.5 1455.5" stroke="#D9D9D9" stroke-width="3.4375" stroke-linecap="butt" stroke-linejoin="round" stroke-miterlimit="10" stroke-opacity="1" fill="none" fill-rule="evenodd"/></g><g><text fill="#595959" fill-opacity="1" font-family="NanumMyeongjo,NanumMyeongjo_MSFontService,sans-serif" font-style="normal" font-variant="normal" font-weight="400" font-stretch="normal" font-size="55" text-anchor="start" direction="ltr" writing-mode="lr-tb" unicode-bidi="normal" text-decoration="none" transform="matrix(1 0 0 1 2979.68 1474)">0.0000</text></g><g><text fill="#595959" fill-opacity="1" font-family="NanumMyeongjo,NanumMyeongjo_MSFontService,sans-serif" font-style="normal" font-variant="normal" font-weight="400" font-stretch="normal" font-size="55" text-anchor="start" direction="ltr" writing-mode="lr-tb" unicode-bidi="normal" text-decoration="none" transform="matrix(1 0 0 1 2979.68 1342)">0.0100</text></g><g><text fill="#595959" fill-opacity="1" font-family="NanumMyeongjo,NanumMyeongjo_MSFontService,sans-serif" font-style="normal" font-variant="normal" font-weight="400" font-stretch="normal" font-size="55" text-anchor="start" direction="ltr" writing-mode="lr-tb" unicode-bidi="normal" text-decoration="none" transform="matrix(1 0 0 1 2979.68 1211)">0.0200</text></g><g><text fill="#595959" fill-opacity="1" font-family="NanumMyeongjo,NanumMyeongjo_MSFontService,sans-serif" font-style="normal" font-variant="normal" font-weight="400" font-stretch="normal" font-size="55" text-anchor="start" direction="ltr" writing-mode="lr-tb" unicode-bidi="normal" text-decoration="none" transform="matrix(1 0 0 1 2979.68 1079)">0.0300</text></g><g><text fill="#595959" fill-opacity="1" font-family="NanumMyeongjo,NanumMyeongjo_MSFontService,sans-serif" font-style="normal" font-variant="normal" font-weight="400" font-stretch="normal" font-size="55" text-anchor="start" direction="ltr" writing-mode="lr-tb" unicode-bidi="normal" text-decoration="none" transform="matrix(1 0 0 1 2979.68 948)">0.0400</text></g><g><text fill="#595959" fill-opacity="1" font-family="NanumMyeongjo,NanumMyeongjo_MSFontService,sans-serif" font-style="normal" font-variant="normal" font-weight="400" font-stretch="normal" font-size="55" text-anchor="start" direction="ltr" writing-mode="lr-tb" unicode-bidi="normal" text-decoration="none" transform="matrix(1 0 0 1 2979.68 816)">0.0500</text></g><g><text fill="#595959" fill-opacity="1" font-family="NanumMyeongjo,NanumMyeongjo_MSFontService,sans-serif" font-style="normal" font-variant="normal" font-weight="400" font-stretch="normal" font-size="55" text-anchor="start" direction="ltr" writing-mode="lr-tb" unicode-bidi="normal" text-decoration="none" transform="matrix(1 0 0 1 2979.68 685)">0.0600</text></g><g><text fill="#595959" fill-opacity="1" font-family="NanumMyeongjo,NanumMyeongjo_MSFontService,sans-serif" font-style="normal" font-variant="normal" font-weight="400" font-stretch="normal" font-size="55" text-anchor="start" direction="ltr" writing-mode="lr-tb" unicode-bidi="normal" text-decoration="none" transform="matrix(1 0 0 1 2979.68 553)">0.0700</text></g><g><text fill="#595959" fill-opacity="1" font-family="NanumMyeongjo,NanumMyeongjo_MSFontService,sans-serif" font-style="normal" font-variant="normal" font-weight="400" font-stretch="normal" font-size="55" text-anchor="start" direction="ltr" writing-mode="lr-tb" unicode-bidi="normal" text-decoration="none" transform="matrix(1 0 0 1 2979.68 421)">0.0800</text></g><g><text fill="#595959" fill-opacity="1" font-family="NanumMyeongjo,NanumMyeongjo_MSFontService,sans-serif" font-style="normal" font-variant="normal" font-weight="400" font-stretch="normal" font-size="55" text-anchor="start" direction="ltr" writing-mode="lr-tb" unicode-bidi="normal" text-decoration="none" transform="matrix(1 0 0 1 2979.68 290)">0.0900</text></g><g><text fill="#595959" fill-opacity="1" font-family="NanumMyeongjo,NanumMyeongjo_MSFontService,sans-serif" font-style="normal" font-variant="normal" font-weight="400" font-stretch="normal" font-size="55" text-anchor="start" direction="ltr" writing-mode="lr-tb" unicode-bidi="normal" text-decoration="none" transform="matrix(1 0 0 1 3285.79 1540)">IBCF</text></g><g><text fill="#595959" fill-opacity="1" font-family="NanumMyeongjo,NanumMyeongjo_MSFontService,sans-serif" font-style="normal" font-variant="normal" font-weight="400" font-stretch="normal" font-size="55" text-anchor="start" direction="ltr" writing-mode="lr-tb" unicode-bidi="normal" text-decoration="none" transform="matrix(1 0 0 1 3591.67 1540)">NMF</text></g><g><text fill="#595959" fill-opacity="1" font-family="NanumMyeongjo,NanumMyeongjo_MSFontService,sans-serif" font-style="normal" font-variant="normal" font-weight="400" font-stretch="normal" font-size="55" text-anchor="start" direction="ltr" writing-mode="lr-tb" unicode-bidi="normal" text-decoration="none" transform="matrix(1 0 0 1 3908.88 1540)">Rev1</text></g><g><text fill="#595959" fill-opacity="1" font-family="NanumMyeongjo,NanumMyeongjo_MSFontService,sans-serif" font-style="normal" font-variant="normal" font-weight="400" font-stretch="normal" font-size="55" text-anchor="start" direction="ltr" writing-mode="lr-tb" unicode-bidi="normal" text-decoration="none" transform="matrix(1 0 0 1 4220.39 1540)">Rev2</text></g><g><text fill="#595959" fill-opacity="1" font-family="NanumMyeongjo,NanumMyeongjo_MSFontService,sans-serif" font-style="normal" font-variant="normal" font-weight="400" font-stretch="normal" font-size="55" text-anchor="start" direction="ltr" writing-mode="lr-tb" unicode-bidi="normal" text-decoration="none" transform="matrix(1 0 0 1 4531.91 1540)">Rev4</text></g><g><text fill="#595959" fill-opacity="1" font-family="NanumMyeongjo,NanumMyeongjo_MSFontService,sans-serif" font-style="normal" font-variant="normal" font-weight="400" font-stretch="normal" font-size="55" text-anchor="start" direction="ltr" writing-mode="lr-tb" unicode-bidi="normal" text-decoration="none" transform="matrix(1 0 0 1 4785.8 1540)">Rev4Ver1</text></g><g><text fill="#595959" fill-opacity="1" font-family="NanumMyeongjo,NanumMyeongjo_MSFontService,sans-serif" font-style="normal" font-variant="normal" font-weight="400" font-stretch="normal" font-size="55" text-anchor="start" direction="ltr" writing-mode="lr-tb" unicode-bidi="normal" text-decoration="none" transform="matrix(6.12323e-17 -1 1 6.12323e-17 2943.68 1029)">Avg. f1 scores</text></g><g><text fill="#595959" fill-opacity="1" font-family="NanumMyeongjo,NanumMyeongjo_MSFontService,sans-serif" font-style="normal" font-variant="normal" font-weight="400" font-stretch="normal" font-size="55" text-anchor="start" direction="ltr" writing-mode="lr-tb" unicode-bidi="normal" text-decoration="none" transform="matrix(1 0 0 1 4041.12 1626)">models</text></g><g><rect x="3744" y="1737" width="27.9998" height="28.0002" fill="#5F5F5F" fill-opacity="1"/></g><g><text fill="#595959" fill-opacity="1" font-family="NanumMyeongjo,NanumMyeongjo_MSFontService,sans-serif" font-style="normal" font-variant="normal" font-weight="400" font-stretch="normal" font-size="55" text-anchor="start" direction="ltr" writing-mode="lr-tb" unicode-bidi="normal" text-decoration="none" transform="matrix(1 0 0 1 3784.92 1769)">likes</text></g><g><rect x="3937" y="1737" width="28.9998" height="28.0002" fill="#B3B3B3" fill-opacity="1"/></g><g><text fill="#595959" fill-opacity="1" font-family="NanumMyeongjo,NanumMyeongjo_MSFontService,sans-serif" font-style="normal" font-variant="normal" font-weight="400" font-stretch="normal" font-size="55" text-anchor="start" direction="ltr" writing-mode="lr-tb" unicode-bidi="normal" text-decoration="none" transform="matrix(1 0 0 1 3978.33 1769)">purchases</text></g><rect x="2826.5" y="217.5" width="2284" height="1607" stroke="#D9D9D9" stroke-width="3.4375" stroke-linecap="butt" stroke-linejoin="round" stroke-miterlimit="10" stroke-opacity="1" fill="none"/></g></g></svg>