<svg width="2292" height="1618" xmlns="http://www.w3.org/2000/svg" xmlns:xlink="http://www.w3.org/1999/xlink" xml:space="preserve" overflow="hidden"><defs><clipPath id="clip0"><rect x="2823" y="1920" width="2292" height="1618"/></clipPath><clipPath id="clip1"><rect x="2823" y="1920" width="2292" height="1618"/></clipPath></defs><g clip-path="url(#clip0)" transform="translate(-2823 -1920)"><g clip-path="url(#clip1)"><rect x="2826" y="1925" width="2284" height="1609" fill="#FFFFFF" fill-opacity="1"/><g><path d="M3161.5 3135.6 5060.5 3135.6M3161.5 3106.6 5060.5 3106.6M3161.5 3076.6 5060.5 3076.6M3161.5 3046.6 5060.5 3046.6M3161.5 2987.6 5060.5 2987.6M3161.5 2958.6 5060.5 2958.6M3161.5 2928.6 5060.5 2928.6M3161.5 2898.6 5060.5 2898.6M3161.5 2839.59 5060.5 2839.59M3161.5 2809.59 5060.5 2809.59M3161.5 2780.59 5060.5 2780.59M3161.5 2750.59 5060.5 2750.59M3161.5 2691.59 5060.5 2691.59M3161.5 2661.59 5060.5 2661.59M3161.5 2631.59 5060.5 2631.59M3161.5 2602.59 5060.5 2602.59M3161.5 2542.58 5060.5 2542.58M3161.5 2513.58 5060.5 2513.58M3161.5 2483.58 5060.5 2483.58M3161.5 2453.58 5060.5 2453.58M3161.5 2394.58 5060.5 2394.58M3161.5 2364.58 5060.5 2364.58M3161.5 2335.58 5060.5 2335.58M3161.5 2305.58 5060.5 2305.58M3161.5 2246.57 5060.5 2246.57M3161.5 2216.57 5060.5 2216.57M3161.5 2187.57 5060.5 2187.57M3161.5 2157.57 5060.5 2157.57M3161.5 2098.57 5060.5 2098.57M3161.5 2068.57 5060.5 2068.57M3161.5 2038.57 5060.5 2038.57M3161.5 2009.57 5060.5 2009.57" stroke="#F2F2F2" stroke-width="3.4375" stroke-linecap="butt" stroke-linejoin="round" stroke-miterlimit="10" stroke-opacity="1" fill="none" fill-rule="nonzero"/></g><g><path d="M3161.5 3017.6 5060.5 3017.6M3161.5 2869.59 5060.5 2869.59M3161.5 2720.59 5060.5 2720.59M3161.5 2572.58 5060.5 2572.58M3161.5 2424.58 5060.5 2424.58M3161.5 2276.57 5060.5 2276.57M3161.5 2127.57 5060.5 2127.57M3161.5 1979.5 5060.5 1979.5" stroke="#D9D9D9" stroke-width="3.4375" stroke-linecap="butt" stroke-linejoin="round" stroke-miterlimit="10" stroke-opacity="1" fill="none" fill-rule="nonzero"/></g><g><path d="M3161.5 1979.5 3161.5 3165.5M3477.61 1979.5 3477.61 3165.5M3794.62 1979.5 3794.62 3165.5M4110.64 1979.5 4110.64 3165.5M4426.65 1979.5 4426.65 3165.5M4743.66 1979.5 4743.66 3165.5M5060.5 1979.5 5060.5 3165.5" stroke="#D9D9D9" stroke-width="3.4375" stroke-linecap="butt" stroke-linejoin="round" stroke-miterlimit="10" stroke-opacity="1" fill="none" fill-rule="nonzero"/></g><g><path d="M3239.11 2547.08 3310.11 2547.08 3310.11 3166 3239.11 3166ZM3555.12 2060.07 3626.12 2060.07 3626.12 3166 3555.12 3166ZM3872.13 2664.09 3943.13 2664.09 3943.13 3166 3872.13 3166ZM4188.14 2666.09 4259.14 2666.09 4259.14 3166 4188.14 3166ZM4505.15 2944.1 4576.15 2944.1 4576.15 3166 4505.15 3166ZM4821.16 2939.1 4892.16 2939.1 4892.16 3166 4821.16 3166Z" fill="#5F5F5F" fill-rule="nonzero" fill-opacity="1"/></g><g><path d="M3329.11 3002.1 3400.11 3002.1 3400.11 3166 3329.11 3166ZM3645.12 2952.1 3716.12 2952.1 3716.12 3166 3645.12 3166ZM3962.13 2921.1 4033.13 2921.1 4033.13 3166 3962.13 3166ZM4278.14 2920.1 4349.14 2920.1 4349.14 3166 4278.14 3166ZM4595.15 2933.1 4666.15 2933.1 4666.15 3166 4595.15 3166ZM4911.16 2955.1 4982.16 2955.1 4982.16 3166 4911.16 3166Z" fill="#B3B3B3" fill-rule="nonzero" fill-opacity="1"/></g><g><path d="M3161.5 3165.5 5060.5 3165.5" stroke="#D9D9D9" stroke-width="3.4375" stroke-linecap="butt" stroke-linejoin="round" stroke-miterlimit="10" stroke-opacity="1" fill="none" fill-rule="evenodd"/></g><g><text fill="#595959" fill-opacity="1" font-family="NanumMyeongjo,NanumMyeongjo_MSFontService,sans-serif" font-style="normal" font-variant="normal" font-weight="400" font-stretch="normal" font-size="55" text-anchor="start" direction="ltr" writing-mode="lr-tb" unicode-bidi="normal" text-decoration="none" transform="matrix(1 0 0 1 3038.76 3184)">0.0</text></g><g><text fill="#595959" fill-opacity="1" font-family="NanumMyeongjo,NanumMyeongjo_MSFontService,sans-serif" font-style="normal" font-variant="normal" font-weight="400" font-stretch="normal" font-size="55" text-anchor="start" direction="ltr" writing-mode="lr-tb" unicode-bidi="normal" text-decoration="none" transform="matrix(1 0 0 1 2979.68 3036)">100.0</text></g><g><text fill="#595959" fill-opacity="1" font-family="NanumMyeongjo,NanumMyeongjo_MSFontService,sans-serif" font-style="normal" font-variant="normal" font-weight="400" font-stretch="normal" font-size="55" text-anchor="start" direction="ltr" writing-mode="lr-tb" unicode-bidi="normal" text-decoration="none" transform="matrix(1 0 0 1 2979.68 2887)">200.0</text></g><g><text fill="#595959" fill-opacity="1" font-family="NanumMyeongjo,NanumMyeongjo_MSFontService,sans-serif" font-style="normal" font-variant="normal" font-weight="400" font-stretch="normal" font-size="55" text-anchor="start" direction="ltr" writing-mode="lr-tb" unicode-bidi="normal" text-decoration="none" transform="matrix(1 0 0 1 2979.68 2739)">300.0</text></g><g><text fill="#595959" fill-opacity="1" font-family="NanumMyeongjo,NanumMyeongjo_MSFontService,sans-serif" font-style="normal" font-variant="normal" font-weight="400" font-stretch="normal" font-size="55" text-anchor="start" direction="ltr" writing-mode="lr-tb" unicode-bidi="normal" text-decoration="none" transform="matrix(1 0 0 1 2979.68 2591)">400.0</text></g><g><text fill="#595959" fill-opacity="1" font-family="NanumMyeongjo,NanumMyeongjo_MSFontService,sans-serif" font-style="normal" font-variant="normal" font-weight="400" font-stretch="normal" font-size="55" text-anchor="start" direction="ltr" writing-mode="lr-tb" unicode-bidi="normal" text-decoration="none" transform="matrix(1 0 0 1 2979.68 2443)">500.0</text></g><g><text fill="#595959" fill-opacity="1" font-family="NanumMyeongjo,NanumMyeongjo_MSFontService,sans-serif" font-style="normal" font-variant="normal" font-weight="400" font-stretch="normal" font-size="55" text-anchor="start" direction="ltr" writing-mode="lr-tb" unicode-bidi="normal" text-decoration="none" transform="matrix(1 0 0 1 2979.68 2294)">600.0</text></g><g><text fill="#595959" fill-opacity="1" font-family="NanumMyeongjo,NanumMyeongjo_MSFontService,sans-serif" font-style="normal" font-variant="normal" font-weight="400" font-stretch="normal" font-size="55" text-anchor="start" direction="ltr" writing-mode="lr-tb" unicode-bidi="normal" text-decoration="none" transform="matrix(1 0 0 1 2979.68 2146)">700.0</text></g><g><text fill="#595959" fill-opacity="1" font-family="NanumMyeongjo,NanumMyeongjo_MSFontService,sans-serif" font-style="normal" font-variant="normal" font-weight="400" font-stretch="normal" font-size="55" text-anchor="start" direction="ltr" writing-mode="lr-tb" unicode-bidi="normal" text-decoration="none" transform="matrix(1 0 0 1 2979.68 1998)">800.0</text></g><g><text fill="#595959" fill-opacity="1" font-family="NanumMyeongjo,NanumMyeongjo_MSFontService,sans-serif" font-style="normal" font-variant="normal" font-weight="400" font-stretch="normal" font-size="55" text-anchor="start" direction="ltr" writing-mode="lr-tb" unicode-bidi="normal" text-decoration="none" transform="matrix(1 0 0 1 3258.71 3250)">IBCF</text></g><g><text fill="#595959" fill-opacity="1" font-family="NanumMyeongjo,NanumMyeongjo_MSFontService,sans-serif" font-style="normal" font-variant="normal" font-weight="400" font-stretch="normal" font-size="55" text-anchor="start" direction="ltr" writing-mode="lr-tb" unicode-bidi="normal" text-decoration="none" transform="matrix(1 0 0 1 3569.51 3250)">NMF</text></g><g><text fill="#595959" fill-opacity="1" font-family="NanumMyeongjo,NanumMyeongjo_MSFontService,sans-serif" font-style="normal" font-variant="normal" font-weight="400" font-stretch="normal" font-size="55" text-anchor="start" direction="ltr" writing-mode="lr-tb" unicode-bidi="normal" text-decoration="none" transform="matrix(1 0 0 1 3891.65 3250)">Rev1</text></g><g><text fill="#595959" fill-opacity="1" font-family="NanumMyeongjo,NanumMyeongjo_MSFontService,sans-serif" font-style="normal" font-variant="normal" font-weight="400" font-stretch="normal" font-size="55" text-anchor="start" direction="ltr" writing-mode="lr-tb" unicode-bidi="normal" text-decoration="none" transform="matrix(1 0 0 1 4208.08 3250)">Rev2</text></g><g><text fill="#595959" fill-opacity="1" font-family="NanumMyeongjo,NanumMyeongjo_MSFontService,sans-serif" font-style="normal" font-variant="normal" font-weight="400" font-stretch="normal" font-size="55" text-anchor="start" direction="ltr" writing-mode="lr-tb" unicode-bidi="normal" text-decoration="none" transform="matrix(1 0 0 1 4524.52 3250)">Rev4</text></g><g><text fill="#595959" fill-opacity="1" font-family="NanumMyeongjo,NanumMyeongjo_MSFontService,sans-serif" font-style="normal" font-variant="normal" font-weight="400" font-stretch="normal" font-size="55" text-anchor="start" direction="ltr" writing-mode="lr-tb" unicode-bidi="normal" text-decoration="none" transform="matrix(1 0 0 1 4783.34 3250)">Rev4Ver1</text></g><g><text fill="#595959" fill-opacity="1" font-family="NanumMyeongjo,NanumMyeongjo_MSFontService,sans-serif" font-style="normal" font-variant="normal" font-weight="400" font-stretch="normal" font-size="55" text-anchor="start" direction="ltr" writing-mode="lr-tb" unicode-bidi="normal" text-decoration="none" transform="matrix(6.12323e-17 -1 1 6.12323e-17 2943.68 2684)">Avg. Hits</text></g><g><text fill="#595959" fill-opacity="1" font-family="NanumMyeongjo,NanumMyeongjo_MSFontService,sans-serif" font-style="normal" font-variant="normal" font-weight="400" font-stretch="normal" font-size="55" text-anchor="start" direction="ltr" writing-mode="lr-tb" unicode-bidi="normal" text-decoration="none" transform="matrix(1 0 0 1 4026.35 3336)">models</text></g><g><rect x="3744" y="3447" width="27.9998" height="27.9998" fill="#5F5F5F" fill-opacity="1"/></g><g><text fill="#595959" fill-opacity="1" font-family="NanumMyeongjo,NanumMyeongjo_MSFontService,sans-serif" font-style="normal" font-variant="normal" font-weight="400" font-stretch="normal" font-size="55" text-anchor="start" direction="ltr" writing-mode="lr-tb" unicode-bidi="normal" text-decoration="none" transform="matrix(1 0 0 1 3784.92 3479)">likes</text></g><g><rect x="3937" y="3447" width="28.9998" height="27.9998" fill="#B3B3B3" fill-opacity="1"/></g><g><text fill="#595959" fill-opacity="1" font-family="NanumMyeongjo,NanumMyeongjo_MSFontService,sans-serif" font-style="normal" font-variant="normal" font-weight="400" font-stretch="normal" font-size="55" text-anchor="start" direction="ltr" writing-mode="lr-tb" unicode-bidi="normal" text-decoration="none" transform="matrix(1 0 0 1 3978.33 3479)">purchases</text></g><rect x="2826.5" y="1925.5" width="2284" height="1609" stroke="#D9D9D9" stroke-width="3.4375" stroke-linecap="butt" stroke-linejoin="round" stroke-miterlimit="10" stroke-opacity="1" fill="none"/></g></g></svg>