<svg width="2292" height="1590" xmlns="http://www.w3.org/2000/svg" xmlns:xlink="http://www.w3.org/1999/xlink" xml:space="preserve" overflow="hidden"><defs><clipPath id="clip0"><rect x="2823" y="1920" width="2292" height="1590"/></clipPath><clipPath id="clip1"><rect x="2823" y="1920" width="2292" height="1590"/></clipPath></defs><g clip-path="url(#clip0)" transform="translate(-2823 -1920)"><g clip-path="url(#clip1)"><rect x="2826" y="1925" width="2284" height="1583" fill="#FFFFFF" fill-opacity="1"/><g><path d="M3190.5 3107.6 5060.5 3107.6M3190.5 3074.6 5060.5 3074.6M3190.5 3040.6 5060.5 3040.6M3190.5 3007.6 5060.5 3007.6M3190.5 2941.6 5060.5 2941.6M3190.5 2908.6 5060.5 2908.6M3190.5 2875.59 5060.5 2875.59M3190.5 2841.59 5060.5 2841.59M3190.5 2775.59 5060.5 2775.59M3190.5 2742.59 5060.5 2742.59M3190.5 2709.59 5060.5 2709.59M3190.5 2676.59 5060.5 2676.59M3190.5 2609.59 5060.5 2609.59M3190.5 2576.58 5060.5 2576.58M3190.5 2543.58 5060.5 2543.58M3190.5 2510.58 5060.5 2510.58M3190.5 2443.58 5060.5 2443.58M3190.5 2410.58 5060.5 2410.58M3190.5 2377.58 5060.5 2377.58M3190.5 2344.58 5060.5 2344.58M3190.5 2278.57 5060.5 2278.57M3190.5 2244.57 5060.5 2244.57M3190.5 2211.57 5060.5 2211.57M3190.5 2178.57 5060.5 2178.57M3190.5 2112.57 5060.5 2112.57M3190.5 2078.57 5060.5 2078.57M3190.5 2045.57 5060.5 2045.57M3190.5 2012.57 5060.5 2012.57" stroke="#F2F2F2" stroke-width="3.4375" stroke-linecap="butt" stroke-linejoin="round" stroke-miterlimit="10" stroke-opacity="1" fill="none" fill-rule="nonzero"/></g><g><path d="M3190.5 2974.6 5060.5 2974.6M3190.5 2808.59 5060.5 2808.59M3190.5 2642.59 5060.5 2642.59M3190.5 2477.58 5060.5 2477.58M3190.5 2311.58 5060.5 2311.58M3190.5 2145.57 5060.5 2145.57M3190.5 1979.5 5060.5 1979.5" stroke="#D9D9D9" stroke-width="3.4375" stroke-linecap="butt" stroke-linejoin="round" stroke-miterlimit="10" stroke-opacity="1" fill="none" fill-rule="nonzero"/></g><g><path d="M3190.5 1979.5 3190.5 3140.5M3502.61 1979.5 3502.61 3140.5M3813.63 1979.5 3813.63 3140.5M4125.64 1979.5 4125.64 3140.5M4436.65 1979.5 4436.65 3140.5M4748.66 1979.5 4748.66 3140.5M5060.5 1979.5 5060.5 3140.5" stroke="#D9D9D9" stroke-width="3.4375" stroke-linecap="butt" stroke-linejoin="round" stroke-miterlimit="10" stroke-opacity="1" fill="none" fill-rule="nonzero"/></g><g><path d="M3267.11 3055.1 3337.11 3055.1 3337.11 3140 3267.11 3140ZM3579.12 2599.09 3649.12 2599.09 3649.12 3140 3579.12 3140ZM3890.13 3022.1 3960.13 3022.1 3960.13 3140 3890.13 3140ZM4202.14 2096.07 4272.14 2096.07 4272.14 3140 4202.14 3140Z" fill="#5F5F5F" fill-rule="nonzero" fill-opacity="1"/></g><g><path d="M3356.11 2539.08 3426.11 2539.08 3426.11 3140 3356.11 3140ZM3667.12 2792.09 3737.12 2792.09 3737.12 3140 3667.12 3140ZM3979.13 2513.08 4049.13 2513.08 4049.13 3140 3979.13 3140ZM4291.14 2316.08 4360.14 2316.08 4360.14 3140 4291.14 3140Z" fill="#B3B3B3" fill-rule="nonzero" fill-opacity="1"/></g><g><path d="M3190.5 3140.5 5060.5 3140.5" stroke="#D9D9D9" stroke-width="3.4375" stroke-linecap="butt" stroke-linejoin="round" stroke-miterlimit="10" stroke-opacity="1" fill="none" fill-rule="evenodd"/></g><g><text fill="#595959" fill-opacity="1" font-family="NanumMyeongjo,NanumMyeongjo_MSFontService,sans-serif" font-style="normal" font-variant="normal" font-weight="400" font-stretch="normal" font-size="55" text-anchor="start" direction="ltr" writing-mode="lr-tb" unicode-bidi="normal" text-decoration="none" transform="matrix(1 0 0 1 2979.68 3159)">0.0000</text></g><g><text fill="#595959" fill-opacity="1" font-family="NanumMyeongjo,NanumMyeongjo_MSFontService,sans-serif" font-style="normal" font-variant="normal" font-weight="400" font-stretch="normal" font-size="55" text-anchor="start" direction="ltr" writing-mode="lr-tb" unicode-bidi="normal" text-decoration="none" transform="matrix(1 0 0 1 2979.68 2993)">0.2000</text></g><g><text fill="#595959" fill-opacity="1" font-family="NanumMyeongjo,NanumMyeongjo_MSFontService,sans-serif" font-style="normal" font-variant="normal" font-weight="400" font-stretch="normal" font-size="55" text-anchor="start" direction="ltr" writing-mode="lr-tb" unicode-bidi="normal" text-decoration="none" transform="matrix(1 0 0 1 2979.68 2827)">0.4000</text></g><g><text fill="#595959" fill-opacity="1" font-family="NanumMyeongjo,NanumMyeongjo_MSFontService,sans-serif" font-style="normal" font-variant="normal" font-weight="400" font-stretch="normal" font-size="55" text-anchor="start" direction="ltr" writing-mode="lr-tb" unicode-bidi="normal" text-decoration="none" transform="matrix(1 0 0 1 2979.68 2661)">0.6000</text></g><g><text fill="#595959" fill-opacity="1" font-family="NanumMyeongjo,NanumMyeongjo_MSFontService,sans-serif" font-style="normal" font-variant="normal" font-weight="400" font-stretch="normal" font-size="55" text-anchor="start" direction="ltr" writing-mode="lr-tb" unicode-bidi="normal" text-decoration="none" transform="matrix(1 0 0 1 2979.68 2495)">0.8000</text></g><g><text fill="#595959" fill-opacity="1" font-family="NanumMyeongjo,NanumMyeongjo_MSFontService,sans-serif" font-style="normal" font-variant="normal" font-weight="400" font-stretch="normal" font-size="55" text-anchor="start" direction="ltr" writing-mode="lr-tb" unicode-bidi="normal" text-decoration="none" transform="matrix(1 0 0 1 2979.68 2330)">1.0000</text></g><g><text fill="#595959" fill-opacity="1" font-family="NanumMyeongjo,NanumMyeongjo_MSFontService,sans-serif" font-style="normal" font-variant="normal" font-weight="400" font-stretch="normal" font-size="55" text-anchor="start" direction="ltr" writing-mode="lr-tb" unicode-bidi="normal" text-decoration="none" transform="matrix(1 0 0 1 2979.68 2164)">1.2000</text></g><g><text fill="#595959" fill-opacity="1" font-family="NanumMyeongjo,NanumMyeongjo_MSFontService,sans-serif" font-style="normal" font-variant="normal" font-weight="400" font-stretch="normal" font-size="55" text-anchor="start" direction="ltr" writing-mode="lr-tb" unicode-bidi="normal" text-decoration="none" transform="matrix(1 0 0 1 2979.68 1998)">1.4000</text></g><g><text fill="#595959" fill-opacity="1" font-family="NanumMyeongjo,NanumMyeongjo_MSFontService,sans-serif" font-style="normal" font-variant="normal" font-weight="400" font-stretch="normal" font-size="55" text-anchor="start" direction="ltr" writing-mode="lr-tb" unicode-bidi="normal" text-decoration="none" transform="matrix(1 0 0 1 3285.79 3225)">IBCF</text></g><g><text fill="#595959" fill-opacity="1" font-family="NanumMyeongjo,NanumMyeongjo_MSFontService,sans-serif" font-style="normal" font-variant="normal" font-weight="400" font-stretch="normal" font-size="55" text-anchor="start" direction="ltr" writing-mode="lr-tb" unicode-bidi="normal" text-decoration="none" transform="matrix(1 0 0 1 3591.67 3225)">NMF</text></g><g><text fill="#595959" fill-opacity="1" font-family="NanumMyeongjo,NanumMyeongjo_MSFontService,sans-serif" font-style="normal" font-variant="normal" font-weight="400" font-stretch="normal" font-size="55" text-anchor="start" direction="ltr" writing-mode="lr-tb" unicode-bidi="normal" text-decoration="none" transform="matrix(1 0 0 1 3908.88 3225)">Rev1</text></g><g><text fill="#595959" fill-opacity="1" font-family="NanumMyeongjo,NanumMyeongjo_MSFontService,sans-serif" font-style="normal" font-variant="normal" font-weight="400" font-stretch="normal" font-size="55" text-anchor="start" direction="ltr" writing-mode="lr-tb" unicode-bidi="normal" text-decoration="none" transform="matrix(1 0 0 1 4220.39 3225)">Rev2</text></g><g><text fill="#595959" fill-opacity="1" font-family="NanumMyeongjo,NanumMyeongjo_MSFontService,sans-serif" font-style="normal" font-variant="normal" font-weight="400" font-stretch="normal" font-size="55" text-anchor="start" direction="ltr" writing-mode="lr-tb" unicode-bidi="normal" text-decoration="none" transform="matrix(1 0 0 1 4531.91 3225)">Rev4</text></g><g><text fill="#595959" fill-opacity="1" font-family="NanumMyeongjo,NanumMyeongjo_MSFontService,sans-serif" font-style="normal" font-variant="normal" font-weight="400" font-stretch="normal" font-size="55" text-anchor="start" direction="ltr" writing-mode="lr-tb" unicode-bidi="normal" text-decoration="none" transform="matrix(1 0 0 1 4785.8 3225)">Rev4Ver1</text></g><g><text fill="#595959" fill-opacity="1" font-family="NanumMyeongjo,NanumMyeongjo_MSFontService,sans-serif" font-style="normal" font-variant="normal" font-weight="400" font-stretch="normal" font-size="55" text-anchor="start" direction="ltr" writing-mode="lr-tb" unicode-bidi="normal" text-decoration="none" transform="matrix(6.12323e-17 -1 1 6.12323e-17 2943.68 2718)">RMSE (Hits)</text></g><g><text fill="#595959" fill-opacity="1" font-family="NanumMyeongjo,NanumMyeongjo_MSFontService,sans-serif" font-style="normal" font-variant="normal" font-weight="400" font-stretch="normal" font-size="55" text-anchor="start" direction="ltr" writing-mode="lr-tb" unicode-bidi="normal" text-decoration="none" transform="matrix(1 0 0 1 4041.12 3311)">models</text></g><g><rect x="3744" y="3422" width="27.9998" height="27.9998" fill="#5F5F5F" fill-opacity="1"/></g><g><text fill="#595959" fill-opacity="1" font-family="NanumMyeongjo,NanumMyeongjo_MSFontService,sans-serif" font-style="normal" font-variant="normal" font-weight="400" font-stretch="normal" font-size="55" text-anchor="start" direction="ltr" writing-mode="lr-tb" unicode-bidi="normal" text-decoration="none" transform="matrix(1 0 0 1 3784.92 3454)">likes</text></g><g><rect x="3937" y="3422" width="28.9998" height="27.9998" fill="#B3B3B3" fill-opacity="1"/></g><g><text fill="#595959" fill-opacity="1" font-family="NanumMyeongjo,NanumMyeongjo_MSFontService,sans-serif" font-style="normal" font-variant="normal" font-weight="400" font-stretch="normal" font-size="55" text-anchor="start" direction="ltr" writing-mode="lr-tb" unicode-bidi="normal" text-decoration="none" transform="matrix(1 0 0 1 3978.33 3454)">purchases</text></g><rect x="2826.5" y="1925.5" width="2284" height="1583" stroke="#D9D9D9" stroke-width="3.4375" stroke-linecap="butt" stroke-linejoin="round" stroke-miterlimit="10" stroke-opacity="1" fill="none"/></g></g></svg>