<svg width="2292" height="1591" xmlns="http://www.w3.org/2000/svg" xmlns:xlink="http://www.w3.org/1999/xlink" xml:space="preserve" overflow="hidden"><defs><clipPath id="clip0"><rect x="2823" y="210" width="2292" height="1591"/></clipPath><clipPath id="clip1"><rect x="2823" y="210" width="2292" height="1591"/></clipPath></defs><g clip-path="url(#clip0)" transform="translate(-2823 -210)"><g clip-path="url(#clip1)"><rect x="2826" y="214" width="2284" height="1583" fill="#FFFFFF" fill-opacity="1"/><g><path d="M3190.5 1390.55 5060.5 1390.55M3190.5 1351.54 5060.5 1351.54M3190.5 1313.54 5060.5 1313.54M3190.5 1274.54 5060.5 1274.54M3190.5 1197.54 5060.5 1197.54M3190.5 1158.54 5060.5 1158.54M3190.5 1119.54 5060.5 1119.54M3190.5 1081.54 5060.5 1081.54M3190.5 1003.53 5060.5 1003.53M3190.5 964.532 5060.5 964.532M3190.5 926.531 5060.5 926.531M3190.5 887.529 5060.5 887.529M3190.5 810.527 5060.5 810.527M3190.5 771.526 5060.5 771.526M3190.5 732.524 5060.5 732.524M3190.5 694.523 5060.5 694.523M3190.5 616.52 5060.5 616.52M3190.5 578.519 5060.5 578.519M3190.5 539.518 5060.5 539.518M3190.5 500.517 5060.5 500.517M3190.5 423.514 5060.5 423.514M3190.5 384.513 5060.5 384.513M3190.5 345.512 5060.5 345.512M3190.5 307.51 5060.5 307.51" stroke="#F2F2F2" stroke-width="3.4375" stroke-linecap="butt" stroke-linejoin="round" stroke-miterlimit="10" stroke-opacity="1" fill="none" fill-rule="nonzero"/></g><g><path d="M3190.5 1235.54 5060.5 1235.54M3190.5 1042.53 5060.5 1042.53M3190.5 848.528 5060.5 848.528M3190.5 655.522 5060.5 655.522M3190.5 461.515 5060.5 461.515M3190.5 268.5 5060.5 268.5" stroke="#D9D9D9" stroke-width="3.4375" stroke-linecap="butt" stroke-linejoin="round" stroke-miterlimit="10" stroke-opacity="1" fill="none" fill-rule="nonzero"/></g><g><path d="M3190.5 268.5 3190.5 1429.5M3502.61 268.5 3502.61 1429.5M3813.63 268.5 3813.63 1429.5M4125.64 268.5 4125.64 1429.5M4436.65 268.5 4436.65 1429.5M4748.66 268.5 4748.66 1429.5M5060.5 268.5 5060.5 1429.5" stroke="#D9D9D9" stroke-width="3.4375" stroke-linecap="butt" stroke-linejoin="round" stroke-miterlimit="10" stroke-opacity="1" fill="none" fill-rule="nonzero"/></g><g><path d="M3267.11 992.033 3337.11 992.033 3337.11 1429 3267.11 1429ZM3579.12 784.026 3649.12 784.026 3649.12 1429 3579.12 1429ZM3890.13 654.021 3960.13 654.021 3960.13 1429 3890.13 1429ZM4202.14 429.014 4272.14 429.014 4272.14 1429 4202.14 1429ZM4513.15 1284.04 4583.15 1284.04 4583.15 1429 4513.15 1429ZM4825.16 1242.04 4895.16 1242.04 4895.16 1429 4825.16 1429Z" fill="#5F5F5F" fill-rule="nonzero" fill-opacity="1"/></g><g><path d="M3356.11 352.012 3426.11 352.012 3426.11 1429 3356.11 1429ZM3667.12 722.024 3737.12 722.024 3737.12 1429 3667.12 1429ZM3979.13 666.022 4049.13 666.022 4049.13 1429 3979.13 1429ZM4291.14 467.015 4360.14 467.015 4360.14 1429 4291.14 1429ZM4602.15 1287.04 4672.15 1287.04 4672.15 1429 4602.15 1429ZM4914.16 1131.04 4983.16 1131.04 4983.16 1429 4914.16 1429Z" fill="#B3B3B3" fill-rule="nonzero" fill-opacity="1"/></g><g><path d="M3190.5 1429.5 5060.5 1429.5" stroke="#D9D9D9" stroke-width="3.4375" stroke-linecap="butt" stroke-linejoin="round" stroke-miterlimit="10" stroke-opacity="1" fill="none" fill-rule="evenodd"/></g><g><text fill="#595959" fill-opacity="1" font-family="NanumMyeongjo,NanumMyeongjo_MSFontService,sans-serif" font-style="normal" font-variant="normal" font-weight="400" font-stretch="normal" font-size="55" text-anchor="start" direction="ltr" writing-mode="lr-tb" unicode-bidi="normal" text-decoration="none" transform="matrix(1 0 0 1 2979.68 1448)">0.0000</text></g><g><text fill="#595959" fill-opacity="1" font-family="NanumMyeongjo,NanumMyeongjo_MSFontService,sans-serif" font-style="normal" font-variant="normal" font-weight="400" font-stretch="normal" font-size="55" text-anchor="start" direction="ltr" writing-mode="lr-tb" unicode-bidi="normal" text-decoration="none" transform="matrix(1 0 0 1 2979.68 1254)">0.2000</text></g><g><text fill="#595959" fill-opacity="1" font-family="NanumMyeongjo,NanumMyeongjo_MSFontService,sans-serif" font-style="normal" font-variant="normal" font-weight="400" font-stretch="normal" font-size="55" text-anchor="start" direction="ltr" writing-mode="lr-tb" unicode-bidi="normal" text-decoration="none" transform="matrix(1 0 0 1 2979.68 1061)">0.4000</text></g><g><text fill="#595959" fill-opacity="1" font-family="NanumMyeongjo,NanumMyeongjo_MSFontService,sans-serif" font-style="normal" font-variant="normal" font-weight="400" font-stretch="normal" font-size="55" text-anchor="start" direction="ltr" writing-mode="lr-tb" unicode-bidi="normal" text-decoration="none" transform="matrix(1 0 0 1 2979.68 867)">0.6000</text></g><g><text fill="#595959" fill-opacity="1" font-family="NanumMyeongjo,NanumMyeongjo_MSFontService,sans-serif" font-style="normal" font-variant="normal" font-weight="400" font-stretch="normal" font-size="55" text-anchor="start" direction="ltr" writing-mode="lr-tb" unicode-bidi="normal" text-decoration="none" transform="matrix(1 0 0 1 2979.68 674)">0.8000</text></g><g><text fill="#595959" fill-opacity="1" font-family="NanumMyeongjo,NanumMyeongjo_MSFontService,sans-serif" font-style="normal" font-variant="normal" font-weight="400" font-stretch="normal" font-size="55" text-anchor="start" direction="ltr" writing-mode="lr-tb" unicode-bidi="normal" text-decoration="none" transform="matrix(1 0 0 1 2979.68 480)">1.0000</text></g><g><text fill="#595959" fill-opacity="1" font-family="NanumMyeongjo,NanumMyeongjo_MSFontService,sans-serif" font-style="normal" font-variant="normal" font-weight="400" font-stretch="normal" font-size="55" text-anchor="start" direction="ltr" writing-mode="lr-tb" unicode-bidi="normal" text-decoration="none" transform="matrix(1 0 0 1 2979.68 287)">1.2000</text></g><g><text fill="#595959" fill-opacity="1" font-family="NanumMyeongjo,NanumMyeongjo_MSFontService,sans-serif" font-style="normal" font-variant="normal" font-weight="400" font-stretch="normal" font-size="55" text-anchor="start" direction="ltr" writing-mode="lr-tb" unicode-bidi="normal" text-decoration="none" transform="matrix(1 0 0 1 3285.79 1514)">IBCF</text></g><g><text fill="#595959" fill-opacity="1" font-family="NanumMyeongjo,NanumMyeongjo_MSFontService,sans-serif" font-style="normal" font-variant="normal" font-weight="400" font-stretch="normal" font-size="55" text-anchor="start" direction="ltr" writing-mode="lr-tb" unicode-bidi="normal" text-decoration="none" transform="matrix(1 0 0 1 3591.67 1514)">NMF</text></g><g><text fill="#595959" fill-opacity="1" font-family="NanumMyeongjo,NanumMyeongjo_MSFontService,sans-serif" font-style="normal" font-variant="normal" font-weight="400" font-stretch="normal" font-size="55" text-anchor="start" direction="ltr" writing-mode="lr-tb" unicode-bidi="normal" text-decoration="none" transform="matrix(1 0 0 1 3908.88 1514)">Rev1</text></g><g><text fill="#595959" fill-opacity="1" font-family="NanumMyeongjo,NanumMyeongjo_MSFontService,sans-serif" font-style="normal" font-variant="normal" font-weight="400" font-stretch="normal" font-size="55" text-anchor="start" direction="ltr" writing-mode="lr-tb" unicode-bidi="normal" text-decoration="none" transform="matrix(1 0 0 1 4220.39 1514)">Rev2</text></g><g><text fill="#595959" fill-opacity="1" font-family="NanumMyeongjo,NanumMyeongjo_MSFontService,sans-serif" font-style="normal" font-variant="normal" font-weight="400" font-stretch="normal" font-size="55" text-anchor="start" direction="ltr" writing-mode="lr-tb" unicode-bidi="normal" text-decoration="none" transform="matrix(1 0 0 1 4531.91 1514)">Rev4</text></g><g><text fill="#595959" fill-opacity="1" font-family="NanumMyeongjo,NanumMyeongjo_MSFontService,sans-serif" font-style="normal" font-variant="normal" font-weight="400" font-stretch="normal" font-size="55" text-anchor="start" direction="ltr" writing-mode="lr-tb" unicode-bidi="normal" text-decoration="none" transform="matrix(1 0 0 1 4785.8 1514)">Rev4Ver1</text></g><g><text fill="#595959" fill-opacity="1" font-family="NanumMyeongjo,NanumMyeongjo_MSFontService,sans-serif" font-style="normal" font-variant="normal" font-weight="400" font-stretch="normal" font-size="55" text-anchor="start" direction="ltr" writing-mode="lr-tb" unicode-bidi="normal" text-decoration="none" transform="matrix(6.12323e-17 -1 1 6.12323e-17 2943.68 991)">RMSE (All)</text></g><g><text fill="#595959" fill-opacity="1" font-family="NanumMyeongjo,NanumMyeongjo_MSFontService,sans-serif" font-style="normal" font-variant="normal" font-weight="400" font-stretch="normal" font-size="55" text-anchor="start" direction="ltr" writing-mode="lr-tb" unicode-bidi="normal" text-decoration="none" transform="matrix(1 0 0 1 4041.12 1600)">models</text></g><g><rect x="3744" y="1710" width="27.9998" height="28.9999" fill="#5F5F5F" fill-opacity="1"/></g><g><text fill="#595959" fill-opacity="1" font-family="NanumMyeongjo,NanumMyeongjo_MSFontService,sans-serif" font-style="normal" font-variant="normal" font-weight="400" font-stretch="normal" font-size="55" text-anchor="start" direction="ltr" writing-mode="lr-tb" unicode-bidi="normal" text-decoration="none" transform="matrix(1 0 0 1 3784.92 1743)">likes</text></g><g><rect x="3937" y="1710" width="28.9998" height="28.9999" fill="#B3B3B3" fill-opacity="1"/></g><g><text fill="#595959" fill-opacity="1" font-family="NanumMyeongjo,NanumMyeongjo_MSFontService,sans-serif" font-style="normal" font-variant="normal" font-weight="400" font-stretch="normal" font-size="55" text-anchor="start" direction="ltr" writing-mode="lr-tb" unicode-bidi="normal" text-decoration="none" transform="matrix(1 0 0 1 3978.33 1743)">purchases</text></g><rect x="2826.5" y="214.5" width="2284" height="1583" stroke="#D9D9D9" stroke-width="3.4375" stroke-linecap="butt" stroke-linejoin="round" stroke-miterlimit="10" stroke-opacity="1" fill="none"/></g></g></svg>