<svg width="2292" height="1591" xmlns="http://www.w3.org/2000/svg" xmlns:xlink="http://www.w3.org/1999/xlink" xml:space="preserve" overflow="hidden"><defs><clipPath id="clip0"><rect x="2823" y="3634" width="2292" height="1591"/></clipPath><clipPath id="clip1"><rect x="2823" y="3634" width="2292" height="1591"/></clipPath></defs><g clip-path="url(#clip0)" transform="translate(-2823 -3634)"><g clip-path="url(#clip1)"><rect x="2826" y="3636" width="2284" height="1584" fill="#FFFFFF" fill-opacity="1"/><g><path d="M3190.5 4818.66 5060.5 4818.66M3190.5 4785.66 5060.5 4785.66M3190.5 4751.66 5060.5 4751.66M3190.5 4718.65 5060.5 4718.65M3190.5 4652.65 5060.5 4652.65M3190.5 4619.65 5060.5 4619.65M3190.5 4586.65 5060.5 4586.65M3190.5 4552.65 5060.5 4552.65M3190.5 4486.65 5060.5 4486.65M3190.5 4453.65 5060.5 4453.65M3190.5 4420.65 5060.5 4420.65M3190.5 4387.64 5060.5 4387.64M3190.5 4320.64 5060.5 4320.64M3190.5 4287.64 5060.5 4287.64M3190.5 4254.64 5060.5 4254.64M3190.5 4221.64 5060.5 4221.64M3190.5 4154.64 5060.5 4154.64M3190.5 4121.64 5060.5 4121.64M3190.5 4088.63 5060.5 4088.63M3190.5 4055.63 5060.5 4055.63M3190.5 3989.63 5060.5 3989.63M3190.5 3955.63 5060.5 3955.63M3190.5 3922.63 5060.5 3922.63M3190.5 3889.63 5060.5 3889.63M3190.5 3823.63 5060.5 3823.63M3190.5 3790.62 5060.5 3790.62M3190.5 3756.62 5060.5 3756.62M3190.5 3723.62 5060.5 3723.62" stroke="#F2F2F2" stroke-width="3.4375" stroke-linecap="butt" stroke-linejoin="round" stroke-miterlimit="10" stroke-opacity="1" fill="none" fill-rule="nonzero"/></g><g><path d="M3190.5 4685.65 5060.5 4685.65M3190.5 4519.65 5060.5 4519.65M3190.5 4353.64 5060.5 4353.64M3190.5 4188.64 5060.5 4188.64M3190.5 4022.63 5060.5 4022.63M3190.5 3856.63 5060.5 3856.63M3190.5 3690.5 5060.5 3690.5" stroke="#D9D9D9" stroke-width="3.4375" stroke-linecap="butt" stroke-linejoin="round" stroke-miterlimit="10" stroke-opacity="1" fill="none" fill-rule="nonzero"/></g><g><path d="M3190.5 3690.5 3190.5 4851.5M3502.61 3690.5 3502.61 4851.5M3813.63 3690.5 3813.63 4851.5M4125.64 3690.5 4125.64 4851.5M4436.65 3690.5 4436.65 4851.5M4748.66 3690.5 4748.66 4851.5M5060.5 3690.5 5060.5 4851.5" stroke="#D9D9D9" stroke-width="3.4375" stroke-linecap="butt" stroke-linejoin="round" stroke-miterlimit="10" stroke-opacity="1" fill="none" fill-rule="nonzero"/></g><g><path d="M3267.11 3814.12 3337.11 3814.12 3337.11 4852 3267.11 4852ZM3579.12 3785.12 3649.12 3785.12 3649.12 4852 3579.12 4852ZM3890.13 4019.13 3960.13 4019.13 3960.13 4852 3890.13 4852ZM4202.14 3966.13 4272.14 3966.13 4272.14 4852 4202.14 4852ZM4513.15 3886.13 4583.15 3886.13 4583.15 4852 4513.15 4852ZM4825.16 3865.13 4895.16 3865.13 4895.16 4852 4825.16 4852Z" fill="#5F5F5F" fill-rule="nonzero" fill-opacity="1"/></g><g><path d="M3356.11 4484.15 3426.11 4484.15 3426.11 4852 3356.11 4852ZM3667.12 4637.15 3737.12 4637.15 3737.12 4852 3667.12 4852ZM3979.13 4321.14 4049.13 4321.14 4049.13 4852 3979.13 4852ZM4291.14 4331.14 4360.14 4331.14 4360.14 4852 4291.14 4852ZM4602.15 4434.15 4672.15 4434.15 4672.15 4852 4602.15 4852ZM4914.16 4472.15 4983.16 4472.15 4983.16 4852 4914.16 4852Z" fill="#B3B3B3" fill-rule="nonzero" fill-opacity="1"/></g><g><path d="M3190.5 4851.5 5060.5 4851.5" stroke="#D9D9D9" stroke-width="3.4375" stroke-linecap="butt" stroke-linejoin="round" stroke-miterlimit="10" stroke-opacity="1" fill="none" fill-rule="evenodd"/></g><g><text fill="#595959" fill-opacity="1" font-family="NanumMyeongjo,NanumMyeongjo_MSFontService,sans-serif" font-style="normal" font-variant="normal" font-weight="400" font-stretch="normal" font-size="55" text-anchor="start" direction="ltr" writing-mode="lr-tb" unicode-bidi="normal" text-decoration="none" transform="matrix(1 0 0 1 2979.68 4870)">0.0000</text></g><g><text fill="#595959" fill-opacity="1" font-family="NanumMyeongjo,NanumMyeongjo_MSFontService,sans-serif" font-style="normal" font-variant="normal" font-weight="400" font-stretch="normal" font-size="55" text-anchor="start" direction="ltr" writing-mode="lr-tb" unicode-bidi="normal" text-decoration="none" transform="matrix(1 0 0 1 2979.68 4704)">0.0200</text></g><g><text fill="#595959" fill-opacity="1" font-family="NanumMyeongjo,NanumMyeongjo_MSFontService,sans-serif" font-style="normal" font-variant="normal" font-weight="400" font-stretch="normal" font-size="55" text-anchor="start" direction="ltr" writing-mode="lr-tb" unicode-bidi="normal" text-decoration="none" transform="matrix(1 0 0 1 2979.68 4538)">0.0400</text></g><g><text fill="#595959" fill-opacity="1" font-family="NanumMyeongjo,NanumMyeongjo_MSFontService,sans-serif" font-style="normal" font-variant="normal" font-weight="400" font-stretch="normal" font-size="55" text-anchor="start" direction="ltr" writing-mode="lr-tb" unicode-bidi="normal" text-decoration="none" transform="matrix(1 0 0 1 2979.68 4372)">0.0600</text></g><g><text fill="#595959" fill-opacity="1" font-family="NanumMyeongjo,NanumMyeongjo_MSFontService,sans-serif" font-style="normal" font-variant="normal" font-weight="400" font-stretch="normal" font-size="55" text-anchor="start" direction="ltr" writing-mode="lr-tb" unicode-bidi="normal" text-decoration="none" transform="matrix(1 0 0 1 2979.68 4206)">0.0800</text></g><g><text fill="#595959" fill-opacity="1" font-family="NanumMyeongjo,NanumMyeongjo_MSFontService,sans-serif" font-style="normal" font-variant="normal" font-weight="400" font-stretch="normal" font-size="55" text-anchor="start" direction="ltr" writing-mode="lr-tb" unicode-bidi="normal" text-decoration="none" transform="matrix(1 0 0 1 2979.68 4041)">0.1000</text></g><g><text fill="#595959" fill-opacity="1" font-family="NanumMyeongjo,NanumMyeongjo_MSFontService,sans-serif" font-style="normal" font-variant="normal" font-weight="400" font-stretch="normal" font-size="55" text-anchor="start" direction="ltr" writing-mode="lr-tb" unicode-bidi="normal" text-decoration="none" transform="matrix(1 0 0 1 2979.68 3875)">0.1200</text></g><g><text fill="#595959" fill-opacity="1" font-family="NanumMyeongjo,NanumMyeongjo_MSFontService,sans-serif" font-style="normal" font-variant="normal" font-weight="400" font-stretch="normal" font-size="55" text-anchor="start" direction="ltr" writing-mode="lr-tb" unicode-bidi="normal" text-decoration="none" transform="matrix(1 0 0 1 2979.68 3709)">0.1400</text></g><g><text fill="#595959" fill-opacity="1" font-family="NanumMyeongjo,NanumMyeongjo_MSFontService,sans-serif" font-style="normal" font-variant="normal" font-weight="400" font-stretch="normal" font-size="55" text-anchor="start" direction="ltr" writing-mode="lr-tb" unicode-bidi="normal" text-decoration="none" transform="matrix(1 0 0 1 3285.79 4936)">IBCF</text></g><g><text fill="#595959" fill-opacity="1" font-family="NanumMyeongjo,NanumMyeongjo_MSFontService,sans-serif" font-style="normal" font-variant="normal" font-weight="400" font-stretch="normal" font-size="55" text-anchor="start" direction="ltr" writing-mode="lr-tb" unicode-bidi="normal" text-decoration="none" transform="matrix(1 0 0 1 3591.67 4936)">NMF</text></g><g><text fill="#595959" fill-opacity="1" font-family="NanumMyeongjo,NanumMyeongjo_MSFontService,sans-serif" font-style="normal" font-variant="normal" font-weight="400" font-stretch="normal" font-size="55" text-anchor="start" direction="ltr" writing-mode="lr-tb" unicode-bidi="normal" text-decoration="none" transform="matrix(1 0 0 1 3908.88 4936)">Rev1</text></g><g><text fill="#595959" fill-opacity="1" font-family="NanumMyeongjo,NanumMyeongjo_MSFontService,sans-serif" font-style="normal" font-variant="normal" font-weight="400" font-stretch="normal" font-size="55" text-anchor="start" direction="ltr" writing-mode="lr-tb" unicode-bidi="normal" text-decoration="none" transform="matrix(1 0 0 1 4220.39 4936)">Rev2</text></g><g><text fill="#595959" fill-opacity="1" font-family="NanumMyeongjo,NanumMyeongjo_MSFontService,sans-serif" font-style="normal" font-variant="normal" font-weight="400" font-stretch="normal" font-size="55" text-anchor="start" direction="ltr" writing-mode="lr-tb" unicode-bidi="normal" text-decoration="none" transform="matrix(1 0 0 1 4531.91 4936)">Rev4</text></g><g><text fill="#595959" fill-opacity="1" font-family="NanumMyeongjo,NanumMyeongjo_MSFontService,sans-serif" font-style="normal" font-variant="normal" font-weight="400" font-stretch="normal" font-size="55" text-anchor="start" direction="ltr" writing-mode="lr-tb" unicode-bidi="normal" text-decoration="none" transform="matrix(1 0 0 1 4785.8 4936)">Rev4Ver1</text></g><g><text fill="#595959" fill-opacity="1" font-family="NanumMyeongjo,NanumMyeongjo_MSFontService,sans-serif" font-style="normal" font-variant="normal" font-weight="400" font-stretch="normal" font-size="55" text-anchor="start" direction="ltr" writing-mode="lr-tb" unicode-bidi="normal" text-decoration="none" transform="matrix(6.12323e-17 -1 1 6.12323e-17 2943.68 4428)">TagsFreqDist</text></g><g><text fill="#595959" fill-opacity="1" font-family="NanumMyeongjo,NanumMyeongjo_MSFontService,sans-serif" font-style="normal" font-variant="normal" font-weight="400" font-stretch="normal" font-size="55" text-anchor="start" direction="ltr" writing-mode="lr-tb" unicode-bidi="normal" text-decoration="none" transform="matrix(1 0 0 1 4041.12 5022)">models</text></g><g><rect x="3744" y="5133" width="27.9998" height="28" fill="#5F5F5F" fill-opacity="1"/></g><g><text fill="#595959" fill-opacity="1" font-family="NanumMyeongjo,NanumMyeongjo_MSFontService,sans-serif" font-style="normal" font-variant="normal" font-weight="400" font-stretch="normal" font-size="55" text-anchor="start" direction="ltr" writing-mode="lr-tb" unicode-bidi="normal" text-decoration="none" transform="matrix(1 0 0 1 3784.92 5165)">likes</text></g><g><rect x="3937" y="5133" width="28.9998" height="28" fill="#B3B3B3" fill-opacity="1"/></g><g><text fill="#595959" fill-opacity="1" font-family="NanumMyeongjo,NanumMyeongjo_MSFontService,sans-serif" font-style="normal" font-variant="normal" font-weight="400" font-stretch="normal" font-size="55" text-anchor="start" direction="ltr" writing-mode="lr-tb" unicode-bidi="normal" text-decoration="none" transform="matrix(1 0 0 1 3978.33 5165)">purchases</text></g><rect x="2826.5" y="3636.5" width="2284" height="1584" stroke="#D9D9D9" stroke-width="3.4375" stroke-linecap="butt" stroke-linejoin="round" stroke-miterlimit="10" stroke-opacity="1" fill="none"/></g></g></svg>