<svg width="2429" height="1618" xmlns="http://www.w3.org/2000/svg" xmlns:xlink="http://www.w3.org/1999/xlink" xml:space="preserve" overflow="hidden"><defs><clipPath id="clip0"><rect x="5591" y="5344" width="2429" height="1618"/></clipPath><clipPath id="clip1"><rect x="5591" y="5344" width="2429" height="1618"/></clipPath></defs><g clip-path="url(#clip0)" transform="translate(-5591 -5344)"><g clip-path="url(#clip1)"><rect x="5597" y="5347" width="2419" height="1610" fill="#FFFFFF" fill-opacity="1"/><g><path d="M5901.5 6562.72 7965.5 6562.72M5901.5 6519.71 7965.5 6519.71M5901.5 6476.71 7965.5 6476.71M5901.5 6434.71 7965.5 6434.71M5901.5 6348.71 7965.5 6348.71M5901.5 6306.71 7965.5 6306.71M5901.5 6263.71 7965.5 6263.71M5901.5 6220.7 7965.5 6220.7M5901.5 6135.7 7965.5 6135.7M5901.5 6092.7 7965.5 6092.7M5901.5 6049.7 7965.5 6049.7M5901.5 6007.7 7965.5 6007.7M5901.5 5921.69 7965.5 5921.69M5901.5 5879.69 7965.5 5879.69M5901.5 5836.69 7965.5 5836.69M5901.5 5793.69 7965.5 5793.69M5901.5 5708.69 7965.5 5708.69M5901.5 5665.69 7965.5 5665.69M5901.5 5622.68 7965.5 5622.68M5901.5 5580.68 7965.5 5580.68" stroke="#F2F2F2" stroke-width="3.4375" stroke-linecap="butt" stroke-linejoin="round" stroke-miterlimit="10" stroke-opacity="1" fill="none" fill-rule="nonzero"/></g><g><path d="M5901.5 6391.71 7965.5 6391.71M5901.5 6177.7 7965.5 6177.7M5901.5 5964.7 7965.5 5964.7M5901.5 5750.69 7965.5 5750.69M5901.5 5537.5 7965.5 5537.5" stroke="#D9D9D9" stroke-width="3.4375" stroke-linecap="butt" stroke-linejoin="round" stroke-miterlimit="10" stroke-opacity="1" fill="none" fill-rule="nonzero"/></g><g><path d="M5901.5 5537.5 5901.5 6605.5M6022.7 5537.5 6022.7 6605.5M6144.7 5537.5 6144.7 6605.5M6265.71 5537.5 6265.71 6605.5M6386.71 5537.5 6386.71 6605.5M6508.71 5537.5 6508.71 6605.5M6629.72 5537.5 6629.72 6605.5M6751.72 5537.5 6751.72 6605.5M6872.73 5537.5 6872.73 6605.5M6994.73 5537.5 6994.73 6605.5M7115.73 5537.5 7115.73 6605.5M7236.74 5537.5 7236.74 6605.5M7358.74 5537.5 7358.74 6605.5M7479.75 5537.5 7479.75 6605.5M7601.75 5537.5 7601.75 6605.5M7722.75 5537.5 7722.75 6605.5M7844.76 5537.5 7844.76 6605.5M7965.5 5537.5 7965.5 6605.5" stroke="#D9D9D9" stroke-width="3.4375" stroke-linecap="butt" stroke-linejoin="round" stroke-miterlimit="10" stroke-opacity="1" fill="none" fill-rule="nonzero"/></g><g><path d="M5901.5 6605.5 7965.5 6605.5" stroke="#D9D9D9" stroke-width="3.4375" stroke-linecap="butt" stroke-linejoin="round" stroke-miterlimit="10" stroke-opacity="1" fill="none" fill-rule="evenodd"/></g><g><path d="M5962 6428 6083.2 6379.21 6205.2 6335.21 6326.21 6296.21 6448.21 6267.21 6569.22 6235.2 6691.22 6199.2 6812.22 6192.2 6933.23 6155.2 7055.23 6104.2 7176.24 6011.2 7298.24 5953.2 7419.24 5948.19 7541.25 5946.19 7662.25 5941.19 7783.26 5939.19 7905 5934" stroke="#5F5F5F" stroke-width="10.3125" stroke-linecap="round" stroke-linejoin="round" stroke-miterlimit="10" stroke-opacity="1" fill="none" fill-rule="nonzero"/></g><g><path d="M5977.26 6428.22C5977.26 6436.78 5970.32 6443.72 5961.76 6443.72 5953.2 6443.72 5946.26 6436.78 5946.26 6428.22 5946.26 6419.66 5953.2 6412.72 5961.76 6412.72 5970.32 6412.72 5977.26 6419.66 5977.26 6428.22Z" stroke="#5F5F5F" stroke-width="3.4375" stroke-linecap="butt" stroke-linejoin="round" stroke-miterlimit="10" stroke-opacity="1" fill="#5F5F5F" fill-rule="nonzero" fill-opacity="1"/><path d="M6098.26 6378.22C6098.26 6386.78 6091.32 6393.72 6082.76 6393.72 6074.2 6393.72 6067.26 6386.78 6067.26 6378.22 6067.26 6369.66 6074.2 6362.72 6082.76 6362.72 6091.32 6362.72 6098.26 6369.66 6098.26 6378.22Z" stroke="#5F5F5F" stroke-width="3.4375" stroke-linecap="butt" stroke-linejoin="round" stroke-miterlimit="10" stroke-opacity="1" fill="#5F5F5F" fill-rule="nonzero" fill-opacity="1"/><path d="M6220.26 6335.22C6220.26 6343.78 6213.32 6350.72 6204.76 6350.72 6196.2 6350.72 6189.26 6343.78 6189.26 6335.22 6189.26 6326.66 6196.2 6319.72 6204.76 6319.72 6213.32 6319.72 6220.26 6326.66 6220.26 6335.22Z" stroke="#5F5F5F" stroke-width="3.4375" stroke-linecap="butt" stroke-linejoin="round" stroke-miterlimit="10" stroke-opacity="1" fill="#5F5F5F" fill-rule="nonzero" fill-opacity="1"/><path d="M6341.26 6295.22C6341.26 6303.78 6334.32 6310.72 6325.76 6310.72 6317.2 6310.72 6310.26 6303.78 6310.26 6295.22 6310.26 6286.66 6317.2 6279.72 6325.76 6279.72 6334.32 6279.72 6341.26 6286.66 6341.26 6295.22Z" stroke="#5F5F5F" stroke-width="3.4375" stroke-linecap="butt" stroke-linejoin="round" stroke-miterlimit="10" stroke-opacity="1" fill="#5F5F5F" fill-rule="nonzero" fill-opacity="1"/><path d="M6462.26 6266.22C6462.26 6274.78 6455.32 6281.72 6446.76 6281.72 6438.2 6281.72 6431.26 6274.78 6431.26 6266.22 6431.26 6257.66 6438.2 6250.72 6446.76 6250.72 6455.32 6250.72 6462.26 6257.66 6462.26 6266.22Z" stroke="#5F5F5F" stroke-width="3.4375" stroke-linecap="butt" stroke-linejoin="round" stroke-miterlimit="10" stroke-opacity="1" fill="#5F5F5F" fill-rule="nonzero" fill-opacity="1"/><path d="M6584.26 6235.22C6584.26 6243.78 6577.32 6250.72 6568.76 6250.72 6560.2 6250.72 6553.26 6243.78 6553.26 6235.22 6553.26 6226.66 6560.2 6219.72 6568.76 6219.72 6577.32 6219.72 6584.26 6226.66 6584.26 6235.22Z" stroke="#5F5F5F" stroke-width="3.4375" stroke-linecap="butt" stroke-linejoin="round" stroke-miterlimit="10" stroke-opacity="1" fill="#5F5F5F" fill-rule="nonzero" fill-opacity="1"/><path d="M6705.26 6199.22C6705.26 6207.78 6698.32 6214.72 6689.76 6214.72 6681.2 6214.72 6674.26 6207.78 6674.26 6199.22 6674.26 6190.66 6681.2 6183.72 6689.76 6183.72 6698.32 6183.72 6705.26 6190.66 6705.26 6199.22Z" stroke="#5F5F5F" stroke-width="3.4375" stroke-linecap="butt" stroke-linejoin="round" stroke-miterlimit="10" stroke-opacity="1" fill="#5F5F5F" fill-rule="nonzero" fill-opacity="1"/><path d="M6827.26 6192.22C6827.26 6200.78 6820.32 6207.72 6811.76 6207.72 6803.2 6207.72 6796.26 6200.78 6796.26 6192.22 6796.26 6183.66 6803.2 6176.72 6811.76 6176.72 6820.32 6176.72 6827.26 6183.66 6827.26 6192.22Z" stroke="#5F5F5F" stroke-width="3.4375" stroke-linecap="butt" stroke-linejoin="round" stroke-miterlimit="10" stroke-opacity="1" fill="#5F5F5F" fill-rule="nonzero" fill-opacity="1"/><path d="M6948.26 6155.22C6948.26 6163.78 6941.32 6170.72 6932.76 6170.72 6924.2 6170.72 6917.26 6163.78 6917.26 6155.22 6917.26 6146.66 6924.2 6139.72 6932.76 6139.72 6941.32 6139.72 6948.26 6146.66 6948.26 6155.22Z" stroke="#5F5F5F" stroke-width="3.4375" stroke-linecap="butt" stroke-linejoin="round" stroke-miterlimit="10" stroke-opacity="1" fill="#5F5F5F" fill-rule="nonzero" fill-opacity="1"/><path d="M7070.26 6104.22C7070.26 6112.78 7063.32 6119.72 7054.76 6119.72 7046.2 6119.72 7039.26 6112.78 7039.26 6104.22 7039.26 6095.66 7046.2 6088.72 7054.76 6088.72 7063.32 6088.72 7070.26 6095.66 7070.26 6104.22Z" stroke="#5F5F5F" stroke-width="3.4375" stroke-linecap="butt" stroke-linejoin="round" stroke-miterlimit="10" stroke-opacity="1" fill="#5F5F5F" fill-rule="nonzero" fill-opacity="1"/><path d="M7191.26 6010.22C7191.26 6018.78 7184.32 6025.72 7175.76 6025.72 7167.2 6025.72 7160.26 6018.78 7160.26 6010.22 7160.26 6001.66 7167.2 5994.72 7175.76 5994.72 7184.32 5994.72 7191.26 6001.66 7191.26 6010.22Z" stroke="#5F5F5F" stroke-width="3.4375" stroke-linecap="butt" stroke-linejoin="round" stroke-miterlimit="10" stroke-opacity="1" fill="#5F5F5F" fill-rule="nonzero" fill-opacity="1"/><path d="M7312.26 5953.22C7312.26 5961.78 7305.32 5968.72 7296.76 5968.72 7288.2 5968.72 7281.26 5961.78 7281.26 5953.22 7281.26 5944.66 7288.2 5937.72 7296.76 5937.72 7305.32 5937.72 7312.26 5944.66 7312.26 5953.22Z" stroke="#5F5F5F" stroke-width="3.4375" stroke-linecap="butt" stroke-linejoin="round" stroke-miterlimit="10" stroke-opacity="1" fill="#5F5F5F" fill-rule="nonzero" fill-opacity="1"/><path d="M7434.26 5948.22C7434.26 5956.78 7427.32 5963.72 7418.76 5963.72 7410.2 5963.72 7403.26 5956.78 7403.26 5948.22 7403.26 5939.66 7410.2 5932.72 7418.76 5932.72 7427.32 5932.72 7434.26 5939.66 7434.26 5948.22Z" stroke="#5F5F5F" stroke-width="3.4375" stroke-linecap="butt" stroke-linejoin="round" stroke-miterlimit="10" stroke-opacity="1" fill="#5F5F5F" fill-rule="nonzero" fill-opacity="1"/><path d="M7555.26 5945.22C7555.26 5953.78 7548.32 5960.72 7539.76 5960.72 7531.2 5960.72 7524.26 5953.78 7524.26 5945.22 7524.26 5936.66 7531.2 5929.72 7539.76 5929.72 7548.32 5929.72 7555.26 5936.66 7555.26 5945.22Z" stroke="#5F5F5F" stroke-width="3.4375" stroke-linecap="butt" stroke-linejoin="round" stroke-miterlimit="10" stroke-opacity="1" fill="#5F5F5F" fill-rule="nonzero" fill-opacity="1"/><path d="M7677.26 5941.22C7677.26 5949.78 7670.32 5956.72 7661.76 5956.72 7653.2 5956.72 7646.26 5949.78 7646.26 5941.22 7646.26 5932.66 7653.2 5925.72 7661.76 5925.72 7670.32 5925.72 7677.26 5932.66 7677.26 5941.22Z" stroke="#5F5F5F" stroke-width="3.4375" stroke-linecap="butt" stroke-linejoin="round" stroke-miterlimit="10" stroke-opacity="1" fill="#5F5F5F" fill-rule="nonzero" fill-opacity="1"/><path d="M7798.26 5938.22C7798.26 5946.78 7791.32 5953.72 7782.76 5953.72 7774.2 5953.72 7767.26 5946.78 7767.26 5938.22 7767.26 5929.66 7774.2 5922.72 7782.76 5922.72 7791.32 5922.72 7798.26 5929.66 7798.26 5938.22Z" stroke="#5F5F5F" stroke-width="3.4375" stroke-linecap="butt" stroke-linejoin="round" stroke-miterlimit="10" stroke-opacity="1" fill="#5F5F5F" fill-rule="nonzero" fill-opacity="1"/><path d="M7920.26 5933.22C7920.26 5941.78 7913.32 5948.72 7904.76 5948.72 7896.2 5948.72 7889.26 5941.78 7889.26 5933.22 7889.26 5924.66 7896.2 5917.72 7904.76 5917.72 7913.32 5917.72 7920.26 5924.66 7920.26 5933.22Z" stroke="#5F5F5F" stroke-width="3.4375" stroke-linecap="butt" stroke-linejoin="round" stroke-miterlimit="10" stroke-opacity="1" fill="#5F5F5F" fill-rule="nonzero" fill-opacity="1"/></g><g><path d="M5962 6066 6083.2 6029.2 6205.2 6017.2 6326.21 6010.2 6448.21 6007.2 6569.22 5999.2 6691.22 5994.2 6812.22 5989.2 6933.23 5986.2 7055.23 5983.2 7176.24 5980.2 7298.24 5971.2 7419.24 5966.2 7541.25 5961.2 7662.25 5957.2 7783.26 5949.19 7905 5944" stroke="#B3B3B3" stroke-width="10.3125" stroke-linecap="round" stroke-linejoin="round" stroke-miterlimit="10" stroke-opacity="1" fill="none" fill-rule="nonzero"/></g><g><path d="M5946.26 6050.72 5977.26 6050.72 5977.26 6081.72 5946.26 6081.72Z" stroke="#B3B3B3" stroke-width="3.4375" stroke-linecap="butt" stroke-linejoin="round" stroke-miterlimit="10" stroke-opacity="1" fill="#B3B3B3" fill-rule="nonzero" fill-opacity="1"/><path d="M6067.26 6013.72 6098.26 6013.72 6098.26 6044.72 6067.26 6044.72Z" stroke="#B3B3B3" stroke-width="3.4375" stroke-linecap="butt" stroke-linejoin="round" stroke-miterlimit="10" stroke-opacity="1" fill="#B3B3B3" fill-rule="nonzero" fill-opacity="1"/><path d="M6189.26 6000.72 6220.26 6000.72 6220.26 6031.72 6189.26 6031.72Z" stroke="#B3B3B3" stroke-width="3.4375" stroke-linecap="butt" stroke-linejoin="round" stroke-miterlimit="10" stroke-opacity="1" fill="#B3B3B3" fill-rule="nonzero" fill-opacity="1"/><path d="M6310.26 5993.72 6341.26 5993.72 6341.26 6024.72 6310.26 6024.72Z" stroke="#B3B3B3" stroke-width="3.4375" stroke-linecap="butt" stroke-linejoin="round" stroke-miterlimit="10" stroke-opacity="1" fill="#B3B3B3" fill-rule="nonzero" fill-opacity="1"/><path d="M6431.26 5991.72 6462.26 5991.72 6462.26 6022.72 6431.26 6022.72Z" stroke="#B3B3B3" stroke-width="3.4375" stroke-linecap="butt" stroke-linejoin="round" stroke-miterlimit="10" stroke-opacity="1" fill="#B3B3B3" fill-rule="nonzero" fill-opacity="1"/><path d="M6553.26 5982.72 6584.26 5982.72 6584.26 6013.72 6553.26 6013.72Z" stroke="#B3B3B3" stroke-width="3.4375" stroke-linecap="butt" stroke-linejoin="round" stroke-miterlimit="10" stroke-opacity="1" fill="#B3B3B3" fill-rule="nonzero" fill-opacity="1"/><path d="M6674.26 5978.72 6705.26 5978.72 6705.26 6009.72 6674.26 6009.72Z" stroke="#B3B3B3" stroke-width="3.4375" stroke-linecap="butt" stroke-linejoin="round" stroke-miterlimit="10" stroke-opacity="1" fill="#B3B3B3" fill-rule="nonzero" fill-opacity="1"/><path d="M6796.26 5973.72 6827.26 5973.72 6827.26 6004.72 6796.26 6004.72Z" stroke="#B3B3B3" stroke-width="3.4375" stroke-linecap="butt" stroke-linejoin="round" stroke-miterlimit="10" stroke-opacity="1" fill="#B3B3B3" fill-rule="nonzero" fill-opacity="1"/><path d="M6917.26 5969.72 6948.26 5969.72 6948.26 6000.72 6917.26 6000.72Z" stroke="#B3B3B3" stroke-width="3.4375" stroke-linecap="butt" stroke-linejoin="round" stroke-miterlimit="10" stroke-opacity="1" fill="#B3B3B3" fill-rule="nonzero" fill-opacity="1"/><path d="M7039.26 5967.72 7070.26 5967.72 7070.26 5998.72 7039.26 5998.72Z" stroke="#B3B3B3" stroke-width="3.4375" stroke-linecap="butt" stroke-linejoin="round" stroke-miterlimit="10" stroke-opacity="1" fill="#B3B3B3" fill-rule="nonzero" fill-opacity="1"/><path d="M7160.26 5963.72 7191.26 5963.72 7191.26 5994.72 7160.26 5994.72Z" stroke="#B3B3B3" stroke-width="3.4375" stroke-linecap="butt" stroke-linejoin="round" stroke-miterlimit="10" stroke-opacity="1" fill="#B3B3B3" fill-rule="nonzero" fill-opacity="1"/><path d="M7281.26 5955.72 7312.26 5955.72 7312.26 5986.72 7281.26 5986.72Z" stroke="#B3B3B3" stroke-width="3.4375" stroke-linecap="butt" stroke-linejoin="round" stroke-miterlimit="10" stroke-opacity="1" fill="#B3B3B3" fill-rule="nonzero" fill-opacity="1"/><path d="M7403.26 5950.72 7434.26 5950.72 7434.26 5981.72 7403.26 5981.72Z" stroke="#B3B3B3" stroke-width="3.4375" stroke-linecap="butt" stroke-linejoin="round" stroke-miterlimit="10" stroke-opacity="1" fill="#B3B3B3" fill-rule="nonzero" fill-opacity="1"/><path d="M7524.26 5945.72 7555.26 5945.72 7555.26 5976.72 7524.26 5976.72Z" stroke="#B3B3B3" stroke-width="3.4375" stroke-linecap="butt" stroke-linejoin="round" stroke-miterlimit="10" stroke-opacity="1" fill="#B3B3B3" fill-rule="nonzero" fill-opacity="1"/><path d="M7646.26 5940.72 7677.26 5940.72 7677.26 5971.72 7646.26 5971.72Z" stroke="#B3B3B3" stroke-width="3.4375" stroke-linecap="butt" stroke-linejoin="round" stroke-miterlimit="10" stroke-opacity="1" fill="#B3B3B3" fill-rule="nonzero" fill-opacity="1"/><path d="M7767.26 5933.72 7798.26 5933.72 7798.26 5964.72 7767.26 5964.72Z" stroke="#B3B3B3" stroke-width="3.4375" stroke-linecap="butt" stroke-linejoin="round" stroke-miterlimit="10" stroke-opacity="1" fill="#B3B3B3" fill-rule="nonzero" fill-opacity="1"/><path d="M7889.26 5928.72 7920.26 5928.72 7920.26 5959.72 7889.26 5959.72Z" stroke="#B3B3B3" stroke-width="3.4375" stroke-linecap="butt" stroke-linejoin="round" stroke-miterlimit="10" stroke-opacity="1" fill="#B3B3B3" fill-rule="nonzero" fill-opacity="1"/></g><g><path d="M5962 6346 6083.2 6204.2 6205.2 6175.2 6326.21 6126.2 6448.21 6103.2 6569.22 6069.2 6691.22 6029.2 6812.22 6009.2 6933.23 5958.2 7055.23 5878.19 7176.24 5765.19 7298.24 5642.19 7419.24 5614.18 7541.25 5608.18 7662.25 5606.18 7783.26 5601.18 7905 5592" stroke="#898989" stroke-width="10.3125" stroke-linecap="round" stroke-linejoin="round" stroke-miterlimit="10" stroke-opacity="1" fill="none" fill-rule="nonzero"/></g><g><path d="M5978.76 6362.22 5945.76 6329.22M5945.76 6362.22 5978.76 6329.22" stroke="#898989" stroke-width="3.4375" stroke-linecap="butt" stroke-linejoin="round" stroke-miterlimit="10" stroke-opacity="1" fill="none" fill-rule="nonzero"/><path d="M6099.76 6221.22 6066.76 6188.22M6066.76 6221.22 6099.76 6188.22" stroke="#898989" stroke-width="3.4375" stroke-linecap="butt" stroke-linejoin="round" stroke-miterlimit="10" stroke-opacity="1" fill="none" fill-rule="nonzero"/><path d="M6221.76 6192.22 6188.76 6159.22M6188.76 6192.22 6221.76 6159.22" stroke="#898989" stroke-width="3.4375" stroke-linecap="butt" stroke-linejoin="round" stroke-miterlimit="10" stroke-opacity="1" fill="none" fill-rule="nonzero"/><path d="M6342.76 6143.22 6309.76 6110.22M6309.76 6143.22 6342.76 6110.22" stroke="#898989" stroke-width="3.4375" stroke-linecap="butt" stroke-linejoin="round" stroke-miterlimit="10" stroke-opacity="1" fill="none" fill-rule="nonzero"/><path d="M6463.76 6119.22 6430.76 6086.22M6430.76 6119.22 6463.76 6086.22" stroke="#898989" stroke-width="3.4375" stroke-linecap="butt" stroke-linejoin="round" stroke-miterlimit="10" stroke-opacity="1" fill="none" fill-rule="nonzero"/><path d="M6585.76 6086.22 6552.76 6053.22M6552.76 6086.22 6585.76 6053.22" stroke="#898989" stroke-width="3.4375" stroke-linecap="butt" stroke-linejoin="round" stroke-miterlimit="10" stroke-opacity="1" fill="none" fill-rule="nonzero"/><path d="M6706.76 6046.22 6673.76 6013.22M6673.76 6046.22 6706.76 6013.22" stroke="#898989" stroke-width="3.4375" stroke-linecap="butt" stroke-linejoin="round" stroke-miterlimit="10" stroke-opacity="1" fill="none" fill-rule="nonzero"/><path d="M6828.76 6026.22 6795.76 5993.22M6795.76 6026.22 6828.76 5993.22" stroke="#898989" stroke-width="3.4375" stroke-linecap="butt" stroke-linejoin="round" stroke-miterlimit="10" stroke-opacity="1" fill="none" fill-rule="nonzero"/><path d="M6949.76 5974.22 6916.76 5941.22M6916.76 5974.22 6949.76 5941.22" stroke="#898989" stroke-width="3.4375" stroke-linecap="butt" stroke-linejoin="round" stroke-miterlimit="10" stroke-opacity="1" fill="none" fill-rule="nonzero"/><path d="M7071.76 5895.22 7038.76 5862.22M7038.76 5895.22 7071.76 5862.22" stroke="#898989" stroke-width="3.4375" stroke-linecap="butt" stroke-linejoin="round" stroke-miterlimit="10" stroke-opacity="1" fill="none" fill-rule="nonzero"/><path d="M7192.76 5782.22 7159.76 5749.22M7159.76 5782.22 7192.76 5749.22" stroke="#898989" stroke-width="3.4375" stroke-linecap="butt" stroke-linejoin="round" stroke-miterlimit="10" stroke-opacity="1" fill="none" fill-rule="nonzero"/><path d="M7313.76 5658.22 7280.76 5625.22M7280.76 5658.22 7313.76 5625.22" stroke="#898989" stroke-width="3.4375" stroke-linecap="butt" stroke-linejoin="round" stroke-miterlimit="10" stroke-opacity="1" fill="none" fill-rule="nonzero"/><path d="M7435.76 5631.22 7402.76 5598.22M7402.76 5631.22 7435.76 5598.22" stroke="#898989" stroke-width="3.4375" stroke-linecap="butt" stroke-linejoin="round" stroke-miterlimit="10" stroke-opacity="1" fill="none" fill-rule="nonzero"/><path d="M7556.76 5625.22 7523.76 5592.22M7523.76 5625.22 7556.76 5592.22" stroke="#898989" stroke-width="3.4375" stroke-linecap="butt" stroke-linejoin="round" stroke-miterlimit="10" stroke-opacity="1" fill="none" fill-rule="nonzero"/><path d="M7678.76 5622.22 7645.76 5589.22M7645.76 5622.22 7678.76 5589.22" stroke="#898989" stroke-width="3.4375" stroke-linecap="butt" stroke-linejoin="round" stroke-miterlimit="10" stroke-opacity="1" fill="none" fill-rule="nonzero"/><path d="M7799.76 5618.22 7766.76 5585.22M7766.76 5618.22 7799.76 5585.22" stroke="#898989" stroke-width="3.4375" stroke-linecap="butt" stroke-linejoin="round" stroke-miterlimit="10" stroke-opacity="1" fill="none" fill-rule="nonzero"/><path d="M7921.76 5609.22 7888.76 5576.22M7888.76 5609.22 7921.76 5576.22" stroke="#898989" stroke-width="3.4375" stroke-linecap="butt" stroke-linejoin="round" stroke-miterlimit="10" stroke-opacity="1" fill="none" fill-rule="nonzero"/></g><g><path d="M5962 6495 6083.2 6415.21 6205.2 6303.21 6326.21 6126.2 6448.21 5978.2 6569.22 5911.19 6691.22 5888.19 6812.22 5888 6933.23 5888 7055.23 5888 7176.24 5888 7298.24 5888 7419.24 5888 7541.25 5888 7662.25 5888 7783.26 5888 7905 5888" stroke="#212121" stroke-width="10.3125" stroke-linecap="round" stroke-linejoin="round" stroke-miterlimit="10" stroke-opacity="1" fill="none" fill-rule="nonzero"/></g><g><path d="M5978.76 6511.22 5945.76 6478.22M5962.26 6478.22 5962.26 6511.22M5945.76 6511.22 5978.76 6478.22" stroke="#212121" stroke-width="3.4375" stroke-linecap="butt" stroke-linejoin="round" stroke-miterlimit="10" stroke-opacity="1" fill="none" fill-rule="nonzero"/><path d="M6099.76 6432.22 6066.76 6399.22M6083.26 6399.22 6083.26 6432.22M6066.76 6432.22 6099.76 6399.22" stroke="#212121" stroke-width="3.4375" stroke-linecap="butt" stroke-linejoin="round" stroke-miterlimit="10" stroke-opacity="1" fill="none" fill-rule="nonzero"/><path d="M6221.76 6319.22 6188.76 6286.22M6205.26 6286.22 6205.26 6319.22M6188.76 6319.22 6221.76 6286.22" stroke="#212121" stroke-width="3.4375" stroke-linecap="butt" stroke-linejoin="round" stroke-miterlimit="10" stroke-opacity="1" fill="none" fill-rule="nonzero"/><path d="M6342.76 6143.22 6309.76 6110.22M6326.26 6110.22 6326.26 6143.22M6309.76 6143.22 6342.76 6110.22" stroke="#212121" stroke-width="3.4375" stroke-linecap="butt" stroke-linejoin="round" stroke-miterlimit="10" stroke-opacity="1" fill="none" fill-rule="nonzero"/><path d="M6463.76 5995.22 6430.76 5962.22M6447.26 5962.22 6447.26 5995.22M6430.76 5995.22 6463.76 5962.22" stroke="#212121" stroke-width="3.4375" stroke-linecap="butt" stroke-linejoin="round" stroke-miterlimit="10" stroke-opacity="1" fill="none" fill-rule="nonzero"/><path d="M6585.76 5928.22 6552.76 5895.22M6569.26 5895.22 6569.26 5928.22M6552.76 5928.22 6585.76 5895.22" stroke="#212121" stroke-width="3.4375" stroke-linecap="butt" stroke-linejoin="round" stroke-miterlimit="10" stroke-opacity="1" fill="none" fill-rule="nonzero"/><path d="M6706.76 5905.22 6673.76 5872.22M6690.26 5872.22 6690.26 5905.22M6673.76 5905.22 6706.76 5872.22" stroke="#212121" stroke-width="3.4375" stroke-linecap="butt" stroke-linejoin="round" stroke-miterlimit="10" stroke-opacity="1" fill="none" fill-rule="nonzero"/><path d="M6828.76 5904.22 6795.76 5871.22M6812.26 5871.22 6812.26 5904.22M6795.76 5904.22 6828.76 5871.22" stroke="#212121" stroke-width="3.4375" stroke-linecap="butt" stroke-linejoin="round" stroke-miterlimit="10" stroke-opacity="1" fill="none" fill-rule="nonzero"/><path d="M6949.76 5904.22 6916.76 5871.22M6933.26 5871.22 6933.26 5904.22M6916.76 5904.22 6949.76 5871.22" stroke="#212121" stroke-width="3.4375" stroke-linecap="butt" stroke-linejoin="round" stroke-miterlimit="10" stroke-opacity="1" fill="none" fill-rule="nonzero"/><path d="M7071.76 5904.22 7038.76 5871.22M7055.26 5871.22 7055.26 5904.22M7038.76 5904.22 7071.76 5871.22" stroke="#212121" stroke-width="3.4375" stroke-linecap="butt" stroke-linejoin="round" stroke-miterlimit="10" stroke-opacity="1" fill="none" fill-rule="nonzero"/><path d="M7192.76 5904.22 7159.76 5871.22M7176.26 5871.22 7176.26 5904.22M7159.76 5904.22 7192.76 5871.22" stroke="#212121" stroke-width="3.4375" stroke-linecap="butt" stroke-linejoin="round" stroke-miterlimit="10" stroke-opacity="1" fill="none" fill-rule="nonzero"/><path d="M7313.76 5904.22 7280.76 5871.22M7297.26 5871.22 7297.26 5904.22M7280.76 5904.22 7313.76 5871.22" stroke="#212121" stroke-width="3.4375" stroke-linecap="butt" stroke-linejoin="round" stroke-miterlimit="10" stroke-opacity="1" fill="none" fill-rule="nonzero"/><path d="M7435.76 5904.22 7402.76 5871.22M7419.26 5871.22 7419.26 5904.22M7402.76 5904.22 7435.76 5871.22" stroke="#212121" stroke-width="3.4375" stroke-linecap="butt" stroke-linejoin="round" stroke-miterlimit="10" stroke-opacity="1" fill="none" fill-rule="nonzero"/><path d="M7556.76 5904.22 7523.76 5871.22M7540.26 5871.22 7540.26 5904.22M7523.76 5904.22 7556.76 5871.22" stroke="#212121" stroke-width="3.4375" stroke-linecap="butt" stroke-linejoin="round" stroke-miterlimit="10" stroke-opacity="1" fill="none" fill-rule="nonzero"/><path d="M7678.76 5904.22 7645.76 5871.22M7662.26 5871.22 7662.26 5904.22M7645.76 5904.22 7678.76 5871.22" stroke="#212121" stroke-width="3.4375" stroke-linecap="butt" stroke-linejoin="round" stroke-miterlimit="10" stroke-opacity="1" fill="none" fill-rule="nonzero"/><path d="M7799.76 5904.22 7766.76 5871.22M7783.26 5871.22 7783.26 5904.22M7766.76 5904.22 7799.76 5871.22" stroke="#212121" stroke-width="3.4375" stroke-linecap="butt" stroke-linejoin="round" stroke-miterlimit="10" stroke-opacity="1" fill="none" fill-rule="nonzero"/><path d="M7921.76 5904.22 7888.76 5871.22M7905.26 5871.22 7905.26 5904.22M7888.76 5904.22 7921.76 5871.22" stroke="#212121" stroke-width="3.4375" stroke-linecap="butt" stroke-linejoin="round" stroke-miterlimit="10" stroke-opacity="1" fill="none" fill-rule="nonzero"/></g><g><text fill="#595959" fill-opacity="1" font-family="NanumMyeongjo,NanumMyeongjo_MSFontService,sans-serif" font-style="normal" font-variant="normal" font-weight="400" font-stretch="normal" font-size="46" text-anchor="start" direction="ltr" writing-mode="lr-tb" unicode-bidi="normal" text-decoration="none" transform="matrix(1 0 0 1 5799.27 6620)">0.0</text></g><g><text fill="#595959" fill-opacity="1" font-family="NanumMyeongjo,NanumMyeongjo_MSFontService,sans-serif" font-style="normal" font-variant="normal" font-weight="400" font-stretch="normal" font-size="46" text-anchor="start" direction="ltr" writing-mode="lr-tb" unicode-bidi="normal" text-decoration="none" transform="matrix(1 0 0 1 5774.66 6406)">50.0</text></g><g><text fill="#595959" fill-opacity="1" font-family="NanumMyeongjo,NanumMyeongjo_MSFontService,sans-serif" font-style="normal" font-variant="normal" font-weight="400" font-stretch="normal" font-size="46" text-anchor="start" direction="ltr" writing-mode="lr-tb" unicode-bidi="normal" text-decoration="none" transform="matrix(1 0 0 1 5750.05 6193)">100.0</text></g><g><text fill="#595959" fill-opacity="1" font-family="NanumMyeongjo,NanumMyeongjo_MSFontService,sans-serif" font-style="normal" font-variant="normal" font-weight="400" font-stretch="normal" font-size="46" text-anchor="start" direction="ltr" writing-mode="lr-tb" unicode-bidi="normal" text-decoration="none" transform="matrix(1 0 0 1 5750.05 5979)">150.0</text></g><g><text fill="#595959" fill-opacity="1" font-family="NanumMyeongjo,NanumMyeongjo_MSFontService,sans-serif" font-style="normal" font-variant="normal" font-weight="400" font-stretch="normal" font-size="46" text-anchor="start" direction="ltr" writing-mode="lr-tb" unicode-bidi="normal" text-decoration="none" transform="matrix(1 0 0 1 5750.05 5766)">200.0</text></g><g><text fill="#595959" fill-opacity="1" font-family="NanumMyeongjo,NanumMyeongjo_MSFontService,sans-serif" font-style="normal" font-variant="normal" font-weight="400" font-stretch="normal" font-size="46" text-anchor="start" direction="ltr" writing-mode="lr-tb" unicode-bidi="normal" text-decoration="none" transform="matrix(1 0 0 1 5750.05 5552)">250.0</text></g><g><text fill="#595959" fill-opacity="1" font-family="NanumMyeongjo,NanumMyeongjo_MSFontService,sans-serif" font-style="normal" font-variant="normal" font-weight="400" font-stretch="normal" font-size="46" text-anchor="start" direction="ltr" writing-mode="lr-tb" unicode-bidi="normal" text-decoration="none" transform="matrix(1 0 0 1 5949.87 6675)">3</text></g><g><text fill="#595959" fill-opacity="1" font-family="NanumMyeongjo,NanumMyeongjo_MSFontService,sans-serif" font-style="normal" font-variant="normal" font-weight="400" font-stretch="normal" font-size="46" text-anchor="start" direction="ltr" writing-mode="lr-tb" unicode-bidi="normal" text-decoration="none" transform="matrix(1 0 0 1 6071.3 6675)">5</text></g><g><text fill="#595959" fill-opacity="1" font-family="NanumMyeongjo,NanumMyeongjo_MSFontService,sans-serif" font-style="normal" font-variant="normal" font-weight="400" font-stretch="normal" font-size="46" text-anchor="start" direction="ltr" writing-mode="lr-tb" unicode-bidi="normal" text-decoration="none" transform="matrix(1 0 0 1 6192.73 6675)">7</text></g><g><text fill="#595959" fill-opacity="1" font-family="NanumMyeongjo,NanumMyeongjo_MSFontService,sans-serif" font-style="normal" font-variant="normal" font-weight="400" font-stretch="normal" font-size="46" text-anchor="start" direction="ltr" writing-mode="lr-tb" unicode-bidi="normal" text-decoration="none" transform="matrix(1 0 0 1 6314.17 6675)">9</text></g><g><text fill="#595959" fill-opacity="1" font-family="NanumMyeongjo,NanumMyeongjo_MSFontService,sans-serif" font-style="normal" font-variant="normal" font-weight="400" font-stretch="normal" font-size="46" text-anchor="start" direction="ltr" writing-mode="lr-tb" unicode-bidi="normal" text-decoration="none" transform="matrix(1 0 0 1 6423.3 6675)">11</text></g><g><text fill="#595959" fill-opacity="1" font-family="NanumMyeongjo,NanumMyeongjo_MSFontService,sans-serif" font-style="normal" font-variant="normal" font-weight="400" font-stretch="normal" font-size="46" text-anchor="start" direction="ltr" writing-mode="lr-tb" unicode-bidi="normal" text-decoration="none" transform="matrix(1 0 0 1 6544.73 6675)">13</text></g><g><text fill="#595959" fill-opacity="1" font-family="NanumMyeongjo,NanumMyeongjo_MSFontService,sans-serif" font-style="normal" font-variant="normal" font-weight="400" font-stretch="normal" font-size="46" text-anchor="start" direction="ltr" writing-mode="lr-tb" unicode-bidi="normal" text-decoration="none" transform="matrix(1 0 0 1 6666.16 6675)">15</text></g><g><text fill="#595959" fill-opacity="1" font-family="NanumMyeongjo,NanumMyeongjo_MSFontService,sans-serif" font-style="normal" font-variant="normal" font-weight="400" font-stretch="normal" font-size="46" text-anchor="start" direction="ltr" writing-mode="lr-tb" unicode-bidi="normal" text-decoration="none" transform="matrix(1 0 0 1 6787.6 6675)">17</text></g><g><text fill="#595959" fill-opacity="1" font-family="NanumMyeongjo,NanumMyeongjo_MSFontService,sans-serif" font-style="normal" font-variant="normal" font-weight="400" font-stretch="normal" font-size="46" text-anchor="start" direction="ltr" writing-mode="lr-tb" unicode-bidi="normal" text-decoration="none" transform="matrix(1 0 0 1 6909.03 6675)">19</text></g><g><text fill="#595959" fill-opacity="1" font-family="NanumMyeongjo,NanumMyeongjo_MSFontService,sans-serif" font-style="normal" font-variant="normal" font-weight="400" font-stretch="normal" font-size="46" text-anchor="start" direction="ltr" writing-mode="lr-tb" unicode-bidi="normal" text-decoration="none" transform="matrix(1 0 0 1 7030.47 6675)">21</text></g><g><text fill="#595959" fill-opacity="1" font-family="NanumMyeongjo,NanumMyeongjo_MSFontService,sans-serif" font-style="normal" font-variant="normal" font-weight="400" font-stretch="normal" font-size="46" text-anchor="start" direction="ltr" writing-mode="lr-tb" unicode-bidi="normal" text-decoration="none" transform="matrix(1 0 0 1 7151.9 6675)">23</text></g><g><text fill="#595959" fill-opacity="1" font-family="NanumMyeongjo,NanumMyeongjo_MSFontService,sans-serif" font-style="normal" font-variant="normal" font-weight="400" font-stretch="normal" font-size="46" text-anchor="start" direction="ltr" writing-mode="lr-tb" unicode-bidi="normal" text-decoration="none" transform="matrix(1 0 0 1 7273.33 6675)">25</text></g><g><text fill="#595959" fill-opacity="1" font-family="NanumMyeongjo,NanumMyeongjo_MSFontService,sans-serif" font-style="normal" font-variant="normal" font-weight="400" font-stretch="normal" font-size="46" text-anchor="start" direction="ltr" writing-mode="lr-tb" unicode-bidi="normal" text-decoration="none" transform="matrix(1 0 0 1 7394.77 6675)">27</text></g><g><text fill="#595959" fill-opacity="1" font-family="NanumMyeongjo,NanumMyeongjo_MSFontService,sans-serif" font-style="normal" font-variant="normal" font-weight="400" font-stretch="normal" font-size="46" text-anchor="start" direction="ltr" writing-mode="lr-tb" unicode-bidi="normal" text-decoration="none" transform="matrix(1 0 0 1 7516.2 6675)">29</text></g><g><text fill="#595959" fill-opacity="1" font-family="NanumMyeongjo,NanumMyeongjo_MSFontService,sans-serif" font-style="normal" font-variant="normal" font-weight="400" font-stretch="normal" font-size="46" text-anchor="start" direction="ltr" writing-mode="lr-tb" unicode-bidi="normal" text-decoration="none" transform="matrix(1 0 0 1 7637.64 6675)">31</text></g><g><text fill="#595959" fill-opacity="1" font-family="NanumMyeongjo,NanumMyeongjo_MSFontService,sans-serif" font-style="normal" font-variant="normal" font-weight="400" font-stretch="normal" font-size="46" text-anchor="start" direction="ltr" writing-mode="lr-tb" unicode-bidi="normal" text-decoration="none" transform="matrix(1 0 0 1 7759.07 6675)">33</text></g><g><text fill="#595959" fill-opacity="1" font-family="NanumMyeongjo,NanumMyeongjo_MSFontService,sans-serif" font-style="normal" font-variant="normal" font-weight="400" font-stretch="normal" font-size="46" text-anchor="start" direction="ltr" writing-mode="lr-tb" unicode-bidi="normal" text-decoration="none" transform="matrix(1 0 0 1 7880.5 6675)">35</text></g><g><text fill="#595959" fill-opacity="1" font-family="NanumMyeongjo,NanumMyeongjo_MSFontService,sans-serif" font-style="normal" font-variant="normal" font-weight="400" font-stretch="normal" font-size="55" text-anchor="start" direction="ltr" writing-mode="lr-tb" unicode-bidi="normal" text-decoration="none" transform="matrix(6.12323e-17 -1 1 6.12323e-17 5714.05 6201)">No. of hits</text></g><g><text fill="#595959" fill-opacity="1" font-family="NanumMyeongjo,NanumMyeongjo_MSFontService,sans-serif" font-style="normal" font-variant="normal" font-weight="400" font-stretch="normal" font-size="55" text-anchor="start" direction="ltr" writing-mode="lr-tb" unicode-bidi="normal" text-decoration="none" transform="matrix(1 0 0 1 6846.32 6760)">Top</text></g><g><text fill="#595959" fill-opacity="1" font-family="NanumMyeongjo,NanumMyeongjo_MSFontService,sans-serif" font-style="normal" font-variant="normal" font-weight="400" font-stretch="normal" font-size="55" text-anchor="start" direction="ltr" writing-mode="lr-tb" unicode-bidi="normal" text-decoration="none" transform="matrix(1 0 0 1 6939.38 6760)">-</text></g><g><text fill="#595959" fill-opacity="1" font-family="NanumMyeongjo,NanumMyeongjo_MSFontService,sans-serif" font-style="normal" font-variant="normal" font-weight="400" font-stretch="normal" font-size="55" text-anchor="start" direction="ltr" writing-mode="lr-tb" unicode-bidi="normal" text-decoration="none" transform="matrix(1 0 0 1 6974.52 6760)">N</text></g><g><text fill="#595959" fill-opacity="1" font-family="NanumMyeongjo,NanumMyeongjo_MSFontService,sans-serif" font-style="normal" font-variant="normal" font-weight="400" font-stretch="normal" font-size="66" text-anchor="start" direction="ltr" writing-mode="lr-tb" unicode-bidi="normal" text-decoration="none" transform="matrix(1 0 0 1 6666.16 5454)">purchases</text></g><g><path d="M6231 6884 6319 6884" stroke="#5F5F5F" stroke-width="10.3125" stroke-linecap="round" stroke-linejoin="round" stroke-miterlimit="10" stroke-opacity="1" fill="none" fill-rule="evenodd"/></g><g><path d="M6290.02 6884.5C6290.02 6893.06 6283.29 6900 6275 6900 6266.71 6900 6259.98 6893.06 6259.98 6884.5 6259.98 6875.94 6266.71 6869 6275 6869 6283.29 6869 6290.02 6875.94 6290.02 6884.5Z" stroke="#5F5F5F" stroke-width="3.4375" stroke-linecap="butt" stroke-linejoin="round" stroke-miterlimit="10" stroke-opacity="1" fill="#5F5F5F" fill-rule="nonzero" fill-opacity="1"/></g><g><text fill="#595959" fill-opacity="1" font-family="NanumMyeongjo,NanumMyeongjo_MSFontService,sans-serif" font-style="normal" font-variant="normal" font-weight="400" font-stretch="normal" font-size="55" text-anchor="start" direction="ltr" writing-mode="lr-tb" unicode-bidi="normal" text-decoration="none" transform="matrix(1 0 0 1 6328.36 6903)">IBCF</text></g><g><path d="M6505 6884 6593 6884" stroke="#B3B3B3" stroke-width="10.3125" stroke-linecap="round" stroke-linejoin="round" stroke-miterlimit="10" stroke-opacity="1" fill="none" fill-rule="evenodd"/></g><g><path d="M6532.71 6868.73 6563.72 6868.73 6563.72 6899.73 6532.71 6899.73Z" stroke="#B3B3B3" stroke-width="3.4375" stroke-linecap="butt" stroke-linejoin="round" stroke-miterlimit="10" stroke-opacity="1" fill="#B3B3B3" fill-rule="nonzero" fill-opacity="1"/></g><g><text fill="#595959" fill-opacity="1" font-family="NanumMyeongjo,NanumMyeongjo_MSFontService,sans-serif" font-style="normal" font-variant="normal" font-weight="400" font-stretch="normal" font-size="55" text-anchor="start" direction="ltr" writing-mode="lr-tb" unicode-bidi="normal" text-decoration="none" transform="matrix(1 0 0 1 6602.25 6903)">NMF</text></g><g><path d="M6790 6884 6878 6884" stroke="#898989" stroke-width="10.3125" stroke-linecap="round" stroke-linejoin="round" stroke-miterlimit="10" stroke-opacity="1" fill="none" fill-rule="evenodd"/></g><g><path d="M6850.5 6900.5 6817.5 6868.5M6817.5 6900.5 6850.5 6868.5" stroke="#898989" stroke-width="3.4375" stroke-linecap="butt" stroke-linejoin="round" stroke-miterlimit="10" stroke-opacity="1" fill="none" fill-rule="nonzero"/></g><g><text fill="#595959" fill-opacity="1" font-family="NanumMyeongjo,NanumMyeongjo_MSFontService,sans-serif" font-style="normal" font-variant="normal" font-weight="400" font-stretch="normal" font-size="55" text-anchor="start" direction="ltr" writing-mode="lr-tb" unicode-bidi="normal" text-decoration="none" transform="matrix(1 0 0 1 6887.42 6903)">Rev1</text></g><g><path d="M7064 6884 7152 6884" stroke="#212121" stroke-width="10.3125" stroke-linecap="round" stroke-linejoin="round" stroke-miterlimit="10" stroke-opacity="1" fill="none" fill-rule="evenodd"/></g><g><path d="M7123.5 6900.5 7090.5 6868.5M7107.73 6868.5 7107.73 6900.5M7090.5 6900.5 7123.5 6868.5" stroke="#212121" stroke-width="3.4375" stroke-linecap="butt" stroke-linejoin="round" stroke-miterlimit="10" stroke-opacity="1" fill="none" fill-rule="nonzero"/></g><g><text fill="#595959" fill-opacity="1" font-family="NanumMyeongjo,NanumMyeongjo_MSFontService,sans-serif" font-style="normal" font-variant="normal" font-weight="400" font-stretch="normal" font-size="55" text-anchor="start" direction="ltr" writing-mode="lr-tb" unicode-bidi="normal" text-decoration="none" transform="matrix(1 0 0 1 7161.19 6903)">Rev4Ver1</text></g><rect x="5597.5" y="5347.5" width="2419" height="1610" stroke="#D9D9D9" stroke-width="3.4375" stroke-linecap="butt" stroke-linejoin="round" stroke-miterlimit="10" stroke-opacity="1" fill="none"/></g></g></svg>