<svg width="2429" height="1618" xmlns="http://www.w3.org/2000/svg" xmlns:xlink="http://www.w3.org/1999/xlink" xml:space="preserve" overflow="hidden"><defs><clipPath id="clip0"><rect x="2823" y="3634" width="2429" height="1618"/></clipPath><clipPath id="clip1"><rect x="2823" y="3634" width="2429" height="1618"/></clipPath></defs><g clip-path="url(#clip0)" transform="translate(-2823 -3634)"><g clip-path="url(#clip1)"><rect x="2826" y="3636" width="2424" height="1610" fill="#FFFFFF" fill-opacity="1"/><g><path d="M3155.5 4858.66 5200.5 4858.66M3155.5 4822.66 5200.5 4822.66M3155.5 4787.66 5200.5 4787.66M3155.5 4751.66 5200.5 4751.66M3155.5 4680.65 5200.5 4680.65M3155.5 4644.65 5200.5 4644.65M3155.5 4609.65 5200.5 4609.65M3155.5 4573.65 5200.5 4573.65M3155.5 4502.65 5200.5 4502.65M3155.5 4466.65 5200.5 4466.65M3155.5 4431.65 5200.5 4431.65M3155.5 4395.64 5200.5 4395.64M3155.5 4324.64 5200.5 4324.64M3155.5 4288.64 5200.5 4288.64M3155.5 4253.64 5200.5 4253.64M3155.5 4217.64 5200.5 4217.64M3155.5 4146.64 5200.5 4146.64M3155.5 4111.64 5200.5 4111.64M3155.5 4075.63 5200.5 4075.63M3155.5 4039.63 5200.5 4039.63M3155.5 3968.63 5200.5 3968.63M3155.5 3933.63 5200.5 3933.63M3155.5 3897.63 5200.5 3897.63M3155.5 3861.63 5200.5 3861.63" stroke="#F2F2F2" stroke-width="3.4375" stroke-linecap="butt" stroke-linejoin="round" stroke-miterlimit="10" stroke-opacity="1" fill="none" fill-rule="nonzero"/></g><g><path d="M3155.5 4715.65 5200.5 4715.65M3155.5 4538.65 5200.5 4538.65M3155.5 4360.64 5200.5 4360.64M3155.5 4182.64 5200.5 4182.64M3155.5 4004.63 5200.5 4004.63M3155.5 3826.5 5200.5 3826.5" stroke="#D9D9D9" stroke-width="3.4375" stroke-linecap="butt" stroke-linejoin="round" stroke-miterlimit="10" stroke-opacity="1" fill="none" fill-rule="nonzero"/></g><g><path d="M3155.5 3826.5 3155.5 4894.5M3275.61 3826.5 3275.61 4894.5M3396.61 3826.5 3396.61 4894.5M3516.62 3826.5 3516.62 4894.5M3636.62 3826.5 3636.62 4894.5M3756.62 3826.5 3756.62 4894.5M3877.63 3826.5 3877.63 4894.5M3997.63 3826.5 3997.63 4894.5M4117.64 3826.5 4117.64 4894.5M4237.64 3826.5 4237.64 4894.5M4358.64 3826.5 4358.64 4894.5M4478.65 3826.5 4478.65 4894.5M4598.65 3826.5 4598.65 4894.5M4718.66 3826.5 4718.66 4894.5M4839.66 3826.5 4839.66 4894.5M4959.66 3826.5 4959.66 4894.5M5079.67 3826.5 5079.67 4894.5M5200.5 3826.5 5200.5 4894.5" stroke="#D9D9D9" stroke-width="3.4375" stroke-linecap="butt" stroke-linejoin="round" stroke-miterlimit="10" stroke-opacity="1" fill="none" fill-rule="nonzero"/></g><g><path d="M3155.5 4894.5 5200.5 4894.5" stroke="#D9D9D9" stroke-width="3.4375" stroke-linecap="butt" stroke-linejoin="round" stroke-miterlimit="10" stroke-opacity="1" fill="none" fill-rule="evenodd"/></g><g><path d="M3216 4666 3336.11 4614.15 3456.11 4579.15 3576.12 4551.15 3697.12 4533.15 3817.13 4521.15 3937.13 4513.15 4057.13 4503.15 4178.14 4495.15 4298.14 4493.15 4418.15 4488.15 4538.15 4486.15 4659.15 4481.15 4779.16 4478.15 4899.16 4478 5019.16 4478.15 5140 4480.15" stroke="#5F5F5F" stroke-width="10.3125" stroke-linecap="round" stroke-linejoin="round" stroke-miterlimit="10" stroke-opacity="1" fill="none" fill-rule="nonzero"/></g><g><path d="M3230.89 4666.11C3230.89 4674.67 3223.95 4681.61 3215.39 4681.61 3206.83 4681.61 3199.89 4674.67 3199.89 4666.11 3199.89 4657.55 3206.83 4650.61 3215.39 4650.61 3223.95 4650.61 3230.89 4657.55 3230.89 4666.11Z" stroke="#5F5F5F" stroke-width="3.4375" stroke-linecap="butt" stroke-linejoin="round" stroke-miterlimit="10" stroke-opacity="1" fill="#5F5F5F" fill-rule="nonzero" fill-opacity="1"/><path d="M3351.89 4613.11C3351.89 4621.67 3344.95 4628.61 3336.39 4628.61 3327.83 4628.61 3320.89 4621.67 3320.89 4613.11 3320.89 4604.55 3327.83 4597.61 3336.39 4597.61 3344.95 4597.61 3351.89 4604.55 3351.89 4613.11Z" stroke="#5F5F5F" stroke-width="3.4375" stroke-linecap="butt" stroke-linejoin="round" stroke-miterlimit="10" stroke-opacity="1" fill="#5F5F5F" fill-rule="nonzero" fill-opacity="1"/><path d="M3471.89 4579.11C3471.89 4587.67 3464.95 4594.61 3456.39 4594.61 3447.83 4594.61 3440.89 4587.67 3440.89 4579.11 3440.89 4570.55 3447.83 4563.61 3456.39 4563.61 3464.95 4563.61 3471.89 4570.55 3471.89 4579.11Z" stroke="#5F5F5F" stroke-width="3.4375" stroke-linecap="butt" stroke-linejoin="round" stroke-miterlimit="10" stroke-opacity="1" fill="#5F5F5F" fill-rule="nonzero" fill-opacity="1"/><path d="M3591.89 4551.11C3591.89 4559.67 3584.95 4566.61 3576.39 4566.61 3567.83 4566.61 3560.89 4559.67 3560.89 4551.11 3560.89 4542.55 3567.83 4535.61 3576.39 4535.61 3584.95 4535.61 3591.89 4542.55 3591.89 4551.11Z" stroke="#5F5F5F" stroke-width="3.4375" stroke-linecap="butt" stroke-linejoin="round" stroke-miterlimit="10" stroke-opacity="1" fill="#5F5F5F" fill-rule="nonzero" fill-opacity="1"/><path d="M3711.89 4533.11C3711.89 4541.67 3704.95 4548.61 3696.39 4548.61 3687.83 4548.61 3680.89 4541.67 3680.89 4533.11 3680.89 4524.55 3687.83 4517.61 3696.39 4517.61 3704.95 4517.61 3711.89 4524.55 3711.89 4533.11Z" stroke="#5F5F5F" stroke-width="3.4375" stroke-linecap="butt" stroke-linejoin="round" stroke-miterlimit="10" stroke-opacity="1" fill="#5F5F5F" fill-rule="nonzero" fill-opacity="1"/><path d="M3832.89 4521.11C3832.89 4529.67 3825.95 4536.61 3817.39 4536.61 3808.83 4536.61 3801.89 4529.67 3801.89 4521.11 3801.89 4512.55 3808.83 4505.61 3817.39 4505.61 3825.95 4505.61 3832.89 4512.55 3832.89 4521.11Z" stroke="#5F5F5F" stroke-width="3.4375" stroke-linecap="butt" stroke-linejoin="round" stroke-miterlimit="10" stroke-opacity="1" fill="#5F5F5F" fill-rule="nonzero" fill-opacity="1"/><path d="M3952.89 4513.11C3952.89 4521.67 3945.95 4528.61 3937.39 4528.61 3928.83 4528.61 3921.89 4521.67 3921.89 4513.11 3921.89 4504.55 3928.83 4497.61 3937.39 4497.61 3945.95 4497.61 3952.89 4504.55 3952.89 4513.11Z" stroke="#5F5F5F" stroke-width="3.4375" stroke-linecap="butt" stroke-linejoin="round" stroke-miterlimit="10" stroke-opacity="1" fill="#5F5F5F" fill-rule="nonzero" fill-opacity="1"/><path d="M4072.89 4503.11C4072.89 4511.67 4065.95 4518.61 4057.39 4518.61 4048.83 4518.61 4041.89 4511.67 4041.89 4503.11 4041.89 4494.55 4048.83 4487.61 4057.39 4487.61 4065.95 4487.61 4072.89 4494.55 4072.89 4503.11Z" stroke="#5F5F5F" stroke-width="3.4375" stroke-linecap="butt" stroke-linejoin="round" stroke-miterlimit="10" stroke-opacity="1" fill="#5F5F5F" fill-rule="nonzero" fill-opacity="1"/><path d="M4192.89 4495.11C4192.89 4503.67 4185.95 4510.61 4177.39 4510.61 4168.83 4510.61 4161.89 4503.67 4161.89 4495.11 4161.89 4486.55 4168.83 4479.61 4177.39 4479.61 4185.95 4479.61 4192.89 4486.55 4192.89 4495.11Z" stroke="#5F5F5F" stroke-width="3.4375" stroke-linecap="butt" stroke-linejoin="round" stroke-miterlimit="10" stroke-opacity="1" fill="#5F5F5F" fill-rule="nonzero" fill-opacity="1"/><path d="M4313.89 4493.11C4313.89 4501.67 4306.95 4508.61 4298.39 4508.61 4289.83 4508.61 4282.89 4501.67 4282.89 4493.11 4282.89 4484.55 4289.83 4477.61 4298.39 4477.61 4306.95 4477.61 4313.89 4484.55 4313.89 4493.11Z" stroke="#5F5F5F" stroke-width="3.4375" stroke-linecap="butt" stroke-linejoin="round" stroke-miterlimit="10" stroke-opacity="1" fill="#5F5F5F" fill-rule="nonzero" fill-opacity="1"/><path d="M4433.89 4488.11C4433.89 4496.67 4426.95 4503.61 4418.39 4503.61 4409.83 4503.61 4402.89 4496.67 4402.89 4488.11 4402.89 4479.55 4409.83 4472.61 4418.39 4472.61 4426.95 4472.61 4433.89 4479.55 4433.89 4488.11Z" stroke="#5F5F5F" stroke-width="3.4375" stroke-linecap="butt" stroke-linejoin="round" stroke-miterlimit="10" stroke-opacity="1" fill="#5F5F5F" fill-rule="nonzero" fill-opacity="1"/><path d="M4553.89 4486.11C4553.89 4494.67 4546.95 4501.61 4538.39 4501.61 4529.83 4501.61 4522.89 4494.67 4522.89 4486.11 4522.89 4477.55 4529.83 4470.61 4538.39 4470.61 4546.95 4470.61 4553.89 4477.55 4553.89 4486.11Z" stroke="#5F5F5F" stroke-width="3.4375" stroke-linecap="butt" stroke-linejoin="round" stroke-miterlimit="10" stroke-opacity="1" fill="#5F5F5F" fill-rule="nonzero" fill-opacity="1"/><path d="M4673.89 4481.11C4673.89 4489.67 4666.95 4496.61 4658.39 4496.61 4649.83 4496.61 4642.89 4489.67 4642.89 4481.11 4642.89 4472.55 4649.83 4465.61 4658.39 4465.61 4666.95 4465.61 4673.89 4472.55 4673.89 4481.11Z" stroke="#5F5F5F" stroke-width="3.4375" stroke-linecap="butt" stroke-linejoin="round" stroke-miterlimit="10" stroke-opacity="1" fill="#5F5F5F" fill-rule="nonzero" fill-opacity="1"/><path d="M4794.89 4478.11C4794.89 4486.67 4787.95 4493.61 4779.39 4493.61 4770.83 4493.61 4763.89 4486.67 4763.89 4478.11 4763.89 4469.55 4770.83 4462.61 4779.39 4462.61 4787.95 4462.61 4794.89 4469.55 4794.89 4478.11Z" stroke="#5F5F5F" stroke-width="3.4375" stroke-linecap="butt" stroke-linejoin="round" stroke-miterlimit="10" stroke-opacity="1" fill="#5F5F5F" fill-rule="nonzero" fill-opacity="1"/><path d="M4914.89 4477.11C4914.89 4485.67 4907.95 4492.61 4899.39 4492.61 4890.83 4492.61 4883.89 4485.67 4883.89 4477.11 4883.89 4468.55 4890.83 4461.61 4899.39 4461.61 4907.95 4461.61 4914.89 4468.55 4914.89 4477.11Z" stroke="#5F5F5F" stroke-width="3.4375" stroke-linecap="butt" stroke-linejoin="round" stroke-miterlimit="10" stroke-opacity="1" fill="#5F5F5F" fill-rule="nonzero" fill-opacity="1"/><path d="M5034.89 4478.11C5034.89 4486.67 5027.95 4493.61 5019.39 4493.61 5010.83 4493.61 5003.89 4486.67 5003.89 4478.11 5003.89 4469.55 5010.83 4462.61 5019.39 4462.61 5027.95 4462.61 5034.89 4469.55 5034.89 4478.11Z" stroke="#5F5F5F" stroke-width="3.4375" stroke-linecap="butt" stroke-linejoin="round" stroke-miterlimit="10" stroke-opacity="1" fill="#5F5F5F" fill-rule="nonzero" fill-opacity="1"/><path d="M5154.89 4480.11C5154.89 4488.67 5147.95 4495.61 5139.39 4495.61 5130.83 4495.61 5123.89 4488.67 5123.89 4480.11 5123.89 4471.55 5130.83 4464.61 5139.39 4464.61 5147.95 4464.61 5154.89 4471.55 5154.89 4480.11Z" stroke="#5F5F5F" stroke-width="3.4375" stroke-linecap="butt" stroke-linejoin="round" stroke-miterlimit="10" stroke-opacity="1" fill="#5F5F5F" fill-rule="nonzero" fill-opacity="1"/></g><g><path d="M3216 4112.13 3336.11 4010.13 3456.11 4002 3576.12 4015.13 3697.12 4042.13 3817.13 4070.13 3937.13 4102.13 4057.13 4128.14 4178.14 4153.14 4298.14 4179.14 4418.15 4201.14 4538.15 4226.14 4659.15 4247.14 4779.16 4267.14 4899.16 4284.14 5019.16 4300.14 5140 4315" stroke="#B3B3B3" stroke-width="10.3125" stroke-linecap="round" stroke-linejoin="round" stroke-miterlimit="10" stroke-opacity="1" fill="none" fill-rule="nonzero"/></g><g><path d="M3199.89 4095.61 3230.89 4095.61 3230.89 4126.61 3199.89 4126.61Z" stroke="#B3B3B3" stroke-width="3.4375" stroke-linecap="butt" stroke-linejoin="round" stroke-miterlimit="10" stroke-opacity="1" fill="#B3B3B3" fill-rule="nonzero" fill-opacity="1"/><path d="M3320.89 3994.61 3351.89 3994.61 3351.89 4025.61 3320.89 4025.61Z" stroke="#B3B3B3" stroke-width="3.4375" stroke-linecap="butt" stroke-linejoin="round" stroke-miterlimit="10" stroke-opacity="1" fill="#B3B3B3" fill-rule="nonzero" fill-opacity="1"/><path d="M3440.89 3985.61 3471.89 3985.61 3471.89 4016.61 3440.89 4016.61Z" stroke="#B3B3B3" stroke-width="3.4375" stroke-linecap="butt" stroke-linejoin="round" stroke-miterlimit="10" stroke-opacity="1" fill="#B3B3B3" fill-rule="nonzero" fill-opacity="1"/><path d="M3560.89 3999.61 3591.89 3999.61 3591.89 4030.61 3560.89 4030.61Z" stroke="#B3B3B3" stroke-width="3.4375" stroke-linecap="butt" stroke-linejoin="round" stroke-miterlimit="10" stroke-opacity="1" fill="#B3B3B3" fill-rule="nonzero" fill-opacity="1"/><path d="M3680.89 4026.61 3711.89 4026.61 3711.89 4057.61 3680.89 4057.61Z" stroke="#B3B3B3" stroke-width="3.4375" stroke-linecap="butt" stroke-linejoin="round" stroke-miterlimit="10" stroke-opacity="1" fill="#B3B3B3" fill-rule="nonzero" fill-opacity="1"/><path d="M3801.89 4054.61 3832.89 4054.61 3832.89 4085.61 3801.89 4085.61Z" stroke="#B3B3B3" stroke-width="3.4375" stroke-linecap="butt" stroke-linejoin="round" stroke-miterlimit="10" stroke-opacity="1" fill="#B3B3B3" fill-rule="nonzero" fill-opacity="1"/><path d="M3921.89 4086.61 3952.89 4086.61 3952.89 4117.61 3921.89 4117.61Z" stroke="#B3B3B3" stroke-width="3.4375" stroke-linecap="butt" stroke-linejoin="round" stroke-miterlimit="10" stroke-opacity="1" fill="#B3B3B3" fill-rule="nonzero" fill-opacity="1"/><path d="M4041.89 4112.61 4072.89 4112.61 4072.89 4143.61 4041.89 4143.61Z" stroke="#B3B3B3" stroke-width="3.4375" stroke-linecap="butt" stroke-linejoin="round" stroke-miterlimit="10" stroke-opacity="1" fill="#B3B3B3" fill-rule="nonzero" fill-opacity="1"/><path d="M4161.89 4136.61 4192.89 4136.61 4192.89 4167.61 4161.89 4167.61Z" stroke="#B3B3B3" stroke-width="3.4375" stroke-linecap="butt" stroke-linejoin="round" stroke-miterlimit="10" stroke-opacity="1" fill="#B3B3B3" fill-rule="nonzero" fill-opacity="1"/><path d="M4282.89 4163.61 4313.89 4163.61 4313.89 4194.61 4282.89 4194.61Z" stroke="#B3B3B3" stroke-width="3.4375" stroke-linecap="butt" stroke-linejoin="round" stroke-miterlimit="10" stroke-opacity="1" fill="#B3B3B3" fill-rule="nonzero" fill-opacity="1"/><path d="M4402.89 4185.61 4433.89 4185.61 4433.89 4216.61 4402.89 4216.61Z" stroke="#B3B3B3" stroke-width="3.4375" stroke-linecap="butt" stroke-linejoin="round" stroke-miterlimit="10" stroke-opacity="1" fill="#B3B3B3" fill-rule="nonzero" fill-opacity="1"/><path d="M4522.89 4209.61 4553.89 4209.61 4553.89 4240.61 4522.89 4240.61Z" stroke="#B3B3B3" stroke-width="3.4375" stroke-linecap="butt" stroke-linejoin="round" stroke-miterlimit="10" stroke-opacity="1" fill="#B3B3B3" fill-rule="nonzero" fill-opacity="1"/><path d="M4642.89 4231.61 4673.89 4231.61 4673.89 4262.61 4642.89 4262.61Z" stroke="#B3B3B3" stroke-width="3.4375" stroke-linecap="butt" stroke-linejoin="round" stroke-miterlimit="10" stroke-opacity="1" fill="#B3B3B3" fill-rule="nonzero" fill-opacity="1"/><path d="M4763.89 4251.61 4794.89 4251.61 4794.89 4282.61 4763.89 4282.61Z" stroke="#B3B3B3" stroke-width="3.4375" stroke-linecap="butt" stroke-linejoin="round" stroke-miterlimit="10" stroke-opacity="1" fill="#B3B3B3" fill-rule="nonzero" fill-opacity="1"/><path d="M4883.89 4267.61 4914.89 4267.61 4914.89 4298.61 4883.89 4298.61Z" stroke="#B3B3B3" stroke-width="3.4375" stroke-linecap="butt" stroke-linejoin="round" stroke-miterlimit="10" stroke-opacity="1" fill="#B3B3B3" fill-rule="nonzero" fill-opacity="1"/><path d="M5003.89 4284.61 5034.89 4284.61 5034.89 4315.61 5003.89 4315.61Z" stroke="#B3B3B3" stroke-width="3.4375" stroke-linecap="butt" stroke-linejoin="round" stroke-miterlimit="10" stroke-opacity="1" fill="#B3B3B3" fill-rule="nonzero" fill-opacity="1"/><path d="M5123.89 4298.61 5154.89 4298.61 5154.89 4329.61 5123.89 4329.61Z" stroke="#B3B3B3" stroke-width="3.4375" stroke-linecap="butt" stroke-linejoin="round" stroke-miterlimit="10" stroke-opacity="1" fill="#B3B3B3" fill-rule="nonzero" fill-opacity="1"/></g><g><path d="M3216 4754 3336.11 4701.15 3456.11 4657.15 3576.12 4627.15 3697.12 4611.15 3817.13 4587.15 3937.13 4572.15 4057.13 4564.15 4178.14 4561.15 4298.14 4561.15 4418.15 4557.15 4538.15 4556 4659.15 4558.15 4779.16 4558.15 4899.16 4558.15 5019.16 4559.15 5140 4561.15" stroke="#898989" stroke-width="10.3125" stroke-linecap="round" stroke-linejoin="round" stroke-miterlimit="10" stroke-opacity="1" fill="none" fill-rule="nonzero"/></g><g><path d="M3232.39 4770.11 3199.39 4737.11M3199.39 4770.11 3232.39 4737.11" stroke="#898989" stroke-width="3.4375" stroke-linecap="butt" stroke-linejoin="round" stroke-miterlimit="10" stroke-opacity="1" fill="none" fill-rule="nonzero"/><path d="M3353.39 4717.11 3320.39 4684.11M3320.39 4717.11 3353.39 4684.11" stroke="#898989" stroke-width="3.4375" stroke-linecap="butt" stroke-linejoin="round" stroke-miterlimit="10" stroke-opacity="1" fill="none" fill-rule="nonzero"/><path d="M3473.39 4674.11 3440.39 4641.11M3440.39 4674.11 3473.39 4641.11" stroke="#898989" stroke-width="3.4375" stroke-linecap="butt" stroke-linejoin="round" stroke-miterlimit="10" stroke-opacity="1" fill="none" fill-rule="nonzero"/><path d="M3593.39 4644.11 3560.39 4611.11M3560.39 4644.11 3593.39 4611.11" stroke="#898989" stroke-width="3.4375" stroke-linecap="butt" stroke-linejoin="round" stroke-miterlimit="10" stroke-opacity="1" fill="none" fill-rule="nonzero"/><path d="M3713.39 4627.11 3680.39 4594.11M3680.39 4627.11 3713.39 4594.11" stroke="#898989" stroke-width="3.4375" stroke-linecap="butt" stroke-linejoin="round" stroke-miterlimit="10" stroke-opacity="1" fill="none" fill-rule="nonzero"/><path d="M3834.39 4604.11 3801.39 4571.11M3801.39 4604.11 3834.39 4571.11" stroke="#898989" stroke-width="3.4375" stroke-linecap="butt" stroke-linejoin="round" stroke-miterlimit="10" stroke-opacity="1" fill="none" fill-rule="nonzero"/><path d="M3954.39 4589.11 3921.39 4556.11M3921.39 4589.11 3954.39 4556.11" stroke="#898989" stroke-width="3.4375" stroke-linecap="butt" stroke-linejoin="round" stroke-miterlimit="10" stroke-opacity="1" fill="none" fill-rule="nonzero"/><path d="M4074.39 4581.11 4041.39 4548.11M4041.39 4581.11 4074.39 4548.11" stroke="#898989" stroke-width="3.4375" stroke-linecap="butt" stroke-linejoin="round" stroke-miterlimit="10" stroke-opacity="1" fill="none" fill-rule="nonzero"/><path d="M4194.39 4577.11 4161.39 4544.11M4161.39 4577.11 4194.39 4544.11" stroke="#898989" stroke-width="3.4375" stroke-linecap="butt" stroke-linejoin="round" stroke-miterlimit="10" stroke-opacity="1" fill="none" fill-rule="nonzero"/><path d="M4315.39 4578.11 4282.39 4545.11M4282.39 4578.11 4315.39 4545.11" stroke="#898989" stroke-width="3.4375" stroke-linecap="butt" stroke-linejoin="round" stroke-miterlimit="10" stroke-opacity="1" fill="none" fill-rule="nonzero"/><path d="M4435.39 4574.11 4402.39 4541.11M4402.39 4574.11 4435.39 4541.11" stroke="#898989" stroke-width="3.4375" stroke-linecap="butt" stroke-linejoin="round" stroke-miterlimit="10" stroke-opacity="1" fill="none" fill-rule="nonzero"/><path d="M4555.39 4573.11 4522.39 4540.11M4522.39 4573.11 4555.39 4540.11" stroke="#898989" stroke-width="3.4375" stroke-linecap="butt" stroke-linejoin="round" stroke-miterlimit="10" stroke-opacity="1" fill="none" fill-rule="nonzero"/><path d="M4675.39 4575.11 4642.39 4542.11M4642.39 4575.11 4675.39 4542.11" stroke="#898989" stroke-width="3.4375" stroke-linecap="butt" stroke-linejoin="round" stroke-miterlimit="10" stroke-opacity="1" fill="none" fill-rule="nonzero"/><path d="M4796.39 4574.11 4763.39 4541.11M4763.39 4574.11 4796.39 4541.11" stroke="#898989" stroke-width="3.4375" stroke-linecap="butt" stroke-linejoin="round" stroke-miterlimit="10" stroke-opacity="1" fill="none" fill-rule="nonzero"/><path d="M4916.39 4574.11 4883.39 4541.11M4883.39 4574.11 4916.39 4541.11" stroke="#898989" stroke-width="3.4375" stroke-linecap="butt" stroke-linejoin="round" stroke-miterlimit="10" stroke-opacity="1" fill="none" fill-rule="nonzero"/><path d="M5036.39 4575.11 5003.39 4542.11M5003.39 4575.11 5036.39 4542.11" stroke="#898989" stroke-width="3.4375" stroke-linecap="butt" stroke-linejoin="round" stroke-miterlimit="10" stroke-opacity="1" fill="none" fill-rule="nonzero"/><path d="M5156.39 4577.11 5123.39 4544.11M5123.39 4577.11 5156.39 4544.11" stroke="#898989" stroke-width="3.4375" stroke-linecap="butt" stroke-linejoin="round" stroke-miterlimit="10" stroke-opacity="1" fill="none" fill-rule="nonzero"/></g><g><path d="M3216 4866 3336.11 4853.16 3456.11 4838.16 3576.12 4820.16 3697.12 4804.16 3817.13 4789.16 3937.13 4778.16 4057.13 4768.16 4178.14 4758.16 4298.14 4748.16 4418.15 4741.16 4538.15 4732.16 4659.15 4724.15 4779.16 4721.15 4899.16 4716.15 5019.16 4714.15 5140 4710" stroke="#212121" stroke-width="10.3125" stroke-linecap="round" stroke-linejoin="round" stroke-miterlimit="10" stroke-opacity="1" fill="none" fill-rule="nonzero"/></g><g><path d="M3232.39 4883.11 3199.39 4850.11M3215.89 4850.11 3215.89 4883.11M3199.39 4883.11 3232.39 4850.11" stroke="#212121" stroke-width="3.4375" stroke-linecap="butt" stroke-linejoin="round" stroke-miterlimit="10" stroke-opacity="1" fill="none" fill-rule="nonzero"/><path d="M3353.39 4870.11 3320.39 4837.11M3336.89 4837.11 3336.89 4870.11M3320.39 4870.11 3353.39 4837.11" stroke="#212121" stroke-width="3.4375" stroke-linecap="butt" stroke-linejoin="round" stroke-miterlimit="10" stroke-opacity="1" fill="none" fill-rule="nonzero"/><path d="M3473.39 4855.11 3440.39 4822.11M3456.89 4822.11 3456.89 4855.11M3440.39 4855.11 3473.39 4822.11" stroke="#212121" stroke-width="3.4375" stroke-linecap="butt" stroke-linejoin="round" stroke-miterlimit="10" stroke-opacity="1" fill="none" fill-rule="nonzero"/><path d="M3593.39 4837.11 3560.39 4804.11M3576.89 4804.11 3576.89 4837.11M3560.39 4837.11 3593.39 4804.11" stroke="#212121" stroke-width="3.4375" stroke-linecap="butt" stroke-linejoin="round" stroke-miterlimit="10" stroke-opacity="1" fill="none" fill-rule="nonzero"/><path d="M3713.39 4821.11 3680.39 4788.11M3696.89 4788.11 3696.89 4821.11M3680.39 4821.11 3713.39 4788.11" stroke="#212121" stroke-width="3.4375" stroke-linecap="butt" stroke-linejoin="round" stroke-miterlimit="10" stroke-opacity="1" fill="none" fill-rule="nonzero"/><path d="M3834.39 4805.11 3801.39 4772.11M3817.89 4772.11 3817.89 4805.11M3801.39 4805.11 3834.39 4772.11" stroke="#212121" stroke-width="3.4375" stroke-linecap="butt" stroke-linejoin="round" stroke-miterlimit="10" stroke-opacity="1" fill="none" fill-rule="nonzero"/><path d="M3954.39 4795.11 3921.39 4762.11M3937.89 4762.11 3937.89 4795.11M3921.39 4795.11 3954.39 4762.11" stroke="#212121" stroke-width="3.4375" stroke-linecap="butt" stroke-linejoin="round" stroke-miterlimit="10" stroke-opacity="1" fill="none" fill-rule="nonzero"/><path d="M4074.39 4784.11 4041.39 4751.11M4057.89 4751.11 4057.89 4784.11M4041.39 4784.11 4074.39 4751.11" stroke="#212121" stroke-width="3.4375" stroke-linecap="butt" stroke-linejoin="round" stroke-miterlimit="10" stroke-opacity="1" fill="none" fill-rule="nonzero"/><path d="M4194.39 4774.11 4161.39 4741.11M4177.89 4741.11 4177.89 4774.11M4161.39 4774.11 4194.39 4741.11" stroke="#212121" stroke-width="3.4375" stroke-linecap="butt" stroke-linejoin="round" stroke-miterlimit="10" stroke-opacity="1" fill="none" fill-rule="nonzero"/><path d="M4315.39 4764.11 4282.39 4731.11M4298.89 4731.11 4298.89 4764.11M4282.39 4764.11 4315.39 4731.11" stroke="#212121" stroke-width="3.4375" stroke-linecap="butt" stroke-linejoin="round" stroke-miterlimit="10" stroke-opacity="1" fill="none" fill-rule="nonzero"/><path d="M4435.39 4757.11 4402.39 4724.11M4418.89 4724.11 4418.89 4757.11M4402.39 4757.11 4435.39 4724.11" stroke="#212121" stroke-width="3.4375" stroke-linecap="butt" stroke-linejoin="round" stroke-miterlimit="10" stroke-opacity="1" fill="none" fill-rule="nonzero"/><path d="M4555.39 4749.11 4522.39 4716.11M4538.89 4716.11 4538.89 4749.11M4522.39 4749.11 4555.39 4716.11" stroke="#212121" stroke-width="3.4375" stroke-linecap="butt" stroke-linejoin="round" stroke-miterlimit="10" stroke-opacity="1" fill="none" fill-rule="nonzero"/><path d="M4675.39 4740.11 4642.39 4707.11M4658.89 4707.11 4658.89 4740.11M4642.39 4740.11 4675.39 4707.11" stroke="#212121" stroke-width="3.4375" stroke-linecap="butt" stroke-linejoin="round" stroke-miterlimit="10" stroke-opacity="1" fill="none" fill-rule="nonzero"/><path d="M4796.39 4737.11 4763.39 4704.11M4779.89 4704.11 4779.89 4737.11M4763.39 4737.11 4796.39 4704.11" stroke="#212121" stroke-width="3.4375" stroke-linecap="butt" stroke-linejoin="round" stroke-miterlimit="10" stroke-opacity="1" fill="none" fill-rule="nonzero"/><path d="M4916.39 4733.11 4883.39 4700.11M4899.89 4700.11 4899.89 4733.11M4883.39 4733.11 4916.39 4700.11" stroke="#212121" stroke-width="3.4375" stroke-linecap="butt" stroke-linejoin="round" stroke-miterlimit="10" stroke-opacity="1" fill="none" fill-rule="nonzero"/><path d="M5036.39 4731.11 5003.39 4698.11M5019.89 4698.11 5019.89 4731.11M5003.39 4731.11 5036.39 4698.11" stroke="#212121" stroke-width="3.4375" stroke-linecap="butt" stroke-linejoin="round" stroke-miterlimit="10" stroke-opacity="1" fill="none" fill-rule="nonzero"/><path d="M5156.39 4727.11 5123.39 4694.11M5139.89 4694.11 5139.89 4727.11M5123.39 4727.11 5156.39 4694.11" stroke="#212121" stroke-width="3.4375" stroke-linecap="butt" stroke-linejoin="round" stroke-miterlimit="10" stroke-opacity="1" fill="none" fill-rule="nonzero"/></g><g><text fill="#595959" fill-opacity="1" font-family="NanumMyeongjo,NanumMyeongjo_MSFontService,sans-serif" font-style="normal" font-variant="normal" font-weight="400" font-stretch="normal" font-size="46" text-anchor="start" direction="ltr" writing-mode="lr-tb" unicode-bidi="normal" text-decoration="none" transform="matrix(1 0 0 1 2979.68 4909)">0.0000</text></g><g><text fill="#595959" fill-opacity="1" font-family="NanumMyeongjo,NanumMyeongjo_MSFontService,sans-serif" font-style="normal" font-variant="normal" font-weight="400" font-stretch="normal" font-size="46" text-anchor="start" direction="ltr" writing-mode="lr-tb" unicode-bidi="normal" text-decoration="none" transform="matrix(1 0 0 1 2979.68 4731)">0.0200</text></g><g><text fill="#595959" fill-opacity="1" font-family="NanumMyeongjo,NanumMyeongjo_MSFontService,sans-serif" font-style="normal" font-variant="normal" font-weight="400" font-stretch="normal" font-size="46" text-anchor="start" direction="ltr" writing-mode="lr-tb" unicode-bidi="normal" text-decoration="none" transform="matrix(1 0 0 1 2979.68 4553)">0.0400</text></g><g><text fill="#595959" fill-opacity="1" font-family="NanumMyeongjo,NanumMyeongjo_MSFontService,sans-serif" font-style="normal" font-variant="normal" font-weight="400" font-stretch="normal" font-size="46" text-anchor="start" direction="ltr" writing-mode="lr-tb" unicode-bidi="normal" text-decoration="none" transform="matrix(1 0 0 1 2979.68 4375)">0.0600</text></g><g><text fill="#595959" fill-opacity="1" font-family="NanumMyeongjo,NanumMyeongjo_MSFontService,sans-serif" font-style="normal" font-variant="normal" font-weight="400" font-stretch="normal" font-size="46" text-anchor="start" direction="ltr" writing-mode="lr-tb" unicode-bidi="normal" text-decoration="none" transform="matrix(1 0 0 1 2979.68 4197)">0.0800</text></g><g><text fill="#595959" fill-opacity="1" font-family="NanumMyeongjo,NanumMyeongjo_MSFontService,sans-serif" font-style="normal" font-variant="normal" font-weight="400" font-stretch="normal" font-size="46" text-anchor="start" direction="ltr" writing-mode="lr-tb" unicode-bidi="normal" text-decoration="none" transform="matrix(1 0 0 1 2979.68 4019)">0.1000</text></g><g><text fill="#595959" fill-opacity="1" font-family="NanumMyeongjo,NanumMyeongjo_MSFontService,sans-serif" font-style="normal" font-variant="normal" font-weight="400" font-stretch="normal" font-size="46" text-anchor="start" direction="ltr" writing-mode="lr-tb" unicode-bidi="normal" text-decoration="none" transform="matrix(1 0 0 1 2979.68 3841)">0.1200</text></g><g><text fill="#595959" fill-opacity="1" font-family="NanumMyeongjo,NanumMyeongjo_MSFontService,sans-serif" font-style="normal" font-variant="normal" font-weight="400" font-stretch="normal" font-size="46" text-anchor="start" direction="ltr" writing-mode="lr-tb" unicode-bidi="normal" text-decoration="none" transform="matrix(1 0 0 1 3203.52 4964)">3</text></g><g><text fill="#595959" fill-opacity="1" font-family="NanumMyeongjo,NanumMyeongjo_MSFontService,sans-serif" font-style="normal" font-variant="normal" font-weight="400" font-stretch="normal" font-size="46" text-anchor="start" direction="ltr" writing-mode="lr-tb" unicode-bidi="normal" text-decoration="none" transform="matrix(1 0 0 1 3323.78 4964)">5</text></g><g><text fill="#595959" fill-opacity="1" font-family="NanumMyeongjo,NanumMyeongjo_MSFontService,sans-serif" font-style="normal" font-variant="normal" font-weight="400" font-stretch="normal" font-size="46" text-anchor="start" direction="ltr" writing-mode="lr-tb" unicode-bidi="normal" text-decoration="none" transform="matrix(1 0 0 1 3444.03 4964)">7</text></g><g><text fill="#595959" fill-opacity="1" font-family="NanumMyeongjo,NanumMyeongjo_MSFontService,sans-serif" font-style="normal" font-variant="normal" font-weight="400" font-stretch="normal" font-size="46" text-anchor="start" direction="ltr" writing-mode="lr-tb" unicode-bidi="normal" text-decoration="none" transform="matrix(1 0 0 1 3564.29 4964)">9</text></g><g><text fill="#595959" fill-opacity="1" font-family="NanumMyeongjo,NanumMyeongjo_MSFontService,sans-serif" font-style="normal" font-variant="normal" font-weight="400" font-stretch="normal" font-size="46" text-anchor="start" direction="ltr" writing-mode="lr-tb" unicode-bidi="normal" text-decoration="none" transform="matrix(1 0 0 1 3672.24 4964)">11</text></g><g><text fill="#595959" fill-opacity="1" font-family="NanumMyeongjo,NanumMyeongjo_MSFontService,sans-serif" font-style="normal" font-variant="normal" font-weight="400" font-stretch="normal" font-size="46" text-anchor="start" direction="ltr" writing-mode="lr-tb" unicode-bidi="normal" text-decoration="none" transform="matrix(1 0 0 1 3792.49 4964)">13</text></g><g><text fill="#595959" fill-opacity="1" font-family="NanumMyeongjo,NanumMyeongjo_MSFontService,sans-serif" font-style="normal" font-variant="normal" font-weight="400" font-stretch="normal" font-size="46" text-anchor="start" direction="ltr" writing-mode="lr-tb" unicode-bidi="normal" text-decoration="none" transform="matrix(1 0 0 1 3912.75 4964)">15</text></g><g><text fill="#595959" fill-opacity="1" font-family="NanumMyeongjo,NanumMyeongjo_MSFontService,sans-serif" font-style="normal" font-variant="normal" font-weight="400" font-stretch="normal" font-size="46" text-anchor="start" direction="ltr" writing-mode="lr-tb" unicode-bidi="normal" text-decoration="none" transform="matrix(1 0 0 1 4033 4964)">17</text></g><g><text fill="#595959" fill-opacity="1" font-family="NanumMyeongjo,NanumMyeongjo_MSFontService,sans-serif" font-style="normal" font-variant="normal" font-weight="400" font-stretch="normal" font-size="46" text-anchor="start" direction="ltr" writing-mode="lr-tb" unicode-bidi="normal" text-decoration="none" transform="matrix(1 0 0 1 4153.26 4964)">19</text></g><g><text fill="#595959" fill-opacity="1" font-family="NanumMyeongjo,NanumMyeongjo_MSFontService,sans-serif" font-style="normal" font-variant="normal" font-weight="400" font-stretch="normal" font-size="46" text-anchor="start" direction="ltr" writing-mode="lr-tb" unicode-bidi="normal" text-decoration="none" transform="matrix(1 0 0 1 4273.52 4964)">21</text></g><g><text fill="#595959" fill-opacity="1" font-family="NanumMyeongjo,NanumMyeongjo_MSFontService,sans-serif" font-style="normal" font-variant="normal" font-weight="400" font-stretch="normal" font-size="46" text-anchor="start" direction="ltr" writing-mode="lr-tb" unicode-bidi="normal" text-decoration="none" transform="matrix(1 0 0 1 4393.77 4964)">23</text></g><g><text fill="#595959" fill-opacity="1" font-family="NanumMyeongjo,NanumMyeongjo_MSFontService,sans-serif" font-style="normal" font-variant="normal" font-weight="400" font-stretch="normal" font-size="46" text-anchor="start" direction="ltr" writing-mode="lr-tb" unicode-bidi="normal" text-decoration="none" transform="matrix(1 0 0 1 4514.03 4964)">25</text></g><g><text fill="#595959" fill-opacity="1" font-family="NanumMyeongjo,NanumMyeongjo_MSFontService,sans-serif" font-style="normal" font-variant="normal" font-weight="400" font-stretch="normal" font-size="46" text-anchor="start" direction="ltr" writing-mode="lr-tb" unicode-bidi="normal" text-decoration="none" transform="matrix(1 0 0 1 4634.28 4964)">27</text></g><g><text fill="#595959" fill-opacity="1" font-family="NanumMyeongjo,NanumMyeongjo_MSFontService,sans-serif" font-style="normal" font-variant="normal" font-weight="400" font-stretch="normal" font-size="46" text-anchor="start" direction="ltr" writing-mode="lr-tb" unicode-bidi="normal" text-decoration="none" transform="matrix(1 0 0 1 4754.54 4964)">29</text></g><g><text fill="#595959" fill-opacity="1" font-family="NanumMyeongjo,NanumMyeongjo_MSFontService,sans-serif" font-style="normal" font-variant="normal" font-weight="400" font-stretch="normal" font-size="46" text-anchor="start" direction="ltr" writing-mode="lr-tb" unicode-bidi="normal" text-decoration="none" transform="matrix(1 0 0 1 4874.79 4964)">31</text></g><g><text fill="#595959" fill-opacity="1" font-family="NanumMyeongjo,NanumMyeongjo_MSFontService,sans-serif" font-style="normal" font-variant="normal" font-weight="400" font-stretch="normal" font-size="46" text-anchor="start" direction="ltr" writing-mode="lr-tb" unicode-bidi="normal" text-decoration="none" transform="matrix(1 0 0 1 4995.05 4964)">33</text></g><g><text fill="#595959" fill-opacity="1" font-family="NanumMyeongjo,NanumMyeongjo_MSFontService,sans-serif" font-style="normal" font-variant="normal" font-weight="400" font-stretch="normal" font-size="46" text-anchor="start" direction="ltr" writing-mode="lr-tb" unicode-bidi="normal" text-decoration="none" transform="matrix(1 0 0 1 5115.31 4964)">35</text></g><g><text fill="#595959" fill-opacity="1" font-family="NanumMyeongjo,NanumMyeongjo_MSFontService,sans-serif" font-style="normal" font-variant="normal" font-weight="400" font-stretch="normal" font-size="55" text-anchor="start" direction="ltr" writing-mode="lr-tb" unicode-bidi="normal" text-decoration="none" transform="matrix(6.12323e-17 -1 1 6.12323e-17 2943.68 4465)">f1 scores</text></g><g><text fill="#595959" fill-opacity="1" font-family="NanumMyeongjo,NanumMyeongjo_MSFontService,sans-serif" font-style="normal" font-variant="normal" font-weight="400" font-stretch="normal" font-size="55" text-anchor="start" direction="ltr" writing-mode="lr-tb" unicode-bidi="normal" text-decoration="none" transform="matrix(1 0 0 1 4090.55 5049)">Top</text></g><g><text fill="#595959" fill-opacity="1" font-family="NanumMyeongjo,NanumMyeongjo_MSFontService,sans-serif" font-style="normal" font-variant="normal" font-weight="400" font-stretch="normal" font-size="55" text-anchor="start" direction="ltr" writing-mode="lr-tb" unicode-bidi="normal" text-decoration="none" transform="matrix(1 0 0 1 4183.61 5049)">-</text></g><g><text fill="#595959" fill-opacity="1" font-family="NanumMyeongjo,NanumMyeongjo_MSFontService,sans-serif" font-style="normal" font-variant="normal" font-weight="400" font-stretch="normal" font-size="55" text-anchor="start" direction="ltr" writing-mode="lr-tb" unicode-bidi="normal" text-decoration="none" transform="matrix(1 0 0 1 4218.74 5049)">N</text></g><g><text fill="#595959" fill-opacity="1" font-family="NanumMyeongjo,NanumMyeongjo_MSFontService,sans-serif" font-style="normal" font-variant="normal" font-weight="400" font-stretch="normal" font-size="66" text-anchor="start" direction="ltr" writing-mode="lr-tb" unicode-bidi="normal" text-decoration="none" transform="matrix(1 0 0 1 3974.72 3742)">likes</text></g><g><path d="M3463 5173 3551 5173" stroke="#5F5F5F" stroke-width="10.3125" stroke-linecap="round" stroke-linejoin="round" stroke-miterlimit="10" stroke-opacity="1" fill="none" fill-rule="evenodd"/></g><g><path d="M3523 5172.5C3523 5181.06 3516.06 5188 3507.5 5188 3498.94 5188 3492 5181.06 3492 5172.5 3492 5163.94 3498.94 5157 3507.5 5157 3516.06 5157 3523 5163.94 3523 5172.5Z" stroke="#5F5F5F" stroke-width="3.4375" stroke-linecap="butt" stroke-linejoin="round" stroke-miterlimit="10" stroke-opacity="1" fill="#5F5F5F" fill-rule="nonzero" fill-opacity="1"/></g><g><text fill="#595959" fill-opacity="1" font-family="NanumMyeongjo,NanumMyeongjo_MSFontService,sans-serif" font-style="normal" font-variant="normal" font-weight="400" font-stretch="normal" font-size="55" text-anchor="start" direction="ltr" writing-mode="lr-tb" unicode-bidi="normal" text-decoration="none" transform="matrix(1 0 0 1 3560.28 5192)">IBCF</text></g><g><path d="M3737 5173 3825 5173" stroke="#B3B3B3" stroke-width="10.3125" stroke-linecap="round" stroke-linejoin="round" stroke-miterlimit="10" stroke-opacity="1" fill="none" fill-rule="evenodd"/></g><g><path d="M3764.62 5157.67 3795.62 5157.67 3795.62 5188.67 3764.62 5188.67Z" stroke="#B3B3B3" stroke-width="3.4375" stroke-linecap="butt" stroke-linejoin="round" stroke-miterlimit="10" stroke-opacity="1" fill="#B3B3B3" fill-rule="nonzero" fill-opacity="1"/></g><g><text fill="#595959" fill-opacity="1" font-family="NanumMyeongjo,NanumMyeongjo_MSFontService,sans-serif" font-style="normal" font-variant="normal" font-weight="400" font-stretch="normal" font-size="55" text-anchor="start" direction="ltr" writing-mode="lr-tb" unicode-bidi="normal" text-decoration="none" transform="matrix(1 0 0 1 3834.17 5192)">NMF</text></g><g><path d="M4022 5173 4110 5173" stroke="#898989" stroke-width="10.3125" stroke-linecap="round" stroke-linejoin="round" stroke-miterlimit="10" stroke-opacity="1" fill="none" fill-rule="evenodd"/></g><g><path d="M4082.5 5189.5 4050.5 5156.5M4050.5 5189.5 4082.5 5156.5" stroke="#898989" stroke-width="3.4375" stroke-linecap="butt" stroke-linejoin="round" stroke-miterlimit="10" stroke-opacity="1" fill="none" fill-rule="nonzero"/></g><g><text fill="#595959" fill-opacity="1" font-family="NanumMyeongjo,NanumMyeongjo_MSFontService,sans-serif" font-style="normal" font-variant="normal" font-weight="400" font-stretch="normal" font-size="55" text-anchor="start" direction="ltr" writing-mode="lr-tb" unicode-bidi="normal" text-decoration="none" transform="matrix(1 0 0 1 4119.34 5192)">Rev1</text></g><g><path d="M4296 5173 4384 5173" stroke="#212121" stroke-width="10.3125" stroke-linecap="round" stroke-linejoin="round" stroke-miterlimit="10" stroke-opacity="1" fill="none" fill-rule="evenodd"/></g><g><path d="M4355.5 5189.5 4323.5 5156.5M4339.64 5156.5 4339.64 5189.5M4323.5 5189.5 4355.5 5156.5" stroke="#212121" stroke-width="3.4375" stroke-linecap="butt" stroke-linejoin="round" stroke-miterlimit="10" stroke-opacity="1" fill="none" fill-rule="nonzero"/></g><g><text fill="#595959" fill-opacity="1" font-family="NanumMyeongjo,NanumMyeongjo_MSFontService,sans-serif" font-style="normal" font-variant="normal" font-weight="400" font-stretch="normal" font-size="55" text-anchor="start" direction="ltr" writing-mode="lr-tb" unicode-bidi="normal" text-decoration="none" transform="matrix(1 0 0 1 4393.11 5192)">Rev4Ver1</text></g><rect x="2826.5" y="3636.5" width="2424" height="1610" stroke="#D9D9D9" stroke-width="3.4375" stroke-linecap="butt" stroke-linejoin="round" stroke-miterlimit="10" stroke-opacity="1" fill="none"/></g></g></svg>