<svg width="2429" height="1618" xmlns="http://www.w3.org/2000/svg" xmlns:xlink="http://www.w3.org/1999/xlink" xml:space="preserve" overflow="hidden"><defs><clipPath id="clip0"><rect x="5591" y="3634" width="2429" height="1618"/></clipPath><clipPath id="clip1"><rect x="5591" y="3634" width="2429" height="1618"/></clipPath></defs><g clip-path="url(#clip0)" transform="translate(-5591 -3634)"><g clip-path="url(#clip1)"><rect x="5597" y="3636" width="2419" height="1610" fill="#FFFFFF" fill-opacity="1"/><g><path d="M5926.5 4858.66 7965.5 4858.66M5926.5 4822.66 7965.5 4822.66M5926.5 4787.66 7965.5 4787.66M5926.5 4751.66 7965.5 4751.66M5926.5 4680.65 7965.5 4680.65M5926.5 4644.65 7965.5 4644.65M5926.5 4609.65 7965.5 4609.65M5926.5 4573.65 7965.5 4573.65M5926.5 4502.65 7965.5 4502.65M5926.5 4466.65 7965.5 4466.65M5926.5 4431.65 7965.5 4431.65M5926.5 4395.64 7965.5 4395.64M5926.5 4324.64 7965.5 4324.64M5926.5 4288.64 7965.5 4288.64M5926.5 4253.64 7965.5 4253.64M5926.5 4217.64 7965.5 4217.64M5926.5 4146.64 7965.5 4146.64M5926.5 4111.64 7965.5 4111.64M5926.5 4075.63 7965.5 4075.63M5926.5 4039.63 7965.5 4039.63M5926.5 3968.63 7965.5 3968.63M5926.5 3933.63 7965.5 3933.63M5926.5 3897.63 7965.5 3897.63M5926.5 3861.63 7965.5 3861.63" stroke="#F2F2F2" stroke-width="3.4375" stroke-linecap="butt" stroke-linejoin="round" stroke-miterlimit="10" stroke-opacity="1" fill="none" fill-rule="nonzero"/></g><g><path d="M5926.5 4715.65 7965.5 4715.65M5926.5 4538.65 7965.5 4538.65M5926.5 4360.64 7965.5 4360.64M5926.5 4182.64 7965.5 4182.64M5926.5 4004.63 7965.5 4004.63M5926.5 3826.5 7965.5 3826.5" stroke="#D9D9D9" stroke-width="3.4375" stroke-linecap="butt" stroke-linejoin="round" stroke-miterlimit="10" stroke-opacity="1" fill="none" fill-rule="nonzero"/></g><g><path d="M5926.5 3826.5 5926.5 4894.5M6045.7 3826.5 6045.7 4894.5M6165.7 3826.5 6165.7 4894.5M6285.71 3826.5 6285.71 4894.5M6405.71 3826.5 6405.71 4894.5M6525.71 3826.5 6525.71 4894.5M6645.72 3826.5 6645.72 4894.5M6765.72 3826.5 6765.72 4894.5M6885.73 3826.5 6885.73 4894.5M7005.73 3826.5 7005.73 4894.5M7125.73 3826.5 7125.73 4894.5M7245.74 3826.5 7245.74 4894.5M7365.74 3826.5 7365.74 4894.5M7485.75 3826.5 7485.75 4894.5M7605.75 3826.5 7605.75 4894.5M7725.75 3826.5 7725.75 4894.5M7845.76 3826.5 7845.76 4894.5M7965.5 3826.5 7965.5 4894.5" stroke="#D9D9D9" stroke-width="3.4375" stroke-linecap="butt" stroke-linejoin="round" stroke-miterlimit="10" stroke-opacity="1" fill="none" fill-rule="nonzero"/></g><g><path d="M5926.5 4894.5 7965.5 4894.5" stroke="#D9D9D9" stroke-width="3.4375" stroke-linecap="butt" stroke-linejoin="round" stroke-miterlimit="10" stroke-opacity="1" fill="none" fill-rule="evenodd"/></g><g><path d="M5986 4606 6106.2 4645.15 6226.2 4670.15 6346.21 4688.15 6466.21 4706.15 6586.22 4718.15 6706.22 4725.16 6826.22 4741.16 6946.23 4743.16 7066.23 4742.16 7186.24 4728.16 7306.24 4726.16 7426.24 4737.16 7546.25 4747.16 7666.25 4755.16 7786.26 4762.16 7906 4769" stroke="#5F5F5F" stroke-width="10.3125" stroke-linecap="round" stroke-linejoin="round" stroke-miterlimit="10" stroke-opacity="1" fill="none" fill-rule="nonzero"/></g><g><path d="M6001.26 4605.11C6001.26 4613.67 5994.32 4620.61 5985.76 4620.61 5977.2 4620.61 5970.26 4613.67 5970.26 4605.11 5970.26 4596.55 5977.2 4589.61 5985.76 4589.61 5994.32 4589.61 6001.26 4596.55 6001.26 4605.11Z" stroke="#5F5F5F" stroke-width="3.4375" stroke-linecap="butt" stroke-linejoin="round" stroke-miterlimit="10" stroke-opacity="1" fill="#5F5F5F" fill-rule="nonzero" fill-opacity="1"/><path d="M6121.26 4645.11C6121.26 4653.67 6114.32 4660.61 6105.76 4660.61 6097.2 4660.61 6090.26 4653.67 6090.26 4645.11 6090.26 4636.55 6097.2 4629.61 6105.76 4629.61 6114.32 4629.61 6121.26 4636.55 6121.26 4645.11Z" stroke="#5F5F5F" stroke-width="3.4375" stroke-linecap="butt" stroke-linejoin="round" stroke-miterlimit="10" stroke-opacity="1" fill="#5F5F5F" fill-rule="nonzero" fill-opacity="1"/><path d="M6241.26 4670.11C6241.26 4678.67 6234.32 4685.61 6225.76 4685.61 6217.2 4685.61 6210.26 4678.67 6210.26 4670.11 6210.26 4661.55 6217.2 4654.61 6225.76 4654.61 6234.32 4654.61 6241.26 4661.55 6241.26 4670.11Z" stroke="#5F5F5F" stroke-width="3.4375" stroke-linecap="butt" stroke-linejoin="round" stroke-miterlimit="10" stroke-opacity="1" fill="#5F5F5F" fill-rule="nonzero" fill-opacity="1"/><path d="M6361.26 4688.11C6361.26 4696.67 6354.32 4703.61 6345.76 4703.61 6337.2 4703.61 6330.26 4696.67 6330.26 4688.11 6330.26 4679.55 6337.2 4672.61 6345.76 4672.61 6354.32 4672.61 6361.26 4679.55 6361.26 4688.11Z" stroke="#5F5F5F" stroke-width="3.4375" stroke-linecap="butt" stroke-linejoin="round" stroke-miterlimit="10" stroke-opacity="1" fill="#5F5F5F" fill-rule="nonzero" fill-opacity="1"/><path d="M6481.26 4706.11C6481.26 4714.67 6474.32 4721.61 6465.76 4721.61 6457.2 4721.61 6450.26 4714.67 6450.26 4706.11 6450.26 4697.55 6457.2 4690.61 6465.76 4690.61 6474.32 4690.61 6481.26 4697.55 6481.26 4706.11Z" stroke="#5F5F5F" stroke-width="3.4375" stroke-linecap="butt" stroke-linejoin="round" stroke-miterlimit="10" stroke-opacity="1" fill="#5F5F5F" fill-rule="nonzero" fill-opacity="1"/><path d="M6600.26 4717.11C6600.26 4725.67 6593.32 4732.61 6584.76 4732.61 6576.2 4732.61 6569.26 4725.67 6569.26 4717.11 6569.26 4708.55 6576.2 4701.61 6584.76 4701.61 6593.32 4701.61 6600.26 4708.55 6600.26 4717.11Z" stroke="#5F5F5F" stroke-width="3.4375" stroke-linecap="butt" stroke-linejoin="round" stroke-miterlimit="10" stroke-opacity="1" fill="#5F5F5F" fill-rule="nonzero" fill-opacity="1"/><path d="M6720.26 4724.11C6720.26 4732.67 6713.32 4739.61 6704.76 4739.61 6696.2 4739.61 6689.26 4732.67 6689.26 4724.11 6689.26 4715.55 6696.2 4708.61 6704.76 4708.61 6713.32 4708.61 6720.26 4715.55 6720.26 4724.11Z" stroke="#5F5F5F" stroke-width="3.4375" stroke-linecap="butt" stroke-linejoin="round" stroke-miterlimit="10" stroke-opacity="1" fill="#5F5F5F" fill-rule="nonzero" fill-opacity="1"/><path d="M6840.26 4740.11C6840.26 4748.67 6833.32 4755.61 6824.76 4755.61 6816.2 4755.61 6809.26 4748.67 6809.26 4740.11 6809.26 4731.55 6816.2 4724.61 6824.76 4724.61 6833.32 4724.61 6840.26 4731.55 6840.26 4740.11Z" stroke="#5F5F5F" stroke-width="3.4375" stroke-linecap="butt" stroke-linejoin="round" stroke-miterlimit="10" stroke-opacity="1" fill="#5F5F5F" fill-rule="nonzero" fill-opacity="1"/><path d="M6960.26 4743.11C6960.26 4751.67 6953.32 4758.61 6944.76 4758.61 6936.2 4758.61 6929.26 4751.67 6929.26 4743.11 6929.26 4734.55 6936.2 4727.61 6944.76 4727.61 6953.32 4727.61 6960.26 4734.55 6960.26 4743.11Z" stroke="#5F5F5F" stroke-width="3.4375" stroke-linecap="butt" stroke-linejoin="round" stroke-miterlimit="10" stroke-opacity="1" fill="#5F5F5F" fill-rule="nonzero" fill-opacity="1"/><path d="M7080.26 4741.11C7080.26 4749.67 7073.32 4756.61 7064.76 4756.61 7056.2 4756.61 7049.26 4749.67 7049.26 4741.11 7049.26 4732.55 7056.2 4725.61 7064.76 4725.61 7073.32 4725.61 7080.26 4732.55 7080.26 4741.11Z" stroke="#5F5F5F" stroke-width="3.4375" stroke-linecap="butt" stroke-linejoin="round" stroke-miterlimit="10" stroke-opacity="1" fill="#5F5F5F" fill-rule="nonzero" fill-opacity="1"/><path d="M7200.26 4728.11C7200.26 4736.67 7193.32 4743.61 7184.76 4743.61 7176.2 4743.61 7169.26 4736.67 7169.26 4728.11 7169.26 4719.55 7176.2 4712.61 7184.76 4712.61 7193.32 4712.61 7200.26 4719.55 7200.26 4728.11Z" stroke="#5F5F5F" stroke-width="3.4375" stroke-linecap="butt" stroke-linejoin="round" stroke-miterlimit="10" stroke-opacity="1" fill="#5F5F5F" fill-rule="nonzero" fill-opacity="1"/><path d="M7320.26 4726.11C7320.26 4734.67 7313.32 4741.61 7304.76 4741.61 7296.2 4741.61 7289.26 4734.67 7289.26 4726.11 7289.26 4717.55 7296.2 4710.61 7304.76 4710.61 7313.32 4710.61 7320.26 4717.55 7320.26 4726.11Z" stroke="#5F5F5F" stroke-width="3.4375" stroke-linecap="butt" stroke-linejoin="round" stroke-miterlimit="10" stroke-opacity="1" fill="#5F5F5F" fill-rule="nonzero" fill-opacity="1"/><path d="M7440.26 4736.11C7440.26 4744.67 7433.32 4751.61 7424.76 4751.61 7416.2 4751.61 7409.26 4744.67 7409.26 4736.11 7409.26 4727.55 7416.2 4720.61 7424.76 4720.61 7433.32 4720.61 7440.26 4727.55 7440.26 4736.11Z" stroke="#5F5F5F" stroke-width="3.4375" stroke-linecap="butt" stroke-linejoin="round" stroke-miterlimit="10" stroke-opacity="1" fill="#5F5F5F" fill-rule="nonzero" fill-opacity="1"/><path d="M7560.26 4746.11C7560.26 4754.67 7553.32 4761.61 7544.76 4761.61 7536.2 4761.61 7529.26 4754.67 7529.26 4746.11 7529.26 4737.55 7536.2 4730.61 7544.76 4730.61 7553.32 4730.61 7560.26 4737.55 7560.26 4746.11Z" stroke="#5F5F5F" stroke-width="3.4375" stroke-linecap="butt" stroke-linejoin="round" stroke-miterlimit="10" stroke-opacity="1" fill="#5F5F5F" fill-rule="nonzero" fill-opacity="1"/><path d="M7680.26 4754.11C7680.26 4762.67 7673.32 4769.61 7664.76 4769.61 7656.2 4769.61 7649.26 4762.67 7649.26 4754.11 7649.26 4745.55 7656.2 4738.61 7664.76 4738.61 7673.32 4738.61 7680.26 4745.55 7680.26 4754.11Z" stroke="#5F5F5F" stroke-width="3.4375" stroke-linecap="butt" stroke-linejoin="round" stroke-miterlimit="10" stroke-opacity="1" fill="#5F5F5F" fill-rule="nonzero" fill-opacity="1"/><path d="M7800.26 4762.11C7800.26 4770.67 7793.32 4777.61 7784.76 4777.61 7776.2 4777.61 7769.26 4770.67 7769.26 4762.11 7769.26 4753.55 7776.2 4746.61 7784.76 4746.61 7793.32 4746.61 7800.26 4753.55 7800.26 4762.11Z" stroke="#5F5F5F" stroke-width="3.4375" stroke-linecap="butt" stroke-linejoin="round" stroke-miterlimit="10" stroke-opacity="1" fill="#5F5F5F" fill-rule="nonzero" fill-opacity="1"/><path d="M7920.26 4768.11C7920.26 4776.67 7913.32 4783.61 7904.76 4783.61 7896.2 4783.61 7889.26 4776.67 7889.26 4768.11 7889.26 4759.55 7896.2 4752.61 7904.76 4752.61 7913.32 4752.61 7920.26 4759.55 7920.26 4768.11Z" stroke="#5F5F5F" stroke-width="3.4375" stroke-linecap="butt" stroke-linejoin="round" stroke-miterlimit="10" stroke-opacity="1" fill="#5F5F5F" fill-rule="nonzero" fill-opacity="1"/></g><g><path d="M5986 4016 6106.2 4262.14 6226.2 4407.14 6346.21 4499.15 6466.21 4562.15 6586.22 4605.15 6706.22 4639.15 6826.22 4665.15 6946.23 4687.15 7066.23 4705.15 7186.24 4720.15 7306.24 4731.16 7426.24 4741.16 7546.25 4750.16 7666.25 4758.16 7786.26 4765.16 7906 4771" stroke="#B3B3B3" stroke-width="10.3125" stroke-linecap="round" stroke-linejoin="round" stroke-miterlimit="10" stroke-opacity="1" fill="none" fill-rule="nonzero"/></g><g><path d="M5970.26 4000.61 6001.26 4000.61 6001.26 4031.61 5970.26 4031.61Z" stroke="#B3B3B3" stroke-width="3.4375" stroke-linecap="butt" stroke-linejoin="round" stroke-miterlimit="10" stroke-opacity="1" fill="#B3B3B3" fill-rule="nonzero" fill-opacity="1"/><path d="M6090.26 4246.61 6121.26 4246.61 6121.26 4277.61 6090.26 4277.61Z" stroke="#B3B3B3" stroke-width="3.4375" stroke-linecap="butt" stroke-linejoin="round" stroke-miterlimit="10" stroke-opacity="1" fill="#B3B3B3" fill-rule="nonzero" fill-opacity="1"/><path d="M6210.26 4391.61 6241.26 4391.61 6241.26 4422.61 6210.26 4422.61Z" stroke="#B3B3B3" stroke-width="3.4375" stroke-linecap="butt" stroke-linejoin="round" stroke-miterlimit="10" stroke-opacity="1" fill="#B3B3B3" fill-rule="nonzero" fill-opacity="1"/><path d="M6330.26 4482.61 6361.26 4482.61 6361.26 4513.61 6330.26 4513.61Z" stroke="#B3B3B3" stroke-width="3.4375" stroke-linecap="butt" stroke-linejoin="round" stroke-miterlimit="10" stroke-opacity="1" fill="#B3B3B3" fill-rule="nonzero" fill-opacity="1"/><path d="M6450.26 4546.61 6481.26 4546.61 6481.26 4577.61 6450.26 4577.61Z" stroke="#B3B3B3" stroke-width="3.4375" stroke-linecap="butt" stroke-linejoin="round" stroke-miterlimit="10" stroke-opacity="1" fill="#B3B3B3" fill-rule="nonzero" fill-opacity="1"/><path d="M6569.26 4589.61 6600.26 4589.61 6600.26 4620.61 6569.26 4620.61Z" stroke="#B3B3B3" stroke-width="3.4375" stroke-linecap="butt" stroke-linejoin="round" stroke-miterlimit="10" stroke-opacity="1" fill="#B3B3B3" fill-rule="nonzero" fill-opacity="1"/><path d="M6689.26 4623.61 6720.26 4623.61 6720.26 4654.61 6689.26 4654.61Z" stroke="#B3B3B3" stroke-width="3.4375" stroke-linecap="butt" stroke-linejoin="round" stroke-miterlimit="10" stroke-opacity="1" fill="#B3B3B3" fill-rule="nonzero" fill-opacity="1"/><path d="M6809.26 4649.61 6840.26 4649.61 6840.26 4680.61 6809.26 4680.61Z" stroke="#B3B3B3" stroke-width="3.4375" stroke-linecap="butt" stroke-linejoin="round" stroke-miterlimit="10" stroke-opacity="1" fill="#B3B3B3" fill-rule="nonzero" fill-opacity="1"/><path d="M6929.26 4671.61 6960.26 4671.61 6960.26 4702.61 6929.26 4702.61Z" stroke="#B3B3B3" stroke-width="3.4375" stroke-linecap="butt" stroke-linejoin="round" stroke-miterlimit="10" stroke-opacity="1" fill="#B3B3B3" fill-rule="nonzero" fill-opacity="1"/><path d="M7049.26 4689.61 7080.26 4689.61 7080.26 4720.61 7049.26 4720.61Z" stroke="#B3B3B3" stroke-width="3.4375" stroke-linecap="butt" stroke-linejoin="round" stroke-miterlimit="10" stroke-opacity="1" fill="#B3B3B3" fill-rule="nonzero" fill-opacity="1"/><path d="M7169.26 4703.61 7200.26 4703.61 7200.26 4734.61 7169.26 4734.61Z" stroke="#B3B3B3" stroke-width="3.4375" stroke-linecap="butt" stroke-linejoin="round" stroke-miterlimit="10" stroke-opacity="1" fill="#B3B3B3" fill-rule="nonzero" fill-opacity="1"/><path d="M7289.26 4714.61 7320.26 4714.61 7320.26 4745.61 7289.26 4745.61Z" stroke="#B3B3B3" stroke-width="3.4375" stroke-linecap="butt" stroke-linejoin="round" stroke-miterlimit="10" stroke-opacity="1" fill="#B3B3B3" fill-rule="nonzero" fill-opacity="1"/><path d="M7409.26 4725.61 7440.26 4725.61 7440.26 4756.61 7409.26 4756.61Z" stroke="#B3B3B3" stroke-width="3.4375" stroke-linecap="butt" stroke-linejoin="round" stroke-miterlimit="10" stroke-opacity="1" fill="#B3B3B3" fill-rule="nonzero" fill-opacity="1"/><path d="M7529.26 4734.61 7560.26 4734.61 7560.26 4765.61 7529.26 4765.61Z" stroke="#B3B3B3" stroke-width="3.4375" stroke-linecap="butt" stroke-linejoin="round" stroke-miterlimit="10" stroke-opacity="1" fill="#B3B3B3" fill-rule="nonzero" fill-opacity="1"/><path d="M7649.26 4742.61 7680.26 4742.61 7680.26 4773.61 7649.26 4773.61Z" stroke="#B3B3B3" stroke-width="3.4375" stroke-linecap="butt" stroke-linejoin="round" stroke-miterlimit="10" stroke-opacity="1" fill="#B3B3B3" fill-rule="nonzero" fill-opacity="1"/><path d="M7769.26 4748.61 7800.26 4748.61 7800.26 4779.61 7769.26 4779.61Z" stroke="#B3B3B3" stroke-width="3.4375" stroke-linecap="butt" stroke-linejoin="round" stroke-miterlimit="10" stroke-opacity="1" fill="#B3B3B3" fill-rule="nonzero" fill-opacity="1"/><path d="M7889.26 4754.61 7920.26 4754.61 7920.26 4785.61 7889.26 4785.61Z" stroke="#B3B3B3" stroke-width="3.4375" stroke-linecap="butt" stroke-linejoin="round" stroke-miterlimit="10" stroke-opacity="1" fill="#B3B3B3" fill-rule="nonzero" fill-opacity="1"/></g><g><path d="M5986 4471.15 6106.2 4455 6226.2 4539.15 6346.21 4576.15 6466.21 4616.15 6586.22 4639.15 6706.22 4654.15 6826.22 4673.15 6946.23 4678.15 7066.23 4673.15 7186.24 4660.15 7306.24 4646.15 7426.24 4657.15 7546.25 4671.15 7666.25 4685.15 7786.26 4696.15 7906 4705" stroke="#898989" stroke-width="10.3125" stroke-linecap="round" stroke-linejoin="round" stroke-miterlimit="10" stroke-opacity="1" fill="none" fill-rule="nonzero"/></g><g><path d="M6002.76 4488.11 5969.76 4455.11M5969.76 4488.11 6002.76 4455.11" stroke="#898989" stroke-width="3.4375" stroke-linecap="butt" stroke-linejoin="round" stroke-miterlimit="10" stroke-opacity="1" fill="none" fill-rule="nonzero"/><path d="M6122.76 4471.11 6089.76 4438.11M6089.76 4471.11 6122.76 4438.11" stroke="#898989" stroke-width="3.4375" stroke-linecap="butt" stroke-linejoin="round" stroke-miterlimit="10" stroke-opacity="1" fill="none" fill-rule="nonzero"/><path d="M6242.76 4556.11 6209.76 4523.11M6209.76 4556.11 6242.76 4523.11" stroke="#898989" stroke-width="3.4375" stroke-linecap="butt" stroke-linejoin="round" stroke-miterlimit="10" stroke-opacity="1" fill="none" fill-rule="nonzero"/><path d="M6362.76 4593.11 6329.76 4560.11M6329.76 4593.11 6362.76 4560.11" stroke="#898989" stroke-width="3.4375" stroke-linecap="butt" stroke-linejoin="round" stroke-miterlimit="10" stroke-opacity="1" fill="none" fill-rule="nonzero"/><path d="M6482.76 4632.11 6449.76 4599.11M6449.76 4632.11 6482.76 4599.11" stroke="#898989" stroke-width="3.4375" stroke-linecap="butt" stroke-linejoin="round" stroke-miterlimit="10" stroke-opacity="1" fill="none" fill-rule="nonzero"/><path d="M6601.76 4656.11 6568.76 4623.11M6568.76 4656.11 6601.76 4623.11" stroke="#898989" stroke-width="3.4375" stroke-linecap="butt" stroke-linejoin="round" stroke-miterlimit="10" stroke-opacity="1" fill="none" fill-rule="nonzero"/><path d="M6721.76 4671.11 6688.76 4638.11M6688.76 4671.11 6721.76 4638.11" stroke="#898989" stroke-width="3.4375" stroke-linecap="butt" stroke-linejoin="round" stroke-miterlimit="10" stroke-opacity="1" fill="none" fill-rule="nonzero"/><path d="M6841.76 4690.11 6808.76 4657.11M6808.76 4690.11 6841.76 4657.11" stroke="#898989" stroke-width="3.4375" stroke-linecap="butt" stroke-linejoin="round" stroke-miterlimit="10" stroke-opacity="1" fill="none" fill-rule="nonzero"/><path d="M6961.76 4694.11 6928.76 4661.11M6928.76 4694.11 6961.76 4661.11" stroke="#898989" stroke-width="3.4375" stroke-linecap="butt" stroke-linejoin="round" stroke-miterlimit="10" stroke-opacity="1" fill="none" fill-rule="nonzero"/><path d="M7081.76 4690.11 7048.76 4657.11M7048.76 4690.11 7081.76 4657.11" stroke="#898989" stroke-width="3.4375" stroke-linecap="butt" stroke-linejoin="round" stroke-miterlimit="10" stroke-opacity="1" fill="none" fill-rule="nonzero"/><path d="M7201.76 4677.11 7168.76 4644.11M7168.76 4677.11 7201.76 4644.11" stroke="#898989" stroke-width="3.4375" stroke-linecap="butt" stroke-linejoin="round" stroke-miterlimit="10" stroke-opacity="1" fill="none" fill-rule="nonzero"/><path d="M7321.76 4663.11 7288.76 4630.11M7288.76 4663.11 7321.76 4630.11" stroke="#898989" stroke-width="3.4375" stroke-linecap="butt" stroke-linejoin="round" stroke-miterlimit="10" stroke-opacity="1" fill="none" fill-rule="nonzero"/><path d="M7441.76 4674.11 7408.76 4641.11M7408.76 4674.11 7441.76 4641.11" stroke="#898989" stroke-width="3.4375" stroke-linecap="butt" stroke-linejoin="round" stroke-miterlimit="10" stroke-opacity="1" fill="none" fill-rule="nonzero"/><path d="M7561.76 4688.11 7528.76 4655.11M7528.76 4688.11 7561.76 4655.11" stroke="#898989" stroke-width="3.4375" stroke-linecap="butt" stroke-linejoin="round" stroke-miterlimit="10" stroke-opacity="1" fill="none" fill-rule="nonzero"/><path d="M7681.76 4701.11 7648.76 4668.11M7648.76 4701.11 7681.76 4668.11" stroke="#898989" stroke-width="3.4375" stroke-linecap="butt" stroke-linejoin="round" stroke-miterlimit="10" stroke-opacity="1" fill="none" fill-rule="nonzero"/><path d="M7801.76 4713.11 7768.76 4680.11M7768.76 4713.11 7801.76 4680.11" stroke="#898989" stroke-width="3.4375" stroke-linecap="butt" stroke-linejoin="round" stroke-miterlimit="10" stroke-opacity="1" fill="none" fill-rule="nonzero"/><path d="M7921.76 4722.11 7888.76 4689.11M7888.76 4722.11 7921.76 4689.11" stroke="#898989" stroke-width="3.4375" stroke-linecap="butt" stroke-linejoin="round" stroke-miterlimit="10" stroke-opacity="1" fill="none" fill-rule="nonzero"/></g><g><path d="M5986 4715.15 6106.2 4686.15 6226.2 4644.15 6346.21 4576.15 6466.21 4547 6586.22 4565.15 6706.22 4596.15 6826.22 4629.15 6946.23 4655.15 7066.23 4677.15 7186.24 4695.15 7306.24 4710.15 7426.24 4723.15 7546.25 4734.16 7666.25 4744.16 7786.26 4753.16 7906 4761" stroke="#212121" stroke-width="10.3125" stroke-linecap="round" stroke-linejoin="round" stroke-miterlimit="10" stroke-opacity="1" fill="none" fill-rule="nonzero"/></g><g><path d="M6002.76 4731.11 5969.76 4698.11M5986.26 4698.11 5986.26 4731.11M5969.76 4731.11 6002.76 4698.11" stroke="#212121" stroke-width="3.4375" stroke-linecap="butt" stroke-linejoin="round" stroke-miterlimit="10" stroke-opacity="1" fill="none" fill-rule="nonzero"/><path d="M6122.76 4703.11 6089.76 4670.11M6106.26 4670.11 6106.26 4703.11M6089.76 4703.11 6122.76 4670.11" stroke="#212121" stroke-width="3.4375" stroke-linecap="butt" stroke-linejoin="round" stroke-miterlimit="10" stroke-opacity="1" fill="none" fill-rule="nonzero"/><path d="M6242.76 4660.11 6209.76 4627.11M6226.26 4627.11 6226.26 4660.11M6209.76 4660.11 6242.76 4627.11" stroke="#212121" stroke-width="3.4375" stroke-linecap="butt" stroke-linejoin="round" stroke-miterlimit="10" stroke-opacity="1" fill="none" fill-rule="nonzero"/><path d="M6362.76 4593.11 6329.76 4560.11M6346.26 4560.11 6346.26 4593.11M6329.76 4593.11 6362.76 4560.11" stroke="#212121" stroke-width="3.4375" stroke-linecap="butt" stroke-linejoin="round" stroke-miterlimit="10" stroke-opacity="1" fill="none" fill-rule="nonzero"/><path d="M6482.76 4564.11 6449.76 4531.11M6466.26 4531.11 6466.26 4564.11M6449.76 4564.11 6482.76 4531.11" stroke="#212121" stroke-width="3.4375" stroke-linecap="butt" stroke-linejoin="round" stroke-miterlimit="10" stroke-opacity="1" fill="none" fill-rule="nonzero"/><path d="M6601.76 4581.11 6568.76 4548.11M6585.26 4548.11 6585.26 4581.11M6568.76 4581.11 6601.76 4548.11" stroke="#212121" stroke-width="3.4375" stroke-linecap="butt" stroke-linejoin="round" stroke-miterlimit="10" stroke-opacity="1" fill="none" fill-rule="nonzero"/><path d="M6721.76 4613.11 6688.76 4580.11M6705.26 4580.11 6705.26 4613.11M6688.76 4613.11 6721.76 4580.11" stroke="#212121" stroke-width="3.4375" stroke-linecap="butt" stroke-linejoin="round" stroke-miterlimit="10" stroke-opacity="1" fill="none" fill-rule="nonzero"/><path d="M6841.76 4645.11 6808.76 4612.11M6825.26 4612.11 6825.26 4645.11M6808.76 4645.11 6841.76 4612.11" stroke="#212121" stroke-width="3.4375" stroke-linecap="butt" stroke-linejoin="round" stroke-miterlimit="10" stroke-opacity="1" fill="none" fill-rule="nonzero"/><path d="M6961.76 4672.11 6928.76 4639.11M6945.26 4639.11 6945.26 4672.11M6928.76 4672.11 6961.76 4639.11" stroke="#212121" stroke-width="3.4375" stroke-linecap="butt" stroke-linejoin="round" stroke-miterlimit="10" stroke-opacity="1" fill="none" fill-rule="nonzero"/><path d="M7081.76 4693.11 7048.76 4660.11M7065.26 4660.11 7065.26 4693.11M7048.76 4693.11 7081.76 4660.11" stroke="#212121" stroke-width="3.4375" stroke-linecap="butt" stroke-linejoin="round" stroke-miterlimit="10" stroke-opacity="1" fill="none" fill-rule="nonzero"/><path d="M7201.76 4711.11 7168.76 4678.11M7185.26 4678.11 7185.26 4711.11M7168.76 4711.11 7201.76 4678.11" stroke="#212121" stroke-width="3.4375" stroke-linecap="butt" stroke-linejoin="round" stroke-miterlimit="10" stroke-opacity="1" fill="none" fill-rule="nonzero"/><path d="M7321.76 4726.11 7288.76 4693.11M7305.26 4693.11 7305.26 4726.11M7288.76 4726.11 7321.76 4693.11" stroke="#212121" stroke-width="3.4375" stroke-linecap="butt" stroke-linejoin="round" stroke-miterlimit="10" stroke-opacity="1" fill="none" fill-rule="nonzero"/><path d="M7441.76 4740.11 7408.76 4707.11M7425.26 4707.11 7425.26 4740.11M7408.76 4740.11 7441.76 4707.11" stroke="#212121" stroke-width="3.4375" stroke-linecap="butt" stroke-linejoin="round" stroke-miterlimit="10" stroke-opacity="1" fill="none" fill-rule="nonzero"/><path d="M7561.76 4751.11 7528.76 4718.11M7545.26 4718.11 7545.26 4751.11M7528.76 4751.11 7561.76 4718.11" stroke="#212121" stroke-width="3.4375" stroke-linecap="butt" stroke-linejoin="round" stroke-miterlimit="10" stroke-opacity="1" fill="none" fill-rule="nonzero"/><path d="M7681.76 4761.11 7648.76 4728.11M7665.26 4728.11 7665.26 4761.11M7648.76 4761.11 7681.76 4728.11" stroke="#212121" stroke-width="3.4375" stroke-linecap="butt" stroke-linejoin="round" stroke-miterlimit="10" stroke-opacity="1" fill="none" fill-rule="nonzero"/><path d="M7801.76 4770.11 7768.76 4737.11M7785.26 4737.11 7785.26 4770.11M7768.76 4770.11 7801.76 4737.11" stroke="#212121" stroke-width="3.4375" stroke-linecap="butt" stroke-linejoin="round" stroke-miterlimit="10" stroke-opacity="1" fill="none" fill-rule="nonzero"/><path d="M7921.76 4777.11 7888.76 4744.11M7905.26 4744.11 7905.26 4777.11M7888.76 4777.11 7921.76 4744.11" stroke="#212121" stroke-width="3.4375" stroke-linecap="butt" stroke-linejoin="round" stroke-miterlimit="10" stroke-opacity="1" fill="none" fill-rule="nonzero"/></g><g><text fill="#595959" fill-opacity="1" font-family="NanumMyeongjo,NanumMyeongjo_MSFontService,sans-serif" font-style="normal" font-variant="normal" font-weight="400" font-stretch="normal" font-size="46" text-anchor="start" direction="ltr" writing-mode="lr-tb" unicode-bidi="normal" text-decoration="none" transform="matrix(1 0 0 1 5750.05 4909)">0.0000</text></g><g><text fill="#595959" fill-opacity="1" font-family="NanumMyeongjo,NanumMyeongjo_MSFontService,sans-serif" font-style="normal" font-variant="normal" font-weight="400" font-stretch="normal" font-size="46" text-anchor="start" direction="ltr" writing-mode="lr-tb" unicode-bidi="normal" text-decoration="none" transform="matrix(1 0 0 1 5750.05 4731)">0.0500</text></g><g><text fill="#595959" fill-opacity="1" font-family="NanumMyeongjo,NanumMyeongjo_MSFontService,sans-serif" font-style="normal" font-variant="normal" font-weight="400" font-stretch="normal" font-size="46" text-anchor="start" direction="ltr" writing-mode="lr-tb" unicode-bidi="normal" text-decoration="none" transform="matrix(1 0 0 1 5750.05 4553)">0.1000</text></g><g><text fill="#595959" fill-opacity="1" font-family="NanumMyeongjo,NanumMyeongjo_MSFontService,sans-serif" font-style="normal" font-variant="normal" font-weight="400" font-stretch="normal" font-size="46" text-anchor="start" direction="ltr" writing-mode="lr-tb" unicode-bidi="normal" text-decoration="none" transform="matrix(1 0 0 1 5750.05 4375)">0.1500</text></g><g><text fill="#595959" fill-opacity="1" font-family="NanumMyeongjo,NanumMyeongjo_MSFontService,sans-serif" font-style="normal" font-variant="normal" font-weight="400" font-stretch="normal" font-size="46" text-anchor="start" direction="ltr" writing-mode="lr-tb" unicode-bidi="normal" text-decoration="none" transform="matrix(1 0 0 1 5750.05 4197)">0.2000</text></g><g><text fill="#595959" fill-opacity="1" font-family="NanumMyeongjo,NanumMyeongjo_MSFontService,sans-serif" font-style="normal" font-variant="normal" font-weight="400" font-stretch="normal" font-size="46" text-anchor="start" direction="ltr" writing-mode="lr-tb" unicode-bidi="normal" text-decoration="none" transform="matrix(1 0 0 1 5750.05 4019)">0.2500</text></g><g><text fill="#595959" fill-opacity="1" font-family="NanumMyeongjo,NanumMyeongjo_MSFontService,sans-serif" font-style="normal" font-variant="normal" font-weight="400" font-stretch="normal" font-size="46" text-anchor="start" direction="ltr" writing-mode="lr-tb" unicode-bidi="normal" text-decoration="none" transform="matrix(1 0 0 1 5750.05 3841)">0.3000</text></g><g><text fill="#595959" fill-opacity="1" font-family="NanumMyeongjo,NanumMyeongjo_MSFontService,sans-serif" font-style="normal" font-variant="normal" font-weight="400" font-stretch="normal" font-size="46" text-anchor="start" direction="ltr" writing-mode="lr-tb" unicode-bidi="normal" text-decoration="none" transform="matrix(1 0 0 1 5973.75 4964)">3</text></g><g><text fill="#595959" fill-opacity="1" font-family="NanumMyeongjo,NanumMyeongjo_MSFontService,sans-serif" font-style="normal" font-variant="normal" font-weight="400" font-stretch="normal" font-size="46" text-anchor="start" direction="ltr" writing-mode="lr-tb" unicode-bidi="normal" text-decoration="none" transform="matrix(1 0 0 1 6093.74 4964)">5</text></g><g><text fill="#595959" fill-opacity="1" font-family="NanumMyeongjo,NanumMyeongjo_MSFontService,sans-serif" font-style="normal" font-variant="normal" font-weight="400" font-stretch="normal" font-size="46" text-anchor="start" direction="ltr" writing-mode="lr-tb" unicode-bidi="normal" text-decoration="none" transform="matrix(1 0 0 1 6213.73 4964)">7</text></g><g><text fill="#595959" fill-opacity="1" font-family="NanumMyeongjo,NanumMyeongjo_MSFontService,sans-serif" font-style="normal" font-variant="normal" font-weight="400" font-stretch="normal" font-size="46" text-anchor="start" direction="ltr" writing-mode="lr-tb" unicode-bidi="normal" text-decoration="none" transform="matrix(1 0 0 1 6333.71 4964)">9</text></g><g><text fill="#595959" fill-opacity="1" font-family="NanumMyeongjo,NanumMyeongjo_MSFontService,sans-serif" font-style="normal" font-variant="normal" font-weight="400" font-stretch="normal" font-size="46" text-anchor="start" direction="ltr" writing-mode="lr-tb" unicode-bidi="normal" text-decoration="none" transform="matrix(1 0 0 1 6441.39 4964)">11</text></g><g><text fill="#595959" fill-opacity="1" font-family="NanumMyeongjo,NanumMyeongjo_MSFontService,sans-serif" font-style="normal" font-variant="normal" font-weight="400" font-stretch="normal" font-size="46" text-anchor="start" direction="ltr" writing-mode="lr-tb" unicode-bidi="normal" text-decoration="none" transform="matrix(1 0 0 1 6561.38 4964)">13</text></g><g><text fill="#595959" fill-opacity="1" font-family="NanumMyeongjo,NanumMyeongjo_MSFontService,sans-serif" font-style="normal" font-variant="normal" font-weight="400" font-stretch="normal" font-size="46" text-anchor="start" direction="ltr" writing-mode="lr-tb" unicode-bidi="normal" text-decoration="none" transform="matrix(1 0 0 1 6681.37 4964)">15</text></g><g><text fill="#595959" fill-opacity="1" font-family="NanumMyeongjo,NanumMyeongjo_MSFontService,sans-serif" font-style="normal" font-variant="normal" font-weight="400" font-stretch="normal" font-size="46" text-anchor="start" direction="ltr" writing-mode="lr-tb" unicode-bidi="normal" text-decoration="none" transform="matrix(1 0 0 1 6801.35 4964)">17</text></g><g><text fill="#595959" fill-opacity="1" font-family="NanumMyeongjo,NanumMyeongjo_MSFontService,sans-serif" font-style="normal" font-variant="normal" font-weight="400" font-stretch="normal" font-size="46" text-anchor="start" direction="ltr" writing-mode="lr-tb" unicode-bidi="normal" text-decoration="none" transform="matrix(1 0 0 1 6921.34 4964)">19</text></g><g><text fill="#595959" fill-opacity="1" font-family="NanumMyeongjo,NanumMyeongjo_MSFontService,sans-serif" font-style="normal" font-variant="normal" font-weight="400" font-stretch="normal" font-size="46" text-anchor="start" direction="ltr" writing-mode="lr-tb" unicode-bidi="normal" text-decoration="none" transform="matrix(1 0 0 1 7041.32 4964)">21</text></g><g><text fill="#595959" fill-opacity="1" font-family="NanumMyeongjo,NanumMyeongjo_MSFontService,sans-serif" font-style="normal" font-variant="normal" font-weight="400" font-stretch="normal" font-size="46" text-anchor="start" direction="ltr" writing-mode="lr-tb" unicode-bidi="normal" text-decoration="none" transform="matrix(1 0 0 1 7161.31 4964)">23</text></g><g><text fill="#595959" fill-opacity="1" font-family="NanumMyeongjo,NanumMyeongjo_MSFontService,sans-serif" font-style="normal" font-variant="normal" font-weight="400" font-stretch="normal" font-size="46" text-anchor="start" direction="ltr" writing-mode="lr-tb" unicode-bidi="normal" text-decoration="none" transform="matrix(1 0 0 1 7281.3 4964)">25</text></g><g><text fill="#595959" fill-opacity="1" font-family="NanumMyeongjo,NanumMyeongjo_MSFontService,sans-serif" font-style="normal" font-variant="normal" font-weight="400" font-stretch="normal" font-size="46" text-anchor="start" direction="ltr" writing-mode="lr-tb" unicode-bidi="normal" text-decoration="none" transform="matrix(1 0 0 1 7401.28 4964)">27</text></g><g><text fill="#595959" fill-opacity="1" font-family="NanumMyeongjo,NanumMyeongjo_MSFontService,sans-serif" font-style="normal" font-variant="normal" font-weight="400" font-stretch="normal" font-size="46" text-anchor="start" direction="ltr" writing-mode="lr-tb" unicode-bidi="normal" text-decoration="none" transform="matrix(1 0 0 1 7521.27 4964)">29</text></g><g><text fill="#595959" fill-opacity="1" font-family="NanumMyeongjo,NanumMyeongjo_MSFontService,sans-serif" font-style="normal" font-variant="normal" font-weight="400" font-stretch="normal" font-size="46" text-anchor="start" direction="ltr" writing-mode="lr-tb" unicode-bidi="normal" text-decoration="none" transform="matrix(1 0 0 1 7641.25 4964)">31</text></g><g><text fill="#595959" fill-opacity="1" font-family="NanumMyeongjo,NanumMyeongjo_MSFontService,sans-serif" font-style="normal" font-variant="normal" font-weight="400" font-stretch="normal" font-size="46" text-anchor="start" direction="ltr" writing-mode="lr-tb" unicode-bidi="normal" text-decoration="none" transform="matrix(1 0 0 1 7761.24 4964)">33</text></g><g><text fill="#595959" fill-opacity="1" font-family="NanumMyeongjo,NanumMyeongjo_MSFontService,sans-serif" font-style="normal" font-variant="normal" font-weight="400" font-stretch="normal" font-size="46" text-anchor="start" direction="ltr" writing-mode="lr-tb" unicode-bidi="normal" text-decoration="none" transform="matrix(1 0 0 1 7881.23 4964)">35</text></g><g><text fill="#595959" fill-opacity="1" font-family="NanumMyeongjo,NanumMyeongjo_MSFontService,sans-serif" font-style="normal" font-variant="normal" font-weight="400" font-stretch="normal" font-size="55" text-anchor="start" direction="ltr" writing-mode="lr-tb" unicode-bidi="normal" text-decoration="none" transform="matrix(6.12323e-17 -1 1 6.12323e-17 5714.05 4465)">f1 scores</text></g><g><text fill="#595959" fill-opacity="1" font-family="NanumMyeongjo,NanumMyeongjo_MSFontService,sans-serif" font-style="normal" font-variant="normal" font-weight="400" font-stretch="normal" font-size="55" text-anchor="start" direction="ltr" writing-mode="lr-tb" unicode-bidi="normal" text-decoration="none" transform="matrix(1 0 0 1 6858.63 5049)">Top</text></g><g><text fill="#595959" fill-opacity="1" font-family="NanumMyeongjo,NanumMyeongjo_MSFontService,sans-serif" font-style="normal" font-variant="normal" font-weight="400" font-stretch="normal" font-size="55" text-anchor="start" direction="ltr" writing-mode="lr-tb" unicode-bidi="normal" text-decoration="none" transform="matrix(1 0 0 1 6951.69 5049)">-</text></g><g><text fill="#595959" fill-opacity="1" font-family="NanumMyeongjo,NanumMyeongjo_MSFontService,sans-serif" font-style="normal" font-variant="normal" font-weight="400" font-stretch="normal" font-size="55" text-anchor="start" direction="ltr" writing-mode="lr-tb" unicode-bidi="normal" text-decoration="none" transform="matrix(1 0 0 1 6986.82 5049)">N</text></g><g><text fill="#595959" fill-opacity="1" font-family="NanumMyeongjo,NanumMyeongjo_MSFontService,sans-serif" font-style="normal" font-variant="normal" font-weight="400" font-stretch="normal" font-size="66" text-anchor="start" direction="ltr" writing-mode="lr-tb" unicode-bidi="normal" text-decoration="none" transform="matrix(1 0 0 1 6666.16 3742)">purchases</text></g><g><path d="M6231 5173 6319 5173" stroke="#5F5F5F" stroke-width="10.3125" stroke-linecap="round" stroke-linejoin="round" stroke-miterlimit="10" stroke-opacity="1" fill="none" fill-rule="evenodd"/></g><g><path d="M6290.02 5172.5C6290.02 5181.06 6283.29 5188 6275 5188 6266.71 5188 6259.98 5181.06 6259.98 5172.5 6259.98 5163.94 6266.71 5157 6275 5157 6283.29 5157 6290.02 5163.94 6290.02 5172.5Z" stroke="#5F5F5F" stroke-width="3.4375" stroke-linecap="butt" stroke-linejoin="round" stroke-miterlimit="10" stroke-opacity="1" fill="#5F5F5F" fill-rule="nonzero" fill-opacity="1"/></g><g><text fill="#595959" fill-opacity="1" font-family="NanumMyeongjo,NanumMyeongjo_MSFontService,sans-serif" font-style="normal" font-variant="normal" font-weight="400" font-stretch="normal" font-size="55" text-anchor="start" direction="ltr" writing-mode="lr-tb" unicode-bidi="normal" text-decoration="none" transform="matrix(1 0 0 1 6328.36 5192)">IBCF</text></g><g><path d="M6505 5173 6593 5173" stroke="#B3B3B3" stroke-width="10.3125" stroke-linecap="round" stroke-linejoin="round" stroke-miterlimit="10" stroke-opacity="1" fill="none" fill-rule="evenodd"/></g><g><path d="M6532.71 5157.67 6563.72 5157.67 6563.72 5188.67 6532.71 5188.67Z" stroke="#B3B3B3" stroke-width="3.4375" stroke-linecap="butt" stroke-linejoin="round" stroke-miterlimit="10" stroke-opacity="1" fill="#B3B3B3" fill-rule="nonzero" fill-opacity="1"/></g><g><text fill="#595959" fill-opacity="1" font-family="NanumMyeongjo,NanumMyeongjo_MSFontService,sans-serif" font-style="normal" font-variant="normal" font-weight="400" font-stretch="normal" font-size="55" text-anchor="start" direction="ltr" writing-mode="lr-tb" unicode-bidi="normal" text-decoration="none" transform="matrix(1 0 0 1 6602.25 5192)">NMF</text></g><g><path d="M6790 5173 6878 5173" stroke="#898989" stroke-width="10.3125" stroke-linecap="round" stroke-linejoin="round" stroke-miterlimit="10" stroke-opacity="1" fill="none" fill-rule="evenodd"/></g><g><path d="M6850.5 5189.5 6817.5 5156.5M6817.5 5189.5 6850.5 5156.5" stroke="#898989" stroke-width="3.4375" stroke-linecap="butt" stroke-linejoin="round" stroke-miterlimit="10" stroke-opacity="1" fill="none" fill-rule="nonzero"/></g><g><text fill="#595959" fill-opacity="1" font-family="NanumMyeongjo,NanumMyeongjo_MSFontService,sans-serif" font-style="normal" font-variant="normal" font-weight="400" font-stretch="normal" font-size="55" text-anchor="start" direction="ltr" writing-mode="lr-tb" unicode-bidi="normal" text-decoration="none" transform="matrix(1 0 0 1 6887.42 5192)">Rev1</text></g><g><path d="M7064 5173 7152 5173" stroke="#212121" stroke-width="10.3125" stroke-linecap="round" stroke-linejoin="round" stroke-miterlimit="10" stroke-opacity="1" fill="none" fill-rule="evenodd"/></g><g><path d="M7123.5 5189.5 7090.5 5156.5M7107.73 5156.5 7107.73 5189.5M7090.5 5189.5 7123.5 5156.5" stroke="#212121" stroke-width="3.4375" stroke-linecap="butt" stroke-linejoin="round" stroke-miterlimit="10" stroke-opacity="1" fill="none" fill-rule="nonzero"/></g><g><text fill="#595959" fill-opacity="1" font-family="NanumMyeongjo,NanumMyeongjo_MSFontService,sans-serif" font-style="normal" font-variant="normal" font-weight="400" font-stretch="normal" font-size="55" text-anchor="start" direction="ltr" writing-mode="lr-tb" unicode-bidi="normal" text-decoration="none" transform="matrix(1 0 0 1 7161.19 5192)">Rev4Ver1</text></g><rect x="5597.5" y="3636.5" width="2419" height="1610" stroke="#D9D9D9" stroke-width="3.4375" stroke-linecap="butt" stroke-linejoin="round" stroke-miterlimit="10" stroke-opacity="1" fill="none"/></g></g></svg>