<svg width="2429" height="1618" xmlns="http://www.w3.org/2000/svg" xmlns:xlink="http://www.w3.org/1999/xlink" xml:space="preserve" overflow="hidden"><defs><clipPath id="clip0"><rect x="2823" y="5344" width="2429" height="1618"/></clipPath><clipPath id="clip1"><rect x="2823" y="5344" width="2429" height="1618"/></clipPath></defs><g clip-path="url(#clip0)" transform="translate(-2823 -5344)"><g clip-path="url(#clip1)"><rect x="2826" y="5347" width="2424" height="1610" fill="#FFFFFF" fill-opacity="1"/><g><path d="M3155.5 6569.72 5200.5 6569.72M3155.5 6533.71 5200.5 6533.71M3155.5 6498.71 5200.5 6498.71M3155.5 6462.71 5200.5 6462.71M3155.5 6391.71 5200.5 6391.71M3155.5 6355.71 5200.5 6355.71M3155.5 6320.71 5200.5 6320.71M3155.5 6284.71 5200.5 6284.71M3155.5 6213.7 5200.5 6213.7M3155.5 6177.7 5200.5 6177.7M3155.5 6142.7 5200.5 6142.7M3155.5 6106.7 5200.5 6106.7M3155.5 6035.7 5200.5 6035.7M3155.5 5999.7 5200.5 5999.7M3155.5 5964.7 5200.5 5964.7M3155.5 5928.69 5200.5 5928.69M3155.5 5857.69 5200.5 5857.69M3155.5 5822.69 5200.5 5822.69M3155.5 5786.69 5200.5 5786.69M3155.5 5750.69 5200.5 5750.69M3155.5 5679.69 5200.5 5679.69M3155.5 5644.69 5200.5 5644.69M3155.5 5608.68 5200.5 5608.68M3155.5 5572.68 5200.5 5572.68" stroke="#F2F2F2" stroke-width="3.4375" stroke-linecap="butt" stroke-linejoin="round" stroke-miterlimit="10" stroke-opacity="1" fill="none" fill-rule="nonzero"/></g><g><path d="M3155.5 6426.71 5200.5 6426.71M3155.5 6249.71 5200.5 6249.71M3155.5 6071.7 5200.5 6071.7M3155.5 5893.69 5200.5 5893.69M3155.5 5715.69 5200.5 5715.69M3155.5 5537.5 5200.5 5537.5" stroke="#D9D9D9" stroke-width="3.4375" stroke-linecap="butt" stroke-linejoin="round" stroke-miterlimit="10" stroke-opacity="1" fill="none" fill-rule="nonzero"/></g><g><path d="M3155.5 5537.5 3155.5 6605.5M3275.61 5537.5 3275.61 6605.5M3396.61 5537.5 3396.61 6605.5M3516.62 5537.5 3516.62 6605.5M3636.62 5537.5 3636.62 6605.5M3756.62 5537.5 3756.62 6605.5M3877.63 5537.5 3877.63 6605.5M3997.63 5537.5 3997.63 6605.5M4117.64 5537.5 4117.64 6605.5M4237.64 5537.5 4237.64 6605.5M4358.64 5537.5 4358.64 6605.5M4478.65 5537.5 4478.65 6605.5M4598.65 5537.5 4598.65 6605.5M4718.66 5537.5 4718.66 6605.5M4839.66 5537.5 4839.66 6605.5M4959.66 5537.5 4959.66 6605.5M5079.67 5537.5 5079.67 6605.5M5200.5 5537.5 5200.5 6605.5" stroke="#D9D9D9" stroke-width="3.4375" stroke-linecap="butt" stroke-linejoin="round" stroke-miterlimit="10" stroke-opacity="1" fill="none" fill-rule="nonzero"/></g><g><path d="M3155.5 6605.5 5200.5 6605.5" stroke="#D9D9D9" stroke-width="3.4375" stroke-linecap="butt" stroke-linejoin="round" stroke-miterlimit="10" stroke-opacity="1" fill="none" fill-rule="evenodd"/></g><g><path d="M3216 6526 3336.11 6487.21 3456.11 6449.21 3576.12 6409.21 3697.12 6371.21 3817.13 6336.21 3937.13 6301.21 4057.13 6264.21 4178.14 6227.2 4298.14 6195.2 4418.15 6160.2 4538.15 6126.2 4659.15 6090.2 4779.16 6055.2 4899.16 6023.2 5019.16 5992.2 5140 5964" stroke="#5F5F5F" stroke-width="10.3125" stroke-linecap="round" stroke-linejoin="round" stroke-miterlimit="10" stroke-opacity="1" fill="none" fill-rule="nonzero"/></g><g><path d="M3230.89 6526.22C3230.89 6534.78 3223.95 6541.72 3215.39 6541.72 3206.83 6541.72 3199.89 6534.78 3199.89 6526.22 3199.89 6517.66 3206.83 6510.72 3215.39 6510.72 3223.95 6510.72 3230.89 6517.66 3230.89 6526.22Z" stroke="#5F5F5F" stroke-width="3.4375" stroke-linecap="butt" stroke-linejoin="round" stroke-miterlimit="10" stroke-opacity="1" fill="#5F5F5F" fill-rule="nonzero" fill-opacity="1"/><path d="M3351.89 6486.22C3351.89 6494.78 3344.95 6501.72 3336.39 6501.72 3327.83 6501.72 3320.89 6494.78 3320.89 6486.22 3320.89 6477.66 3327.83 6470.72 3336.39 6470.72 3344.95 6470.72 3351.89 6477.66 3351.89 6486.22Z" stroke="#5F5F5F" stroke-width="3.4375" stroke-linecap="butt" stroke-linejoin="round" stroke-miterlimit="10" stroke-opacity="1" fill="#5F5F5F" fill-rule="nonzero" fill-opacity="1"/><path d="M3471.89 6448.22C3471.89 6456.78 3464.95 6463.72 3456.39 6463.72 3447.83 6463.72 3440.89 6456.78 3440.89 6448.22 3440.89 6439.66 3447.83 6432.72 3456.39 6432.72 3464.95 6432.72 3471.89 6439.66 3471.89 6448.22Z" stroke="#5F5F5F" stroke-width="3.4375" stroke-linecap="butt" stroke-linejoin="round" stroke-miterlimit="10" stroke-opacity="1" fill="#5F5F5F" fill-rule="nonzero" fill-opacity="1"/><path d="M3591.89 6409.22C3591.89 6417.78 3584.95 6424.72 3576.39 6424.72 3567.83 6424.72 3560.89 6417.78 3560.89 6409.22 3560.89 6400.66 3567.83 6393.72 3576.39 6393.72 3584.95 6393.72 3591.89 6400.66 3591.89 6409.22Z" stroke="#5F5F5F" stroke-width="3.4375" stroke-linecap="butt" stroke-linejoin="round" stroke-miterlimit="10" stroke-opacity="1" fill="#5F5F5F" fill-rule="nonzero" fill-opacity="1"/><path d="M3711.89 6371.22C3711.89 6379.78 3704.95 6386.72 3696.39 6386.72 3687.83 6386.72 3680.89 6379.78 3680.89 6371.22 3680.89 6362.66 3687.83 6355.72 3696.39 6355.72 3704.95 6355.72 3711.89 6362.66 3711.89 6371.22Z" stroke="#5F5F5F" stroke-width="3.4375" stroke-linecap="butt" stroke-linejoin="round" stroke-miterlimit="10" stroke-opacity="1" fill="#5F5F5F" fill-rule="nonzero" fill-opacity="1"/><path d="M3832.89 6335.22C3832.89 6343.78 3825.95 6350.72 3817.39 6350.72 3808.83 6350.72 3801.89 6343.78 3801.89 6335.22 3801.89 6326.66 3808.83 6319.72 3817.39 6319.72 3825.95 6319.72 3832.89 6326.66 3832.89 6335.22Z" stroke="#5F5F5F" stroke-width="3.4375" stroke-linecap="butt" stroke-linejoin="round" stroke-miterlimit="10" stroke-opacity="1" fill="#5F5F5F" fill-rule="nonzero" fill-opacity="1"/><path d="M3952.89 6301.22C3952.89 6309.78 3945.95 6316.72 3937.39 6316.72 3928.83 6316.72 3921.89 6309.78 3921.89 6301.22 3921.89 6292.66 3928.83 6285.72 3937.39 6285.72 3945.95 6285.72 3952.89 6292.66 3952.89 6301.22Z" stroke="#5F5F5F" stroke-width="3.4375" stroke-linecap="butt" stroke-linejoin="round" stroke-miterlimit="10" stroke-opacity="1" fill="#5F5F5F" fill-rule="nonzero" fill-opacity="1"/><path d="M4072.89 6264.22C4072.89 6272.78 4065.95 6279.72 4057.39 6279.72 4048.83 6279.72 4041.89 6272.78 4041.89 6264.22 4041.89 6255.66 4048.83 6248.72 4057.39 6248.72 4065.95 6248.72 4072.89 6255.66 4072.89 6264.22Z" stroke="#5F5F5F" stroke-width="3.4375" stroke-linecap="butt" stroke-linejoin="round" stroke-miterlimit="10" stroke-opacity="1" fill="#5F5F5F" fill-rule="nonzero" fill-opacity="1"/><path d="M4192.89 6227.22C4192.89 6235.78 4185.95 6242.72 4177.39 6242.72 4168.83 6242.72 4161.89 6235.78 4161.89 6227.22 4161.89 6218.66 4168.83 6211.72 4177.39 6211.72 4185.95 6211.72 4192.89 6218.66 4192.89 6227.22Z" stroke="#5F5F5F" stroke-width="3.4375" stroke-linecap="butt" stroke-linejoin="round" stroke-miterlimit="10" stroke-opacity="1" fill="#5F5F5F" fill-rule="nonzero" fill-opacity="1"/><path d="M4313.89 6195.22C4313.89 6203.78 4306.95 6210.72 4298.39 6210.72 4289.83 6210.72 4282.89 6203.78 4282.89 6195.22 4282.89 6186.66 4289.83 6179.72 4298.39 6179.72 4306.95 6179.72 4313.89 6186.66 4313.89 6195.22Z" stroke="#5F5F5F" stroke-width="3.4375" stroke-linecap="butt" stroke-linejoin="round" stroke-miterlimit="10" stroke-opacity="1" fill="#5F5F5F" fill-rule="nonzero" fill-opacity="1"/><path d="M4433.89 6159.22C4433.89 6167.78 4426.95 6174.72 4418.39 6174.72 4409.83 6174.72 4402.89 6167.78 4402.89 6159.22 4402.89 6150.66 4409.83 6143.72 4418.39 6143.72 4426.95 6143.72 4433.89 6150.66 4433.89 6159.22Z" stroke="#5F5F5F" stroke-width="3.4375" stroke-linecap="butt" stroke-linejoin="round" stroke-miterlimit="10" stroke-opacity="1" fill="#5F5F5F" fill-rule="nonzero" fill-opacity="1"/><path d="M4553.89 6126.22C4553.89 6134.78 4546.95 6141.72 4538.39 6141.72 4529.83 6141.72 4522.89 6134.78 4522.89 6126.22 4522.89 6117.66 4529.83 6110.72 4538.39 6110.72 4546.95 6110.72 4553.89 6117.66 4553.89 6126.22Z" stroke="#5F5F5F" stroke-width="3.4375" stroke-linecap="butt" stroke-linejoin="round" stroke-miterlimit="10" stroke-opacity="1" fill="#5F5F5F" fill-rule="nonzero" fill-opacity="1"/><path d="M4673.89 6090.22C4673.89 6098.78 4666.95 6105.72 4658.39 6105.72 4649.83 6105.72 4642.89 6098.78 4642.89 6090.22 4642.89 6081.66 4649.83 6074.72 4658.39 6074.72 4666.95 6074.72 4673.89 6081.66 4673.89 6090.22Z" stroke="#5F5F5F" stroke-width="3.4375" stroke-linecap="butt" stroke-linejoin="round" stroke-miterlimit="10" stroke-opacity="1" fill="#5F5F5F" fill-rule="nonzero" fill-opacity="1"/><path d="M4794.89 6054.22C4794.89 6062.78 4787.95 6069.72 4779.39 6069.72 4770.83 6069.72 4763.89 6062.78 4763.89 6054.22 4763.89 6045.66 4770.83 6038.72 4779.39 6038.72 4787.95 6038.72 4794.89 6045.66 4794.89 6054.22Z" stroke="#5F5F5F" stroke-width="3.4375" stroke-linecap="butt" stroke-linejoin="round" stroke-miterlimit="10" stroke-opacity="1" fill="#5F5F5F" fill-rule="nonzero" fill-opacity="1"/><path d="M4914.89 6022.22C4914.89 6030.78 4907.95 6037.72 4899.39 6037.72 4890.83 6037.72 4883.89 6030.78 4883.89 6022.22 4883.89 6013.66 4890.83 6006.72 4899.39 6006.72 4907.95 6006.72 4914.89 6013.66 4914.89 6022.22Z" stroke="#5F5F5F" stroke-width="3.4375" stroke-linecap="butt" stroke-linejoin="round" stroke-miterlimit="10" stroke-opacity="1" fill="#5F5F5F" fill-rule="nonzero" fill-opacity="1"/><path d="M5034.89 5992.22C5034.89 6000.78 5027.95 6007.72 5019.39 6007.72 5010.83 6007.72 5003.89 6000.78 5003.89 5992.22 5003.89 5983.66 5010.83 5976.72 5019.39 5976.72 5027.95 5976.72 5034.89 5983.66 5034.89 5992.22Z" stroke="#5F5F5F" stroke-width="3.4375" stroke-linecap="butt" stroke-linejoin="round" stroke-miterlimit="10" stroke-opacity="1" fill="#5F5F5F" fill-rule="nonzero" fill-opacity="1"/><path d="M5154.89 5964.22C5154.89 5972.78 5147.95 5979.72 5139.39 5979.72 5130.83 5979.72 5123.89 5972.78 5123.89 5964.22 5123.89 5955.66 5130.83 5948.72 5139.39 5948.72 5147.95 5948.72 5154.89 5955.66 5154.89 5964.22Z" stroke="#5F5F5F" stroke-width="3.4375" stroke-linecap="butt" stroke-linejoin="round" stroke-miterlimit="10" stroke-opacity="1" fill="#5F5F5F" fill-rule="nonzero" fill-opacity="1"/></g><g><path d="M3216 6334 3336.11 6232.2 3456.11 6161.2 3576.12 6102.2 3697.12 6053.2 3817.13 6010.2 3937.13 5973.2 4057.13 5937.19 4178.14 5902.19 4298.14 5874.19 4418.15 5844.19 4538.15 5821.19 4659.15 5798.19 4779.16 5775.19 4899.16 5751.19 5019.16 5729.19 5140 5707" stroke="#B3B3B3" stroke-width="10.3125" stroke-linecap="round" stroke-linejoin="round" stroke-miterlimit="10" stroke-opacity="1" fill="none" fill-rule="nonzero"/></g><g><path d="M3199.89 6317.72 3230.89 6317.72 3230.89 6348.72 3199.89 6348.72Z" stroke="#B3B3B3" stroke-width="3.4375" stroke-linecap="butt" stroke-linejoin="round" stroke-miterlimit="10" stroke-opacity="1" fill="#B3B3B3" fill-rule="nonzero" fill-opacity="1"/><path d="M3320.89 6216.72 3351.89 6216.72 3351.89 6247.72 3320.89 6247.72Z" stroke="#B3B3B3" stroke-width="3.4375" stroke-linecap="butt" stroke-linejoin="round" stroke-miterlimit="10" stroke-opacity="1" fill="#B3B3B3" fill-rule="nonzero" fill-opacity="1"/><path d="M3440.89 6145.72 3471.89 6145.72 3471.89 6176.72 3440.89 6176.72Z" stroke="#B3B3B3" stroke-width="3.4375" stroke-linecap="butt" stroke-linejoin="round" stroke-miterlimit="10" stroke-opacity="1" fill="#B3B3B3" fill-rule="nonzero" fill-opacity="1"/><path d="M3560.89 6086.72 3591.89 6086.72 3591.89 6117.72 3560.89 6117.72Z" stroke="#B3B3B3" stroke-width="3.4375" stroke-linecap="butt" stroke-linejoin="round" stroke-miterlimit="10" stroke-opacity="1" fill="#B3B3B3" fill-rule="nonzero" fill-opacity="1"/><path d="M3680.89 6037.72 3711.89 6037.72 3711.89 6068.72 3680.89 6068.72Z" stroke="#B3B3B3" stroke-width="3.4375" stroke-linecap="butt" stroke-linejoin="round" stroke-miterlimit="10" stroke-opacity="1" fill="#B3B3B3" fill-rule="nonzero" fill-opacity="1"/><path d="M3801.89 5994.72 3832.89 5994.72 3832.89 6025.72 3801.89 6025.72Z" stroke="#B3B3B3" stroke-width="3.4375" stroke-linecap="butt" stroke-linejoin="round" stroke-miterlimit="10" stroke-opacity="1" fill="#B3B3B3" fill-rule="nonzero" fill-opacity="1"/><path d="M3921.89 5957.72 3952.89 5957.72 3952.89 5988.72 3921.89 5988.72Z" stroke="#B3B3B3" stroke-width="3.4375" stroke-linecap="butt" stroke-linejoin="round" stroke-miterlimit="10" stroke-opacity="1" fill="#B3B3B3" fill-rule="nonzero" fill-opacity="1"/><path d="M4041.89 5920.72 4072.89 5920.72 4072.89 5951.72 4041.89 5951.72Z" stroke="#B3B3B3" stroke-width="3.4375" stroke-linecap="butt" stroke-linejoin="round" stroke-miterlimit="10" stroke-opacity="1" fill="#B3B3B3" fill-rule="nonzero" fill-opacity="1"/><path d="M4161.89 5886.72 4192.89 5886.72 4192.89 5917.72 4161.89 5917.72Z" stroke="#B3B3B3" stroke-width="3.4375" stroke-linecap="butt" stroke-linejoin="round" stroke-miterlimit="10" stroke-opacity="1" fill="#B3B3B3" fill-rule="nonzero" fill-opacity="1"/><path d="M4282.89 5857.72 4313.89 5857.72 4313.89 5888.72 4282.89 5888.72Z" stroke="#B3B3B3" stroke-width="3.4375" stroke-linecap="butt" stroke-linejoin="round" stroke-miterlimit="10" stroke-opacity="1" fill="#B3B3B3" fill-rule="nonzero" fill-opacity="1"/><path d="M4402.89 5828.72 4433.89 5828.72 4433.89 5859.72 4402.89 5859.72Z" stroke="#B3B3B3" stroke-width="3.4375" stroke-linecap="butt" stroke-linejoin="round" stroke-miterlimit="10" stroke-opacity="1" fill="#B3B3B3" fill-rule="nonzero" fill-opacity="1"/><path d="M4522.89 5805.72 4553.89 5805.72 4553.89 5836.72 4522.89 5836.72Z" stroke="#B3B3B3" stroke-width="3.4375" stroke-linecap="butt" stroke-linejoin="round" stroke-miterlimit="10" stroke-opacity="1" fill="#B3B3B3" fill-rule="nonzero" fill-opacity="1"/><path d="M4642.89 5781.72 4673.89 5781.72 4673.89 5812.72 4642.89 5812.72Z" stroke="#B3B3B3" stroke-width="3.4375" stroke-linecap="butt" stroke-linejoin="round" stroke-miterlimit="10" stroke-opacity="1" fill="#B3B3B3" fill-rule="nonzero" fill-opacity="1"/><path d="M4763.89 5759.72 4794.89 5759.72 4794.89 5790.72 4763.89 5790.72Z" stroke="#B3B3B3" stroke-width="3.4375" stroke-linecap="butt" stroke-linejoin="round" stroke-miterlimit="10" stroke-opacity="1" fill="#B3B3B3" fill-rule="nonzero" fill-opacity="1"/><path d="M4883.89 5735.72 4914.89 5735.72 4914.89 5766.72 4883.89 5766.72Z" stroke="#B3B3B3" stroke-width="3.4375" stroke-linecap="butt" stroke-linejoin="round" stroke-miterlimit="10" stroke-opacity="1" fill="#B3B3B3" fill-rule="nonzero" fill-opacity="1"/><path d="M5003.89 5713.72 5034.89 5713.72 5034.89 5744.72 5003.89 5744.72Z" stroke="#B3B3B3" stroke-width="3.4375" stroke-linecap="butt" stroke-linejoin="round" stroke-miterlimit="10" stroke-opacity="1" fill="#B3B3B3" fill-rule="nonzero" fill-opacity="1"/><path d="M5123.89 5691.72 5154.89 5691.72 5154.89 5722.72 5123.89 5722.72Z" stroke="#B3B3B3" stroke-width="3.4375" stroke-linecap="butt" stroke-linejoin="round" stroke-miterlimit="10" stroke-opacity="1" fill="#B3B3B3" fill-rule="nonzero" fill-opacity="1"/></g><g><path d="M3216 6557 3336.11 6523.21 3456.11 6487.21 3576.12 6452.21 3697.12 6421.21 3817.13 6383.21 3937.13 6348.21 4057.13 6317.21 4178.14 6289.21 4298.14 6264.21 4418.15 6235.2 4538.15 6208.2 4659.15 6185.2 4779.16 6160.2 4899.16 6134.2 5019.16 6111.2 5140 6089" stroke="#898989" stroke-width="10.3125" stroke-linecap="round" stroke-linejoin="round" stroke-miterlimit="10" stroke-opacity="1" fill="none" fill-rule="nonzero"/></g><g><path d="M3232.39 6573.22 3199.39 6540.22M3199.39 6573.22 3232.39 6540.22" stroke="#898989" stroke-width="3.4375" stroke-linecap="butt" stroke-linejoin="round" stroke-miterlimit="10" stroke-opacity="1" fill="none" fill-rule="nonzero"/><path d="M3353.39 6540.22 3320.39 6507.22M3320.39 6540.22 3353.39 6507.22" stroke="#898989" stroke-width="3.4375" stroke-linecap="butt" stroke-linejoin="round" stroke-miterlimit="10" stroke-opacity="1" fill="none" fill-rule="nonzero"/><path d="M3473.39 6504.22 3440.39 6471.22M3440.39 6504.22 3473.39 6471.22" stroke="#898989" stroke-width="3.4375" stroke-linecap="butt" stroke-linejoin="round" stroke-miterlimit="10" stroke-opacity="1" fill="none" fill-rule="nonzero"/><path d="M3593.39 6469.22 3560.39 6436.22M3560.39 6469.22 3593.39 6436.22" stroke="#898989" stroke-width="3.4375" stroke-linecap="butt" stroke-linejoin="round" stroke-miterlimit="10" stroke-opacity="1" fill="none" fill-rule="nonzero"/><path d="M3713.39 6438.22 3680.39 6405.22M3680.39 6438.22 3713.39 6405.22" stroke="#898989" stroke-width="3.4375" stroke-linecap="butt" stroke-linejoin="round" stroke-miterlimit="10" stroke-opacity="1" fill="none" fill-rule="nonzero"/><path d="M3834.39 6400.22 3801.39 6367.22M3801.39 6400.22 3834.39 6367.22" stroke="#898989" stroke-width="3.4375" stroke-linecap="butt" stroke-linejoin="round" stroke-miterlimit="10" stroke-opacity="1" fill="none" fill-rule="nonzero"/><path d="M3954.39 6365.22 3921.39 6332.22M3921.39 6365.22 3954.39 6332.22" stroke="#898989" stroke-width="3.4375" stroke-linecap="butt" stroke-linejoin="round" stroke-miterlimit="10" stroke-opacity="1" fill="none" fill-rule="nonzero"/><path d="M4074.39 6334.22 4041.39 6301.22M4041.39 6334.22 4074.39 6301.22" stroke="#898989" stroke-width="3.4375" stroke-linecap="butt" stroke-linejoin="round" stroke-miterlimit="10" stroke-opacity="1" fill="none" fill-rule="nonzero"/><path d="M4194.39 6306.22 4161.39 6273.22M4161.39 6306.22 4194.39 6273.22" stroke="#898989" stroke-width="3.4375" stroke-linecap="butt" stroke-linejoin="round" stroke-miterlimit="10" stroke-opacity="1" fill="none" fill-rule="nonzero"/><path d="M4315.39 6281.22 4282.39 6248.22M4282.39 6281.22 4315.39 6248.22" stroke="#898989" stroke-width="3.4375" stroke-linecap="butt" stroke-linejoin="round" stroke-miterlimit="10" stroke-opacity="1" fill="none" fill-rule="nonzero"/><path d="M4435.39 6252.22 4402.39 6219.22M4402.39 6252.22 4435.39 6219.22" stroke="#898989" stroke-width="3.4375" stroke-linecap="butt" stroke-linejoin="round" stroke-miterlimit="10" stroke-opacity="1" fill="none" fill-rule="nonzero"/><path d="M4555.39 6225.22 4522.39 6192.22M4522.39 6225.22 4555.39 6192.22" stroke="#898989" stroke-width="3.4375" stroke-linecap="butt" stroke-linejoin="round" stroke-miterlimit="10" stroke-opacity="1" fill="none" fill-rule="nonzero"/><path d="M4675.39 6202.22 4642.39 6169.22M4642.39 6202.22 4675.39 6169.22" stroke="#898989" stroke-width="3.4375" stroke-linecap="butt" stroke-linejoin="round" stroke-miterlimit="10" stroke-opacity="1" fill="none" fill-rule="nonzero"/><path d="M4796.39 6176.22 4763.39 6143.22M4763.39 6176.22 4796.39 6143.22" stroke="#898989" stroke-width="3.4375" stroke-linecap="butt" stroke-linejoin="round" stroke-miterlimit="10" stroke-opacity="1" fill="none" fill-rule="nonzero"/><path d="M4916.39 6151.22 4883.39 6118.22M4883.39 6151.22 4916.39 6118.22" stroke="#898989" stroke-width="3.4375" stroke-linecap="butt" stroke-linejoin="round" stroke-miterlimit="10" stroke-opacity="1" fill="none" fill-rule="nonzero"/><path d="M5036.39 6128.22 5003.39 6095.22M5003.39 6128.22 5036.39 6095.22" stroke="#898989" stroke-width="3.4375" stroke-linecap="butt" stroke-linejoin="round" stroke-miterlimit="10" stroke-opacity="1" fill="none" fill-rule="nonzero"/><path d="M5156.39 6105.22 5123.39 6072.22M5123.39 6105.22 5156.39 6072.22" stroke="#898989" stroke-width="3.4375" stroke-linecap="butt" stroke-linejoin="round" stroke-miterlimit="10" stroke-opacity="1" fill="none" fill-rule="nonzero"/></g><g><path d="M3216 6596 3336.11 6588.22 3456.11 6577.22 3576.12 6563.22 3697.12 6547.21 3817.13 6529.21 3937.13 6512.21 4057.13 6495.21 4178.14 6476.21 4298.14 6455.21 4418.15 6437.21 4538.15 6415.21 4659.15 6392.21 4779.16 6376.21 4899.16 6356.21 5019.16 6340.21 5140 6321" stroke="#212121" stroke-width="10.3125" stroke-linecap="round" stroke-linejoin="round" stroke-miterlimit="10" stroke-opacity="1" fill="none" fill-rule="nonzero"/></g><g><path d="M3232.39 6612.22 3199.39 6579.22M3215.89 6579.22 3215.89 6612.22M3199.39 6612.22 3232.39 6579.22" stroke="#212121" stroke-width="3.4375" stroke-linecap="butt" stroke-linejoin="round" stroke-miterlimit="10" stroke-opacity="1" fill="none" fill-rule="nonzero"/><path d="M3353.39 6604.22 3320.39 6571.22M3336.89 6571.22 3336.89 6604.22M3320.39 6604.22 3353.39 6571.22" stroke="#212121" stroke-width="3.4375" stroke-linecap="butt" stroke-linejoin="round" stroke-miterlimit="10" stroke-opacity="1" fill="none" fill-rule="nonzero"/><path d="M3473.39 6594.22 3440.39 6561.22M3456.89 6561.22 3456.89 6594.22M3440.39 6594.22 3473.39 6561.22" stroke="#212121" stroke-width="3.4375" stroke-linecap="butt" stroke-linejoin="round" stroke-miterlimit="10" stroke-opacity="1" fill="none" fill-rule="nonzero"/><path d="M3593.39 6579.22 3560.39 6546.22M3576.89 6546.22 3576.89 6579.22M3560.39 6579.22 3593.39 6546.22" stroke="#212121" stroke-width="3.4375" stroke-linecap="butt" stroke-linejoin="round" stroke-miterlimit="10" stroke-opacity="1" fill="none" fill-rule="nonzero"/><path d="M3713.39 6563.22 3680.39 6530.22M3696.89 6530.22 3696.89 6563.22M3680.39 6563.22 3713.39 6530.22" stroke="#212121" stroke-width="3.4375" stroke-linecap="butt" stroke-linejoin="round" stroke-miterlimit="10" stroke-opacity="1" fill="none" fill-rule="nonzero"/><path d="M3834.39 6546.22 3801.39 6513.22M3817.89 6513.22 3817.89 6546.22M3801.39 6546.22 3834.39 6513.22" stroke="#212121" stroke-width="3.4375" stroke-linecap="butt" stroke-linejoin="round" stroke-miterlimit="10" stroke-opacity="1" fill="none" fill-rule="nonzero"/><path d="M3954.39 6529.22 3921.39 6496.22M3937.89 6496.22 3937.89 6529.22M3921.39 6529.22 3954.39 6496.22" stroke="#212121" stroke-width="3.4375" stroke-linecap="butt" stroke-linejoin="round" stroke-miterlimit="10" stroke-opacity="1" fill="none" fill-rule="nonzero"/><path d="M4074.39 6511.22 4041.39 6478.22M4057.89 6478.22 4057.89 6511.22M4041.39 6511.22 4074.39 6478.22" stroke="#212121" stroke-width="3.4375" stroke-linecap="butt" stroke-linejoin="round" stroke-miterlimit="10" stroke-opacity="1" fill="none" fill-rule="nonzero"/><path d="M4194.39 6492.22 4161.39 6459.22M4177.89 6459.22 4177.89 6492.22M4161.39 6492.22 4194.39 6459.22" stroke="#212121" stroke-width="3.4375" stroke-linecap="butt" stroke-linejoin="round" stroke-miterlimit="10" stroke-opacity="1" fill="none" fill-rule="nonzero"/><path d="M4315.39 6472.22 4282.39 6439.22M4298.89 6439.22 4298.89 6472.22M4282.39 6472.22 4315.39 6439.22" stroke="#212121" stroke-width="3.4375" stroke-linecap="butt" stroke-linejoin="round" stroke-miterlimit="10" stroke-opacity="1" fill="none" fill-rule="nonzero"/><path d="M4435.39 6453.22 4402.39 6420.22M4418.89 6420.22 4418.89 6453.22M4402.39 6453.22 4435.39 6420.22" stroke="#212121" stroke-width="3.4375" stroke-linecap="butt" stroke-linejoin="round" stroke-miterlimit="10" stroke-opacity="1" fill="none" fill-rule="nonzero"/><path d="M4555.39 6432.22 4522.39 6399.22M4538.89 6399.22 4538.89 6432.22M4522.39 6432.22 4555.39 6399.22" stroke="#212121" stroke-width="3.4375" stroke-linecap="butt" stroke-linejoin="round" stroke-miterlimit="10" stroke-opacity="1" fill="none" fill-rule="nonzero"/><path d="M4675.39 6409.22 4642.39 6376.22M4658.89 6376.22 4658.89 6409.22M4642.39 6409.22 4675.39 6376.22" stroke="#212121" stroke-width="3.4375" stroke-linecap="butt" stroke-linejoin="round" stroke-miterlimit="10" stroke-opacity="1" fill="none" fill-rule="nonzero"/><path d="M4796.39 6392.22 4763.39 6359.22M4779.89 6359.22 4779.89 6392.22M4763.39 6392.22 4796.39 6359.22" stroke="#212121" stroke-width="3.4375" stroke-linecap="butt" stroke-linejoin="round" stroke-miterlimit="10" stroke-opacity="1" fill="none" fill-rule="nonzero"/><path d="M4916.39 6373.22 4883.39 6340.22M4899.89 6340.22 4899.89 6373.22M4883.39 6373.22 4916.39 6340.22" stroke="#212121" stroke-width="3.4375" stroke-linecap="butt" stroke-linejoin="round" stroke-miterlimit="10" stroke-opacity="1" fill="none" fill-rule="nonzero"/><path d="M5036.39 6357.22 5003.39 6324.22M5019.89 6324.22 5019.89 6357.22M5003.39 6357.22 5036.39 6324.22" stroke="#212121" stroke-width="3.4375" stroke-linecap="butt" stroke-linejoin="round" stroke-miterlimit="10" stroke-opacity="1" fill="none" fill-rule="nonzero"/><path d="M5156.39 6337.22 5123.39 6304.22M5139.89 6304.22 5139.89 6337.22M5123.39 6337.22 5156.39 6304.22" stroke="#212121" stroke-width="3.4375" stroke-linecap="butt" stroke-linejoin="round" stroke-miterlimit="10" stroke-opacity="1" fill="none" fill-rule="nonzero"/></g><g><text fill="#595959" fill-opacity="1" font-family="NanumMyeongjo,NanumMyeongjo_MSFontService,sans-serif" font-style="normal" font-variant="normal" font-weight="400" font-stretch="normal" font-size="46" text-anchor="start" direction="ltr" writing-mode="lr-tb" unicode-bidi="normal" text-decoration="none" transform="matrix(1 0 0 1 3053.52 6620)">0.0</text></g><g><text fill="#595959" fill-opacity="1" font-family="NanumMyeongjo,NanumMyeongjo_MSFontService,sans-serif" font-style="normal" font-variant="normal" font-weight="400" font-stretch="normal" font-size="46" text-anchor="start" direction="ltr" writing-mode="lr-tb" unicode-bidi="normal" text-decoration="none" transform="matrix(1 0 0 1 3004.29 6442)">200.0</text></g><g><text fill="#595959" fill-opacity="1" font-family="NanumMyeongjo,NanumMyeongjo_MSFontService,sans-serif" font-style="normal" font-variant="normal" font-weight="400" font-stretch="normal" font-size="46" text-anchor="start" direction="ltr" writing-mode="lr-tb" unicode-bidi="normal" text-decoration="none" transform="matrix(1 0 0 1 3004.29 6264)">400.0</text></g><g><text fill="#595959" fill-opacity="1" font-family="NanumMyeongjo,NanumMyeongjo_MSFontService,sans-serif" font-style="normal" font-variant="normal" font-weight="400" font-stretch="normal" font-size="46" text-anchor="start" direction="ltr" writing-mode="lr-tb" unicode-bidi="normal" text-decoration="none" transform="matrix(1 0 0 1 3004.29 6086)">600.0</text></g><g><text fill="#595959" fill-opacity="1" font-family="NanumMyeongjo,NanumMyeongjo_MSFontService,sans-serif" font-style="normal" font-variant="normal" font-weight="400" font-stretch="normal" font-size="46" text-anchor="start" direction="ltr" writing-mode="lr-tb" unicode-bidi="normal" text-decoration="none" transform="matrix(1 0 0 1 3004.29 5908)">800.0</text></g><g><text fill="#595959" fill-opacity="1" font-family="NanumMyeongjo,NanumMyeongjo_MSFontService,sans-serif" font-style="normal" font-variant="normal" font-weight="400" font-stretch="normal" font-size="46" text-anchor="start" direction="ltr" writing-mode="lr-tb" unicode-bidi="normal" text-decoration="none" transform="matrix(1 0 0 1 2979.68 5730)">1000.0</text></g><g><text fill="#595959" fill-opacity="1" font-family="NanumMyeongjo,NanumMyeongjo_MSFontService,sans-serif" font-style="normal" font-variant="normal" font-weight="400" font-stretch="normal" font-size="46" text-anchor="start" direction="ltr" writing-mode="lr-tb" unicode-bidi="normal" text-decoration="none" transform="matrix(1 0 0 1 2979.68 5552)">1200.0</text></g><g><text fill="#595959" fill-opacity="1" font-family="NanumMyeongjo,NanumMyeongjo_MSFontService,sans-serif" font-style="normal" font-variant="normal" font-weight="400" font-stretch="normal" font-size="46" text-anchor="start" direction="ltr" writing-mode="lr-tb" unicode-bidi="normal" text-decoration="none" transform="matrix(1 0 0 1 3203.52 6675)">3</text></g><g><text fill="#595959" fill-opacity="1" font-family="NanumMyeongjo,NanumMyeongjo_MSFontService,sans-serif" font-style="normal" font-variant="normal" font-weight="400" font-stretch="normal" font-size="46" text-anchor="start" direction="ltr" writing-mode="lr-tb" unicode-bidi="normal" text-decoration="none" transform="matrix(1 0 0 1 3323.78 6675)">5</text></g><g><text fill="#595959" fill-opacity="1" font-family="NanumMyeongjo,NanumMyeongjo_MSFontService,sans-serif" font-style="normal" font-variant="normal" font-weight="400" font-stretch="normal" font-size="46" text-anchor="start" direction="ltr" writing-mode="lr-tb" unicode-bidi="normal" text-decoration="none" transform="matrix(1 0 0 1 3444.03 6675)">7</text></g><g><text fill="#595959" fill-opacity="1" font-family="NanumMyeongjo,NanumMyeongjo_MSFontService,sans-serif" font-style="normal" font-variant="normal" font-weight="400" font-stretch="normal" font-size="46" text-anchor="start" direction="ltr" writing-mode="lr-tb" unicode-bidi="normal" text-decoration="none" transform="matrix(1 0 0 1 3564.29 6675)">9</text></g><g><text fill="#595959" fill-opacity="1" font-family="NanumMyeongjo,NanumMyeongjo_MSFontService,sans-serif" font-style="normal" font-variant="normal" font-weight="400" font-stretch="normal" font-size="46" text-anchor="start" direction="ltr" writing-mode="lr-tb" unicode-bidi="normal" text-decoration="none" transform="matrix(1 0 0 1 3672.24 6675)">11</text></g><g><text fill="#595959" fill-opacity="1" font-family="NanumMyeongjo,NanumMyeongjo_MSFontService,sans-serif" font-style="normal" font-variant="normal" font-weight="400" font-stretch="normal" font-size="46" text-anchor="start" direction="ltr" writing-mode="lr-tb" unicode-bidi="normal" text-decoration="none" transform="matrix(1 0 0 1 3792.49 6675)">13</text></g><g><text fill="#595959" fill-opacity="1" font-family="NanumMyeongjo,NanumMyeongjo_MSFontService,sans-serif" font-style="normal" font-variant="normal" font-weight="400" font-stretch="normal" font-size="46" text-anchor="start" direction="ltr" writing-mode="lr-tb" unicode-bidi="normal" text-decoration="none" transform="matrix(1 0 0 1 3912.75 6675)">15</text></g><g><text fill="#595959" fill-opacity="1" font-family="NanumMyeongjo,NanumMyeongjo_MSFontService,sans-serif" font-style="normal" font-variant="normal" font-weight="400" font-stretch="normal" font-size="46" text-anchor="start" direction="ltr" writing-mode="lr-tb" unicode-bidi="normal" text-decoration="none" transform="matrix(1 0 0 1 4033 6675)">17</text></g><g><text fill="#595959" fill-opacity="1" font-family="NanumMyeongjo,NanumMyeongjo_MSFontService,sans-serif" font-style="normal" font-variant="normal" font-weight="400" font-stretch="normal" font-size="46" text-anchor="start" direction="ltr" writing-mode="lr-tb" unicode-bidi="normal" text-decoration="none" transform="matrix(1 0 0 1 4153.26 6675)">19</text></g><g><text fill="#595959" fill-opacity="1" font-family="NanumMyeongjo,NanumMyeongjo_MSFontService,sans-serif" font-style="normal" font-variant="normal" font-weight="400" font-stretch="normal" font-size="46" text-anchor="start" direction="ltr" writing-mode="lr-tb" unicode-bidi="normal" text-decoration="none" transform="matrix(1 0 0 1 4273.52 6675)">21</text></g><g><text fill="#595959" fill-opacity="1" font-family="NanumMyeongjo,NanumMyeongjo_MSFontService,sans-serif" font-style="normal" font-variant="normal" font-weight="400" font-stretch="normal" font-size="46" text-anchor="start" direction="ltr" writing-mode="lr-tb" unicode-bidi="normal" text-decoration="none" transform="matrix(1 0 0 1 4393.77 6675)">23</text></g><g><text fill="#595959" fill-opacity="1" font-family="NanumMyeongjo,NanumMyeongjo_MSFontService,sans-serif" font-style="normal" font-variant="normal" font-weight="400" font-stretch="normal" font-size="46" text-anchor="start" direction="ltr" writing-mode="lr-tb" unicode-bidi="normal" text-decoration="none" transform="matrix(1 0 0 1 4514.03 6675)">25</text></g><g><text fill="#595959" fill-opacity="1" font-family="NanumMyeongjo,NanumMyeongjo_MSFontService,sans-serif" font-style="normal" font-variant="normal" font-weight="400" font-stretch="normal" font-size="46" text-anchor="start" direction="ltr" writing-mode="lr-tb" unicode-bidi="normal" text-decoration="none" transform="matrix(1 0 0 1 4634.28 6675)">27</text></g><g><text fill="#595959" fill-opacity="1" font-family="NanumMyeongjo,NanumMyeongjo_MSFontService,sans-serif" font-style="normal" font-variant="normal" font-weight="400" font-stretch="normal" font-size="46" text-anchor="start" direction="ltr" writing-mode="lr-tb" unicode-bidi="normal" text-decoration="none" transform="matrix(1 0 0 1 4754.54 6675)">29</text></g><g><text fill="#595959" fill-opacity="1" font-family="NanumMyeongjo,NanumMyeongjo_MSFontService,sans-serif" font-style="normal" font-variant="normal" font-weight="400" font-stretch="normal" font-size="46" text-anchor="start" direction="ltr" writing-mode="lr-tb" unicode-bidi="normal" text-decoration="none" transform="matrix(1 0 0 1 4874.79 6675)">31</text></g><g><text fill="#595959" fill-opacity="1" font-family="NanumMyeongjo,NanumMyeongjo_MSFontService,sans-serif" font-style="normal" font-variant="normal" font-weight="400" font-stretch="normal" font-size="46" text-anchor="start" direction="ltr" writing-mode="lr-tb" unicode-bidi="normal" text-decoration="none" transform="matrix(1 0 0 1 4995.05 6675)">33</text></g><g><text fill="#595959" fill-opacity="1" font-family="NanumMyeongjo,NanumMyeongjo_MSFontService,sans-serif" font-style="normal" font-variant="normal" font-weight="400" font-stretch="normal" font-size="46" text-anchor="start" direction="ltr" writing-mode="lr-tb" unicode-bidi="normal" text-decoration="none" transform="matrix(1 0 0 1 5115.31 6675)">35</text></g><g><text fill="#595959" fill-opacity="1" font-family="NanumMyeongjo,NanumMyeongjo_MSFontService,sans-serif" font-style="normal" font-variant="normal" font-weight="400" font-stretch="normal" font-size="55" text-anchor="start" direction="ltr" writing-mode="lr-tb" unicode-bidi="normal" text-decoration="none" transform="matrix(6.12323e-17 -1 1 6.12323e-17 2943.68 6201)">No. of hits</text></g><g><text fill="#595959" fill-opacity="1" font-family="NanumMyeongjo,NanumMyeongjo_MSFontService,sans-serif" font-style="normal" font-variant="normal" font-weight="400" font-stretch="normal" font-size="55" text-anchor="start" direction="ltr" writing-mode="lr-tb" unicode-bidi="normal" text-decoration="none" transform="matrix(1 0 0 1 4090.55 6760)">Top</text></g><g><text fill="#595959" fill-opacity="1" font-family="NanumMyeongjo,NanumMyeongjo_MSFontService,sans-serif" font-style="normal" font-variant="normal" font-weight="400" font-stretch="normal" font-size="55" text-anchor="start" direction="ltr" writing-mode="lr-tb" unicode-bidi="normal" text-decoration="none" transform="matrix(1 0 0 1 4183.61 6760)">-</text></g><g><text fill="#595959" fill-opacity="1" font-family="NanumMyeongjo,NanumMyeongjo_MSFontService,sans-serif" font-style="normal" font-variant="normal" font-weight="400" font-stretch="normal" font-size="55" text-anchor="start" direction="ltr" writing-mode="lr-tb" unicode-bidi="normal" text-decoration="none" transform="matrix(1 0 0 1 4218.74 6760)">N</text></g><g><text fill="#595959" fill-opacity="1" font-family="NanumMyeongjo,NanumMyeongjo_MSFontService,sans-serif" font-style="normal" font-variant="normal" font-weight="400" font-stretch="normal" font-size="66" text-anchor="start" direction="ltr" writing-mode="lr-tb" unicode-bidi="normal" text-decoration="none" transform="matrix(1 0 0 1 3974.72 5454)">likes</text></g><g><path d="M3463 6884 3551 6884" stroke="#5F5F5F" stroke-width="10.3125" stroke-linecap="round" stroke-linejoin="round" stroke-miterlimit="10" stroke-opacity="1" fill="none" fill-rule="evenodd"/></g><g><path d="M3523 6884.5C3523 6893.06 3516.06 6900 3507.5 6900 3498.94 6900 3492 6893.06 3492 6884.5 3492 6875.94 3498.94 6869 3507.5 6869 3516.06 6869 3523 6875.94 3523 6884.5Z" stroke="#5F5F5F" stroke-width="3.4375" stroke-linecap="butt" stroke-linejoin="round" stroke-miterlimit="10" stroke-opacity="1" fill="#5F5F5F" fill-rule="nonzero" fill-opacity="1"/></g><g><text fill="#595959" fill-opacity="1" font-family="NanumMyeongjo,NanumMyeongjo_MSFontService,sans-serif" font-style="normal" font-variant="normal" font-weight="400" font-stretch="normal" font-size="55" text-anchor="start" direction="ltr" writing-mode="lr-tb" unicode-bidi="normal" text-decoration="none" transform="matrix(1 0 0 1 3560.28 6903)">IBCF</text></g><g><path d="M3737 6884 3825 6884" stroke="#B3B3B3" stroke-width="10.3125" stroke-linecap="round" stroke-linejoin="round" stroke-miterlimit="10" stroke-opacity="1" fill="none" fill-rule="evenodd"/></g><g><path d="M3764.62 6868.73 3795.62 6868.73 3795.62 6899.73 3764.62 6899.73Z" stroke="#B3B3B3" stroke-width="3.4375" stroke-linecap="butt" stroke-linejoin="round" stroke-miterlimit="10" stroke-opacity="1" fill="#B3B3B3" fill-rule="nonzero" fill-opacity="1"/></g><g><text fill="#595959" fill-opacity="1" font-family="NanumMyeongjo,NanumMyeongjo_MSFontService,sans-serif" font-style="normal" font-variant="normal" font-weight="400" font-stretch="normal" font-size="55" text-anchor="start" direction="ltr" writing-mode="lr-tb" unicode-bidi="normal" text-decoration="none" transform="matrix(1 0 0 1 3834.17 6903)">NMF</text></g><g><path d="M4022 6884 4110 6884" stroke="#898989" stroke-width="10.3125" stroke-linecap="round" stroke-linejoin="round" stroke-miterlimit="10" stroke-opacity="1" fill="none" fill-rule="evenodd"/></g><g><path d="M4082.5 6900.5 4050.5 6868.5M4050.5 6900.5 4082.5 6868.5" stroke="#898989" stroke-width="3.4375" stroke-linecap="butt" stroke-linejoin="round" stroke-miterlimit="10" stroke-opacity="1" fill="none" fill-rule="nonzero"/></g><g><text fill="#595959" fill-opacity="1" font-family="NanumMyeongjo,NanumMyeongjo_MSFontService,sans-serif" font-style="normal" font-variant="normal" font-weight="400" font-stretch="normal" font-size="55" text-anchor="start" direction="ltr" writing-mode="lr-tb" unicode-bidi="normal" text-decoration="none" transform="matrix(1 0 0 1 4119.34 6903)">Rev1</text></g><g><path d="M4296 6884 4384 6884" stroke="#212121" stroke-width="10.3125" stroke-linecap="round" stroke-linejoin="round" stroke-miterlimit="10" stroke-opacity="1" fill="none" fill-rule="evenodd"/></g><g><path d="M4355.5 6900.5 4323.5 6868.5M4339.64 6868.5 4339.64 6900.5M4323.5 6900.5 4355.5 6868.5" stroke="#212121" stroke-width="3.4375" stroke-linecap="butt" stroke-linejoin="round" stroke-miterlimit="10" stroke-opacity="1" fill="none" fill-rule="nonzero"/></g><g><text fill="#595959" fill-opacity="1" font-family="NanumMyeongjo,NanumMyeongjo_MSFontService,sans-serif" font-style="normal" font-variant="normal" font-weight="400" font-stretch="normal" font-size="55" text-anchor="start" direction="ltr" writing-mode="lr-tb" unicode-bidi="normal" text-decoration="none" transform="matrix(1 0 0 1 4393.11 6903)">Rev4Ver1</text></g><rect x="2826.5" y="5347.5" width="2424" height="1610" stroke="#D9D9D9" stroke-width="3.4375" stroke-linecap="butt" stroke-linejoin="round" stroke-miterlimit="10" stroke-opacity="1" fill="none"/></g></g></svg>